M48
;Layer_Color=9474304
;FILE_FORMAT=2:5
INCH,LZ
;TYPE=PLATED
T1F00S00C0.02800
T2F00S00C0.03740
T3F00S00C0.04370
T4F00S00C0.05315
T5F00S00C0.05591
T6F00S00C0.12598
;TYPE=NON_PLATED
T7F00S00C0.02913
%
T01
X0231Y0128
X02525
X0241244Y0143756
X03655Y0166
X0383Y0206
X0379338Y0220885
X0369Y02285
X0359262Y0292834
X027925Y028475
X0281Y02575
X0215851Y0283916
X02055Y0278
X01965Y02975
X02165Y02105
X0197Y0171256
X0194912Y0158378
X0216Y0338
X020956Y038103
X02225Y0388
X0202Y0402
X02205Y044
X0378Y04355
X0377088Y0448719
X0368Y0459
X03575Y0395
X03695Y0355
X037875Y0347132
X03765Y03325
T02
X02795Y0136
X02895
X02995
X03095
X03195
X03295
X03395
X03495
T03
X0327Y02445
Y02545
Y02645
Y02745
Y02845
Y02945
Y03045
X0317Y02945
X0307
X0297
X0287
X0277
X0267
Y03045
Y02845
Y02745
Y02645
Y02545
Y02445
Y03145
Y03245
Y03345
Y03445
Y03545
Y03645
Y03745
Y03845
Y03945
Y04045
Y04145
Y04245
Y04345
Y04445
Y04545
Y04645
X0279008Y04495
Y04395
Y04295
Y04195
Y04095
X0327Y04045
Y03945
Y03845
Y03745
Y03645
Y03545
Y03445
Y03345
Y03245
Y03145
Y04145
Y04245
Y04345
Y04445
Y04545
Y04645
X0317
X0327Y04745
X0267
T04
X0134Y0129543
Y0143323
X018072Y0123
X01945
X0281441Y01225
X029522
X0309
X0322779
X0336559
X0350339
X0364118
X0377898
X044Y0130882
Y0144661
Y0158441
Y0172221
Y0186
Y0199779
Y0213559
Y0227339
Y0252
Y0265779
Y0279559
Y0293339
Y0307118
X0134
Y0293339
Y0279559
Y0265779
Y0252
Y0226
Y0212221
Y0198441
Y0184661
Y0170882
Y0157102
Y0320898
Y0334677
Y0348457
Y0373
Y0386779
Y0400559
Y0414339
Y0428118
Y0441898
Y0455677
X044Y0455898
Y0442118
Y0428339
Y0414559
Y0400779
Y0387
Y037322
Y0348457
Y0334677
Y0320898
Y0469677
X0417559Y0477
X040378
X039
X037622
X0210279Y0476
X01965
X018272
X0168941
X0134Y0469457
T05
X0226421Y0117
X0236461
X02465
T06
X01135Y0108
X04065Y01175
X0458Y0108
X0416Y02405
X01615Y02395
X0162225Y0360452
X04125Y03605
X04585Y0493
X0347Y0492
X0235Y04925
X0113
T07
X02935Y02425
X02985
Y02475
X0296Y024502
X02935Y02475
Y02525
X0296Y025498
X02985Y02525
Y02575
X02935
X0293Y02695
X0298
Y02745
X02955Y027202
X0293Y02745
Y02795
X02955Y028198
X0298Y02795
Y02845
X0293
M30
