G04*
G04 #@! TF.GenerationSoftware,Altium Limited,Altium Designer,23.4.1 (23)*
G04*
G04 Layer_Physical_Order=1*
G04 Layer_Color=255*
%FSLAX25Y25*%
%MOIN*%
G70*
G04*
G04 #@! TF.SameCoordinates,D3063454-9748-4D5F-95FB-788F291D17A3*
G04*
G04*
G04 #@! TF.FilePolarity,Positive*
G04*
G01*
G75*
%ADD14C,0.01000*%
%ADD15R,0.07100X0.02100*%
%ADD16R,0.03937X0.05709*%
%ADD17R,0.03071X0.03898*%
%ADD18R,0.05787X0.02913*%
%ADD19R,0.04646X0.11063*%
%ADD35C,0.04000*%
%ADD36C,0.03000*%
%ADD37C,0.05000*%
%ADD38R,0.07972X0.07972*%
%ADD39C,0.07972*%
%ADD40R,0.07972X0.07972*%
%ADD41R,0.05610X0.05610*%
%ADD42C,0.05610*%
%ADD43R,0.08386X0.08386*%
%ADD44C,0.08386*%
%ADD45C,0.06555*%
%ADD46C,0.01457*%
%ADD47C,0.23622*%
%ADD48C,0.05000*%
D14*
X300000Y136500D02*
X308780Y127720D01*
X258500Y146500D02*
X290000D01*
X300000Y136500D01*
X253414Y151586D02*
X258500Y146500D01*
X284500Y142000D02*
X289500Y137000D01*
X250000Y151178D02*
X259178Y142000D01*
X284500D01*
X338000Y166000D02*
X344000Y160000D01*
X296000Y181000D02*
X311000Y166000D01*
X338000D01*
X324500Y147000D02*
X338000D01*
X344000Y153000D01*
Y160000D01*
X319500Y142000D02*
X324500Y147000D01*
X319500Y136000D02*
Y142000D01*
X196872Y171128D02*
X197000Y171256D01*
X188328Y171128D02*
X196872D01*
X188200Y171000D02*
X188328Y171128D01*
X241491Y171000D02*
X275000Y204509D01*
X225800Y171000D02*
X241491D01*
X240849Y176000D02*
X272000Y207151D01*
X225800Y176000D02*
X240849D01*
X260500Y206500D02*
Y239000D01*
X235000Y181000D02*
X260500Y206500D01*
X225800Y181000D02*
X235000D01*
X254000Y206000D02*
Y243500D01*
X225800Y186000D02*
X234000D01*
X254000Y206000D01*
X250000Y208500D02*
Y251500D01*
X225800Y191000D02*
X232500D01*
X250000Y208500D01*
X245000Y209000D02*
Y255000D01*
X225800Y196000D02*
X232000D01*
X245000Y209000D01*
X240500D02*
Y260500D01*
X232500Y201000D02*
X240500Y209000D01*
X225800Y201000D02*
X232500D01*
X265937Y283437D02*
X267000Y284500D01*
X263437Y283437D02*
X265937D01*
X240500Y260500D02*
X263437Y283437D01*
X216750Y210750D02*
X225550D01*
X216500Y210500D02*
X216750Y210750D01*
X225550D02*
X225800Y211000D01*
X219422Y205657D02*
X221579Y203500D01*
X216500Y210500D02*
X219422Y207578D01*
Y205657D02*
Y207578D01*
X235000Y206586D02*
Y264500D01*
X227201Y206000D02*
X234414D01*
X235000Y206586D01*
X177039Y157354D02*
X183150Y163466D01*
Y172671D01*
X185700Y176000D02*
X188200D01*
X184575Y174096D02*
Y174875D01*
X180000Y167316D02*
Y171487D01*
X176209Y157354D02*
X177039D01*
X174740Y155000D02*
Y155886D01*
X183150Y172671D02*
X184575Y174096D01*
X180000Y171487D02*
X181150Y172637D01*
Y173500D02*
X182575Y174925D01*
Y177096D01*
X177039Y171354D02*
X179150Y173466D01*
X181150Y172637D02*
Y173500D01*
X179150Y173466D02*
Y176500D01*
X184575Y174875D02*
X185700Y176000D01*
X179150Y176500D02*
X182000Y179350D01*
X174740Y155886D02*
X176209Y157354D01*
X182575Y177096D02*
X184000Y178521D01*
Y179300D02*
X185700Y181000D01*
X188200D01*
X174740Y169000D02*
Y169886D01*
X176209Y171354D01*
X182000Y179350D02*
Y183000D01*
X184000Y178521D02*
Y179300D01*
X174740Y162886D02*
X176209Y164354D01*
X174740Y162000D02*
Y162886D01*
X176209Y164354D02*
X177039D01*
X180000Y167316D01*
X184500Y185500D02*
X187700D01*
X188200Y186000D01*
X182000Y183000D02*
X184500Y185500D01*
X176209Y171354D02*
X177039D01*
X185700Y191000D02*
X188200D01*
X180000Y185300D02*
X185700Y191000D01*
X180000Y181316D02*
Y185300D01*
X177039Y178354D02*
X180000Y181316D01*
X176209Y178354D02*
X177039D01*
X178500Y186816D02*
Y188800D01*
X174740Y176886D02*
X176209Y178354D01*
X174740Y176000D02*
Y176886D01*
X177039Y185354D02*
X178500Y186816D01*
X176209Y185354D02*
X177039D01*
X185700Y196000D02*
X188200D01*
X178500Y188800D02*
X185700Y196000D01*
X174740Y183886D02*
X176209Y185354D01*
X174740Y183000D02*
Y183886D01*
X175740Y188886D02*
Y191886D01*
X176209Y192354D02*
X177054D01*
X185700Y201000D01*
X175740Y191886D02*
X176209Y192354D01*
X185700Y201000D02*
X188200D01*
X175740Y195000D02*
Y196414D01*
X176209Y196883D02*
X177623D01*
X183150Y202410D01*
Y202671D02*
X185617Y205139D01*
X183150Y202410D02*
Y202671D01*
X175740Y196414D02*
X176209Y196883D01*
X185617Y205139D02*
X188379D01*
X189965Y210450D02*
X190515Y211000D01*
X184190Y210450D02*
X189965D01*
X175740Y202000D02*
X184190Y210450D01*
X246500Y323500D02*
Y343500D01*
X240500Y317500D02*
X246500Y323500D01*
X224139Y317500D02*
X240500D01*
X243000Y329500D02*
Y349500D01*
X237000Y323500D02*
X243000Y329500D01*
X223103Y323500D02*
X237000D01*
X216000Y338000D02*
X224800D01*
X196250Y297750D02*
X196500Y297500D01*
X187200Y298000D02*
X187450Y297750D01*
X196250D01*
X255000Y298000D02*
X261500Y304500D01*
X224800Y298000D02*
X255000D01*
X251000Y303000D02*
X262500Y314500D01*
X224800Y303000D02*
X251000D01*
X250500Y308000D02*
X267000Y324500D01*
X224800Y308000D02*
X250500D01*
X250000Y316500D02*
Y336000D01*
X224800Y313000D02*
X246500D01*
X250000Y316500D01*
X238500Y334000D02*
Y356500D01*
X232500Y328000D02*
X238500Y334000D01*
X224800Y328000D02*
X232500D01*
X233500Y333086D02*
Y364500D01*
X223948Y332500D02*
X232914D01*
X233500Y333086D01*
X174000Y282000D02*
X174883Y282883D01*
X176883D02*
X182150Y288150D01*
Y299671D01*
X174883Y282883D02*
X176883D01*
X173740Y289000D02*
X174363Y289623D01*
X180150Y293150D02*
Y300500D01*
X174363Y289623D02*
X176623D01*
X180150Y293150D01*
X177038Y296000D02*
X177624Y296586D01*
Y300802D01*
X174000Y296000D02*
X177038D01*
X180150Y308328D02*
Y312671D01*
X178150Y313500D02*
X181094Y316444D01*
X175740Y310886D02*
X178150Y313296D01*
Y313500D01*
X180150Y312671D02*
X183094Y315616D01*
X175740Y317886D02*
X181094Y323240D01*
Y324394D01*
X182736Y337996D02*
X187196D01*
X187200Y338000D01*
X175740Y331000D02*
X182736Y337996D01*
X165000Y282000D02*
X166520D01*
Y278520D02*
Y282000D01*
X139279Y265779D02*
X160158Y286658D01*
X134000Y265779D02*
X139279D01*
X160158Y286658D02*
X164791D01*
X166500Y288367D02*
Y289500D01*
X164791Y286658D02*
X166500Y288367D01*
X134000Y279559D02*
X144059D01*
X160000Y295500D02*
X167920D01*
X144059Y279559D02*
X160000Y295500D01*
X149339Y293339D02*
X158500Y302500D01*
X168428D01*
X137882Y311000D02*
X166867D01*
X134000Y307118D02*
X137882Y311000D01*
X141000Y317000D02*
X166646D01*
X138431Y319569D02*
X141000Y317000D01*
X145177Y323500D02*
X167394D01*
X134000Y334677D02*
X145177Y323500D01*
X155000Y331000D02*
X168440D01*
X152000Y334000D02*
X155000Y331000D01*
X182150Y299671D02*
X184150Y301671D01*
X184700Y303000D02*
X187200D01*
X184150Y301671D02*
Y302450D01*
X184700Y303000D01*
X180150Y300500D02*
X182150Y302500D01*
X179209Y302387D02*
Y304558D01*
X182150Y302500D02*
Y304671D01*
X177624Y300802D02*
X179209Y302387D01*
X184150Y307450D02*
X184700Y308000D01*
X182150Y304671D02*
X184150Y306671D01*
X177209Y305387D02*
X180150Y308328D01*
X177209Y305354D02*
Y305387D01*
X184150Y306671D02*
Y307450D01*
X179209Y304558D02*
X182150Y307500D01*
X184700Y308000D02*
X187200D01*
X182150Y307500D02*
Y309671D01*
X184700Y313000D02*
X187200D01*
X184150Y312450D02*
X184700Y313000D01*
X182150Y309671D02*
X184150Y311671D01*
Y312450D01*
X183094Y316394D02*
X184700Y318000D01*
X183094Y315616D02*
Y316394D01*
X175740Y303886D02*
X177209Y305354D01*
X175740Y303000D02*
Y303886D01*
X184700Y318000D02*
X187200D01*
X181094Y316444D02*
Y319394D01*
X175740Y310000D02*
Y310886D01*
X181094Y319394D02*
X184700Y323000D01*
X187200D01*
X181094Y324394D02*
X184700Y328000D01*
X175740Y317000D02*
Y317886D01*
X184700Y328000D02*
X187200D01*
X177209Y326354D02*
X178632D01*
X184150Y331873D01*
Y332450D01*
X184700Y333000D01*
X187200D01*
X175740Y324000D02*
Y324886D01*
X177209Y326354D01*
X210256Y284000D02*
X210339Y283916D01*
X215851D01*
X166791Y312118D02*
X168260Y310650D01*
Y310000D02*
Y310650D01*
X175740Y330114D02*
Y331000D01*
X166791Y319354D02*
X168260Y317886D01*
Y317000D02*
Y317886D01*
X148457Y334000D02*
X152000D01*
X140000Y252000D02*
X166520Y278520D01*
X177284Y414500D02*
X184709D01*
X190150Y419941D01*
X185500Y421000D02*
X189500Y425000D01*
X176639Y421000D02*
X185500D01*
X176493Y428500D02*
X188700D01*
X190700Y430500D01*
X176617Y435500D02*
X193200D01*
X179623Y399768D02*
X189804Y409950D01*
X192650D02*
X193200Y410500D01*
X189804Y409950D02*
X192650D01*
X178209Y398354D02*
Y399768D01*
X179623D01*
X186000Y395586D02*
Y400021D01*
X177284Y395000D02*
X185414D01*
X186000Y395586D01*
X146000Y373000D02*
X166000Y393000D01*
X169618D01*
X159000Y400000D02*
X170364D01*
X145780Y386779D02*
X159000Y400000D01*
X156560Y406500D02*
X169673D01*
X150619Y400559D02*
X156560Y406500D01*
X134000Y414339D02*
X169295D01*
X142882Y428118D02*
X149500Y421500D01*
X169562D01*
X152500Y428500D02*
X169590D01*
X139486Y441514D02*
X152500Y428500D01*
X140000Y451000D02*
X156000Y435000D01*
X169955D01*
X151000Y451000D02*
X160500Y441500D01*
X170079D01*
X193625Y400500D02*
X199418D01*
X200918Y402000D01*
X193375Y400250D02*
X193625Y400500D01*
X200918Y402000D02*
X202000D01*
X245000Y394500D02*
X267000D01*
X239000Y400500D02*
X245000Y394500D01*
X230800Y400500D02*
X239000D01*
X265967Y405533D02*
X267000Y404500D01*
X229894Y405533D02*
X265967D01*
X248500Y410000D02*
X253000Y414500D01*
X230323Y410000D02*
X248500D01*
X230409Y415500D02*
X246000D01*
X255000Y424500D01*
X245000Y420000D02*
X259500Y434500D01*
X230098Y420000D02*
X245000D01*
X229549Y425500D02*
X245500D01*
X250500Y430500D01*
X244000D02*
X246500Y433000D01*
X229662Y430500D02*
X244000D01*
X242000Y436086D02*
Y450000D01*
X241414Y435500D02*
X242000Y436086D01*
X230210Y435500D02*
X241414D01*
X230550Y440250D02*
X230800Y440500D01*
X220750Y440250D02*
X230550D01*
X220500Y440000D02*
X220750Y440250D01*
X186000Y400021D02*
X190150Y404171D01*
X191200Y406000D02*
X193378D01*
X190150Y404171D02*
Y404950D01*
X191200Y406000D01*
X176740Y400886D02*
X178209Y402354D01*
X176740Y400000D02*
Y400886D01*
X190700Y415500D02*
X193200D01*
X187200Y412000D02*
X190700Y415500D01*
X186500Y412000D02*
X187200D01*
X179854Y405354D02*
X186500Y412000D01*
X176740Y407000D02*
Y407886D01*
X178209Y409354D01*
Y405354D02*
X179854D01*
X190150Y419941D02*
Y419950D01*
X190700Y420500D01*
X193200D01*
X189500Y425000D02*
X192700D01*
X193200Y425500D01*
X190700Y430500D02*
X193200D01*
X178209Y440354D02*
X179095D01*
X179240Y440500D01*
X176740Y442000D02*
Y442886D01*
X179240Y440500D02*
X193460D01*
X176740Y442886D02*
X178209Y444354D01*
X350382Y136264D02*
Y138882D01*
X356000Y144500D01*
X350118Y122721D02*
Y136000D01*
X356000Y144500D02*
Y156858D01*
X350118Y136000D02*
X350382Y136264D01*
X338878Y136000D02*
X339500D01*
X336559Y122500D02*
Y133681D01*
X338878Y136000D01*
X319500Y126151D02*
X322779Y122871D01*
X319500Y126151D02*
Y136000D01*
X322779Y122500D02*
Y122871D01*
X296000Y181000D02*
Y228666D01*
X307756Y240422D01*
Y246244D01*
X307457Y246543D02*
X307756Y246244D01*
X304319Y246543D02*
X307457D01*
X303362Y247500D02*
X304319Y246543D01*
X308780Y122721D02*
Y127720D01*
Y122721D02*
X309000Y122500D01*
X288500Y135000D02*
X295000Y128500D01*
X289500Y136000D02*
Y137000D01*
X281441Y122500D02*
Y134059D01*
X279500Y136000D02*
X281441Y134059D01*
X247000Y146500D02*
X269500Y124000D01*
X280107Y123834D02*
X281441Y122500D01*
X277369Y124000D02*
X277535Y123834D01*
X269500Y124000D02*
X277369D01*
X247000Y146500D02*
Y167877D01*
X277535Y123834D02*
X280107D01*
X250000Y151178D02*
Y164283D01*
X253414Y151586D02*
Y161710D01*
X225756Y134587D02*
Y135000D01*
X228172Y130828D02*
Y132171D01*
X231000Y128000D02*
Y128000D01*
X225756Y134587D02*
X228172Y132171D01*
Y130828D02*
X231000Y128000D01*
X250756Y130826D02*
Y134500D01*
Y130826D02*
X252500Y129082D01*
Y128000D02*
Y129082D01*
X295000Y122721D02*
Y128500D01*
X350118Y122721D02*
X350339Y122500D01*
X295000Y122721D02*
X295220Y122500D01*
X247000Y167877D02*
X278831Y199707D01*
Y248831D01*
X282701Y252701D01*
X288810D01*
X289012Y252500D01*
X321500Y200191D02*
X345691Y176000D01*
X321500Y200191D02*
Y224180D01*
X316680Y229000D02*
X321500Y224180D01*
X314219Y202785D02*
X346005Y171000D01*
X314219Y202785D02*
Y257781D01*
X290043Y264957D02*
X291000Y264000D01*
X290043Y264957D02*
Y268543D01*
X291000Y264000D02*
X308000D01*
X289087Y269500D02*
X290043Y268543D01*
X289012Y269500D02*
X289087D01*
X288138Y284500D02*
X289012D01*
X279250Y284750D02*
X287888D01*
X288138Y284500D01*
X202366Y158378D02*
X202744Y158000D01*
X194912Y158378D02*
X202366D01*
X215256Y388000D02*
X222500D01*
X370037Y448719D02*
X377088D01*
X369756Y449000D02*
X370037Y448719D01*
X378000Y435500D02*
X386300D01*
X348950Y395250D02*
X357250D01*
X348700Y395500D02*
X348950Y395250D01*
X357250D02*
X357500Y395000D01*
X346200Y400500D02*
X348700D01*
X341000Y395300D02*
X346200Y400500D01*
X327000Y374500D02*
X341000Y388500D01*
Y395300D01*
X341725Y402225D02*
X342925D01*
X339000Y399500D02*
X341725Y402225D01*
X346200Y405500D02*
X348700D01*
X342925Y402225D02*
X346200Y405500D01*
X339000Y396500D02*
Y399500D01*
X327000Y384500D02*
X339000Y396500D01*
X341700Y406000D02*
X346200Y410500D01*
X338500Y406000D02*
X341700D01*
X346200Y410500D02*
X348700D01*
X327000Y394500D02*
X338500Y406000D01*
X327000Y404500D02*
X332000D01*
X343000Y415500D01*
X348700D01*
X333000Y420500D02*
X348700D01*
X327000Y414500D02*
X333000Y420500D01*
X327000Y424500D02*
X327500Y425000D01*
X348200D02*
X348700Y425500D01*
X327500Y425000D02*
X348200D01*
X331000Y430500D02*
X348700D01*
X327000Y434500D02*
X331000Y430500D01*
X327000Y444500D02*
X334000D01*
X343000Y435500D02*
X348700D01*
X334000Y444500D02*
X343000Y435500D01*
X398791Y441646D02*
X400260Y443114D01*
X396000Y439684D02*
X397961Y441646D01*
X400260Y443114D02*
Y444000D01*
X397961Y441646D02*
X398791D01*
X396000Y437700D02*
Y439684D01*
X386300Y430500D02*
X388800D01*
X396000Y437700D01*
X398791Y434646D02*
X400260Y436114D01*
X397961Y434646D02*
X398791D01*
X394000Y429000D02*
X395981Y430981D01*
X400260Y436114D02*
Y437000D01*
X395981Y432665D02*
X397961Y434646D01*
X395981Y430981D02*
Y432665D01*
X388800Y425500D02*
X392300Y429000D01*
X386300Y425500D02*
X388800D01*
X392300Y429000D02*
X394000D01*
X398791Y427646D02*
X400260Y429114D01*
X396000Y425684D02*
X397961Y427646D01*
X396000Y425500D02*
Y425684D01*
X400260Y429114D02*
Y430000D01*
X397961Y427646D02*
X398791D01*
X386300Y420500D02*
X391000D01*
X396000Y425500D01*
X398791Y420646D02*
X400260Y422114D01*
X396646Y420646D02*
X398791D01*
X391500Y415500D02*
X396646Y420646D01*
X400260Y422114D02*
Y423000D01*
X386300Y415500D02*
X391500D01*
X392498Y410500D02*
X395643Y413646D01*
X398791D01*
X400260Y415114D01*
X386300Y410500D02*
X392498D01*
X400260Y415114D02*
Y416000D01*
X393498Y405500D02*
X394643Y406646D01*
X398791D02*
X400260Y408114D01*
X386300Y405500D02*
X393498D01*
X394643Y406646D02*
X398791D01*
X400260Y408114D02*
Y409000D01*
X386300Y400500D02*
X398791D01*
X400260Y401968D01*
Y402000D01*
X399760Y395500D02*
X400260Y395000D01*
X386300Y395500D02*
X399760D01*
X359179Y292917D02*
X359262Y292834D01*
X349400Y293000D02*
X349483Y292917D01*
X359179D01*
X376750Y332750D02*
X386750D01*
X376500Y332500D02*
X376750Y332750D01*
X386750D02*
X387000Y333000D01*
X371256Y347000D02*
X371388Y347132D01*
X378750D01*
X332500Y364500D02*
X335000Y362000D01*
X327000Y364500D02*
X332500D01*
X335000Y355500D02*
Y362000D01*
Y355500D02*
X343000Y347500D01*
Y336086D02*
X343586Y335500D01*
X344400D01*
X343000Y336086D02*
Y347500D01*
X346900Y333000D02*
X349400D01*
X344400Y335500D02*
X346900Y333000D01*
X338000Y333500D02*
X343500Y328000D01*
X338000Y333500D02*
Y347500D01*
X343500Y328000D02*
X349400D01*
X331778Y353722D02*
X338000Y347500D01*
X327778Y353722D02*
X331778D01*
X327000Y354500D02*
X327778Y353722D01*
X327000Y344500D02*
X327694D01*
X330725Y341469D01*
X332531D01*
X334500Y339500D01*
Y330000D02*
Y339500D01*
Y330000D02*
X341500Y323000D01*
X349400D01*
X327000Y324500D02*
X332000D01*
X338500Y318000D02*
X349400D01*
X332000Y324500D02*
X338500Y318000D01*
X348850Y313550D02*
X349400Y313000D01*
X327950Y313550D02*
X348850D01*
X327000Y314500D02*
X327950Y313550D01*
X327000Y304500D02*
X330500Y308000D01*
X349400D01*
X346900Y303000D02*
X349400D01*
X327000Y294500D02*
X338400D01*
X346900Y303000D01*
Y298000D02*
X349400D01*
X340400Y291500D02*
X346900Y298000D01*
X339500Y291500D02*
X340400D01*
X327000Y284500D02*
X332500D01*
X339500Y291500D01*
X394598Y328000D02*
X395244Y328646D01*
X399791D01*
X401260Y330114D01*
X387000Y328000D02*
X394598D01*
X401260Y330114D02*
Y331000D01*
X400260Y323000D02*
X401260Y324000D01*
X387000Y323000D02*
X400260D01*
X387000Y318000D02*
X400260D01*
X401260Y317000D01*
X394598Y313000D02*
X395244Y312354D01*
X387000Y313000D02*
X394598D01*
X395244Y312354D02*
X399791D01*
X401260Y310886D01*
Y310000D02*
Y310886D01*
X399791Y305354D02*
X401260Y303886D01*
Y303000D02*
Y303886D01*
X387000Y308000D02*
X393598D01*
X396244Y305354D01*
X399791D01*
X392598Y303000D02*
X397243Y298354D01*
X399791D01*
X401260Y296886D01*
X387000Y303000D02*
X392598D01*
X401260Y296000D02*
Y296886D01*
X387000Y298000D02*
X389500D01*
X393276Y292724D02*
Y294224D01*
X389500Y298000D02*
X393276Y294224D01*
Y292724D02*
X397000Y289000D01*
X401260D01*
X383000Y206000D02*
X392800D01*
X397850Y201000D02*
X398824Y201974D01*
X400299D01*
X401768Y203442D01*
Y204328D01*
X392800Y201000D02*
X397850D01*
X400440Y196000D02*
X401768Y197328D01*
X392800Y196000D02*
X400440D01*
X401096Y191000D02*
X401768Y190328D01*
X392800Y191000D02*
X401096D01*
X392800Y186000D02*
X397916D01*
X398234Y185682D01*
X400299D01*
X401768Y184214D01*
Y183328D02*
Y184214D01*
X397618Y178682D02*
X400299D01*
X401768Y177214D01*
X392800Y181000D02*
X395300D01*
X397618Y178682D01*
X401768Y176328D02*
Y177214D01*
X395300Y176000D02*
X397660Y173640D01*
X392800Y176000D02*
X395300D01*
X397660Y173492D02*
Y173640D01*
Y173492D02*
X399469Y171682D01*
X400299D01*
X401768Y170214D01*
Y169328D02*
Y170214D01*
X400299Y164682D02*
X401768Y163214D01*
X399469Y164682D02*
X400299D01*
X401768Y162328D02*
Y163214D01*
X397850Y166302D02*
X399469Y164682D01*
X397850Y166302D02*
Y168450D01*
X395300Y171000D02*
X397850Y168450D01*
X392800Y171000D02*
X395300D01*
X392800Y158200D02*
Y166000D01*
Y158200D02*
X395672Y155328D01*
X401768D01*
X355200Y171000D02*
X357843D01*
X346005D02*
X355200D01*
X358250Y171950D02*
X358441Y172141D01*
X358250Y171407D02*
Y171950D01*
X355200Y166000D02*
X365500D01*
X288638Y257500D02*
X289012D01*
X281000D02*
X288638D01*
X357843Y171000D02*
X358250Y171407D01*
X355200Y176430D02*
X357500D01*
X345691Y176000D02*
X355200D01*
Y181000D02*
X358759D01*
X326960Y202540D02*
X348500Y181000D01*
X326960Y202540D02*
Y226238D01*
X348500Y181000D02*
X355200D01*
X332063Y202437D02*
Y229134D01*
X348000Y186500D02*
X358359D01*
X332063Y202437D02*
X348000Y186500D01*
X355200Y191000D02*
X358678D01*
X338000Y201000D02*
Y240000D01*
X348000Y191000D02*
X355200D01*
X338000Y201000D02*
X348000Y191000D01*
X348500Y196000D02*
X356384D01*
X341000Y203500D02*
Y248000D01*
Y203500D02*
X348500Y196000D01*
X347586Y201000D02*
X357915D01*
X347000Y201586D02*
Y259000D01*
Y201586D02*
X347586Y201000D01*
X341500Y264500D02*
X347000Y259000D01*
X349500Y209393D02*
Y268500D01*
Y209393D02*
X352150Y206743D01*
Y206550D02*
X352700Y206000D01*
X352150Y206550D02*
Y206743D01*
X352700Y206000D02*
X355200D01*
X343500Y274500D02*
X349500Y268500D01*
X262500Y314500D02*
X267000D01*
X261500Y304500D02*
X267000D01*
X235000Y264500D02*
X263937Y293437D01*
X265937D01*
X267000Y294500D01*
X245000Y255000D02*
X263437Y273437D01*
X265937D02*
X267000Y274500D01*
X263437Y273437D02*
X265937D01*
X250000Y251500D02*
X262808Y264308D01*
X266808D02*
X267000Y264500D01*
X262808Y264308D02*
X266808D01*
X254000Y243500D02*
X263937Y253437D01*
X265937D01*
X267000Y254500D01*
X260500Y239000D02*
X266000Y244500D01*
X267000D01*
X258500Y344500D02*
X267000D01*
X250000Y336000D02*
X258500Y344500D01*
X246500Y343500D02*
X257500Y354500D01*
X267000D01*
X243000Y349500D02*
X258000Y364500D01*
X238500Y356500D02*
X256500Y374500D01*
X267000D01*
X258000Y364500D02*
X267000D01*
X233500D02*
X253500Y384500D01*
X267000D01*
X253000Y414500D02*
X267000D01*
X255000Y424500D02*
X267000D01*
X259500Y434500D02*
X267000D01*
X266000Y443500D02*
X267000Y444500D01*
X250500Y438000D02*
X256000Y443500D01*
X266000D01*
X250500Y430500D02*
Y438000D01*
X246500Y444500D02*
X256500Y454500D01*
X267000D01*
X246500Y433000D02*
Y444500D01*
X256500Y464500D02*
X267000D01*
X242000Y450000D02*
X256500Y464500D01*
X387000Y291000D02*
Y293000D01*
X396000Y282000D02*
X401260D01*
X387000Y291000D02*
X396000Y282000D01*
X308244Y257280D02*
X311756Y253768D01*
X303000Y232500D02*
X309756Y239256D01*
Y251197D01*
X308000Y234000D02*
X311756Y237756D01*
Y253768D01*
X308484Y252469D02*
X309756Y251197D01*
X308000Y264000D02*
X314219Y257781D01*
X303000Y182000D02*
Y232500D01*
X378885Y220885D02*
X379338D01*
X378500Y220500D02*
X378885Y220885D01*
X374756Y220500D02*
X378500D01*
X255717Y170000D02*
X262654D01*
X282094Y189440D02*
Y246094D01*
X262654Y170000D02*
X282094Y189440D01*
X272767Y167000D02*
X288789Y183022D01*
X258704Y167000D02*
X272767D01*
X288789Y183022D02*
Y242278D01*
X282094Y246094D02*
X283464Y247463D01*
X250000Y164283D02*
X255717Y170000D01*
X275000Y204509D02*
Y266000D01*
X272000Y207151D02*
Y271000D01*
X275000Y266000D02*
X283500Y274500D01*
X253414Y161710D02*
X258704Y167000D01*
X308000Y184000D02*
Y234000D01*
X340423Y172436D02*
X356000Y156858D01*
X319564Y172436D02*
X340423D01*
X308000Y184000D02*
X319564Y172436D01*
X339946Y168946D02*
X349000Y159893D01*
X303000Y182000D02*
X316054Y168946D01*
X339946D01*
X316680Y229000D02*
Y266320D01*
X319197Y234000D02*
Y270803D01*
Y234000D02*
X326960Y226238D01*
X321657Y239540D02*
Y274342D01*
Y239540D02*
X332063Y229134D01*
X321197Y240000D02*
X321657Y239540D01*
X349000Y148000D02*
Y159893D01*
X288789Y242278D02*
X289012Y242500D01*
X283464Y247463D02*
X288975D01*
X303019Y252469D02*
X308484D01*
X302988Y257500D02*
X303208Y257280D01*
X308244D01*
X333500Y244500D02*
X338000Y240000D01*
X327000Y244500D02*
X333500D01*
X327000Y264500D02*
X341500D01*
X327000Y274500D02*
X343500D01*
X308500D02*
X316680Y266320D01*
X311000Y279000D02*
X319197Y270803D01*
X311500Y284500D02*
X321657Y274342D01*
X272000Y271000D02*
X280500Y279500D01*
X338049Y136597D02*
Y137049D01*
X349000Y148000D01*
X302988Y274500D02*
X308500D01*
X303488Y279000D02*
X311000D01*
X302988Y279500D02*
X303488Y279000D01*
X302988Y284500D02*
X311500D01*
X283500Y274500D02*
X289012D01*
X280500Y279500D02*
X289012D01*
X432882Y138000D02*
X440000Y130882D01*
X410717Y152974D02*
X411602D01*
X409248Y154442D02*
Y155328D01*
Y154442D02*
X410717Y152974D01*
X411602D02*
X426576Y138000D01*
X432882D01*
X430661Y154000D02*
X440000Y144661D01*
X424000Y154000D02*
X430661D01*
X409248Y162328D02*
X415672D01*
X424000Y154000D01*
X434441Y164000D02*
X440000Y158441D01*
X425000Y164000D02*
X434441D01*
X419672Y169328D02*
X425000Y164000D01*
X409248Y169328D02*
X419672D01*
X428780Y172221D02*
X440000D01*
X424672Y176328D02*
X428780Y172221D01*
X409248Y176328D02*
X424672D01*
X409248Y183328D02*
Y183531D01*
X410717Y185000D01*
X439000D02*
X440000Y186000D01*
X410717Y185000D02*
X439000D01*
X419328Y190328D02*
X428780Y199779D01*
X440000D01*
X409248Y190328D02*
X419328D01*
X430559Y213559D02*
X440000D01*
X414328Y197328D02*
X430559Y213559D01*
X409248Y197328D02*
X414328D01*
X409248Y205214D02*
X431373Y227339D01*
X440000D01*
X409248Y204328D02*
Y205214D01*
X411886Y281114D02*
X440000Y253000D01*
X409626Y281114D02*
X411886D01*
X440000Y252000D02*
Y253000D01*
X408740Y282000D02*
X409626Y281114D01*
X408740Y289000D02*
X418000D01*
X429000Y278000D01*
Y276780D02*
X440000Y265779D01*
X429000Y276780D02*
Y278000D01*
X408740Y296000D02*
X423559D01*
X440000Y279559D01*
X408740Y303000D02*
X424000D01*
X433661Y293339D01*
X440000D01*
X408740Y310000D02*
X426000D01*
X428882Y307118D01*
X440000D01*
X408740Y317000D02*
X424000D01*
X427898Y320898D01*
X440000D01*
X408740Y324000D02*
X417000D01*
X427677Y334677D01*
X440000D01*
X408740Y331000D02*
X414000D01*
X431457Y348457D02*
X440000D01*
X414000Y331000D02*
X431457Y348457D01*
X407740Y395000D02*
X418221D01*
X440000Y373220D01*
X407740Y402000D02*
X425000D01*
X440000Y387000D01*
X407740Y409000D02*
X431779D01*
X440000Y400779D01*
X408740Y417000D02*
X434000D01*
X407740Y416000D02*
X408740Y417000D01*
X434000D02*
X435107Y415893D01*
X438666D02*
X440000Y414559D01*
X435107Y415893D02*
X438666D01*
X407740Y423000D02*
X418000D01*
X423339Y428339D02*
X440000D01*
X418000Y423000D02*
X423339Y428339D01*
X407740Y430000D02*
X417000D01*
X429118Y442118D01*
X440000D01*
X417000Y437000D02*
X434563Y454564D01*
X407740Y437000D02*
X417000D01*
X434563Y454564D02*
X438666D01*
X440000Y455898D01*
X414323Y444000D02*
X440000Y469677D01*
X407740Y444000D02*
X414323D01*
X134000Y129543D02*
X140543D01*
X164000Y153000D02*
X168260D01*
X140543Y129543D02*
X164000Y153000D01*
X155000Y160000D02*
X168260D01*
X139486Y144486D02*
X155000Y160000D01*
X134000Y143323D02*
X135163Y144486D01*
X139486D01*
X140102Y157102D02*
X150000Y167000D01*
X168260D01*
X134000Y157102D02*
X140102D01*
X144000Y174000D02*
X168260D01*
X134000Y170882D02*
X140882D01*
X144000Y174000D01*
X167260Y182000D02*
X168260Y181000D01*
X147000Y182000D02*
X167260D01*
X144339Y184661D02*
X147000Y182000D01*
X134000Y184661D02*
X144339D01*
X151000Y188000D02*
X168260D01*
X140559Y198441D02*
X151000Y188000D01*
X134000Y198441D02*
X140559D01*
X167374Y195886D02*
X168260Y195000D01*
X139779Y212221D02*
X156114Y195886D01*
X167374D01*
X134000Y212221D02*
X139779D01*
X141278Y225514D02*
X164791Y202000D01*
X168260D01*
X134486Y225514D02*
X141278D01*
X134000Y226000D02*
X134486Y225514D01*
X134000Y252000D02*
X140000D01*
X134000Y293339D02*
X149339D01*
X135328Y319569D02*
X138431D01*
X134000Y320898D02*
X135328Y319569D01*
X134000Y348457D02*
X148457Y334000D01*
X134000Y373000D02*
X146000D01*
X134000Y386779D02*
X145780D01*
X134000Y400559D02*
X150619D01*
X134000Y428118D02*
X142882D01*
X134384Y441514D02*
X139486D01*
X134000Y441898D02*
X134384Y441514D01*
X140000Y451000D02*
Y454414D01*
X134000Y455677D02*
X134677Y455000D01*
X139414D01*
X140000Y454414D01*
X151000Y451000D02*
Y459000D01*
X139586Y469586D02*
X140414D01*
X151000Y459000D01*
X134000Y469457D02*
X139457D01*
X139586Y469586D01*
X327000Y254500D02*
X327500Y254000D01*
X335000D01*
X341000Y248000D01*
D15*
X188200Y166000D02*
D03*
Y171000D02*
D03*
Y176000D02*
D03*
Y181000D02*
D03*
Y186000D02*
D03*
Y191000D02*
D03*
Y196000D02*
D03*
Y201000D02*
D03*
Y206000D02*
D03*
Y211000D02*
D03*
X225800D02*
D03*
Y206000D02*
D03*
Y201000D02*
D03*
Y196000D02*
D03*
Y191000D02*
D03*
Y186000D02*
D03*
Y181000D02*
D03*
Y176000D02*
D03*
Y171000D02*
D03*
Y166000D02*
D03*
X187200Y293000D02*
D03*
Y298000D02*
D03*
Y303000D02*
D03*
Y308000D02*
D03*
Y313000D02*
D03*
Y318000D02*
D03*
Y323000D02*
D03*
Y328000D02*
D03*
Y333000D02*
D03*
Y338000D02*
D03*
X224800D02*
D03*
Y333000D02*
D03*
Y328000D02*
D03*
Y323000D02*
D03*
Y318000D02*
D03*
Y313000D02*
D03*
Y308000D02*
D03*
Y303000D02*
D03*
Y298000D02*
D03*
Y293000D02*
D03*
X193200Y395500D02*
D03*
Y400500D02*
D03*
Y405500D02*
D03*
Y410500D02*
D03*
Y415500D02*
D03*
Y420500D02*
D03*
Y425500D02*
D03*
Y430500D02*
D03*
Y435500D02*
D03*
Y440500D02*
D03*
X230800D02*
D03*
Y435500D02*
D03*
Y430500D02*
D03*
Y425500D02*
D03*
Y420500D02*
D03*
Y415500D02*
D03*
Y410500D02*
D03*
Y405500D02*
D03*
Y400500D02*
D03*
Y395500D02*
D03*
X355200Y211000D02*
D03*
Y206000D02*
D03*
Y201000D02*
D03*
Y196000D02*
D03*
Y191000D02*
D03*
Y186000D02*
D03*
Y181000D02*
D03*
Y176000D02*
D03*
Y171000D02*
D03*
Y166000D02*
D03*
X392800D02*
D03*
Y171000D02*
D03*
Y176000D02*
D03*
Y181000D02*
D03*
Y186000D02*
D03*
Y191000D02*
D03*
Y196000D02*
D03*
Y201000D02*
D03*
Y206000D02*
D03*
Y211000D02*
D03*
X348400Y440500D02*
D03*
Y435500D02*
D03*
Y430500D02*
D03*
Y425500D02*
D03*
Y420500D02*
D03*
Y415500D02*
D03*
Y410500D02*
D03*
Y405500D02*
D03*
Y400500D02*
D03*
Y395500D02*
D03*
X386000D02*
D03*
Y400500D02*
D03*
Y405500D02*
D03*
Y410500D02*
D03*
Y415500D02*
D03*
Y420500D02*
D03*
Y425500D02*
D03*
Y430500D02*
D03*
Y435500D02*
D03*
Y440500D02*
D03*
X349400Y338000D02*
D03*
Y333000D02*
D03*
Y328000D02*
D03*
Y323000D02*
D03*
Y318000D02*
D03*
Y313000D02*
D03*
Y308000D02*
D03*
Y303000D02*
D03*
Y298000D02*
D03*
Y293000D02*
D03*
X387000D02*
D03*
Y298000D02*
D03*
Y303000D02*
D03*
Y308000D02*
D03*
Y313000D02*
D03*
Y318000D02*
D03*
Y323000D02*
D03*
Y328000D02*
D03*
Y333000D02*
D03*
Y338000D02*
D03*
D16*
X166520Y296000D02*
D03*
X174000D02*
D03*
X166260Y303000D02*
D03*
X173740D02*
D03*
X166260Y310000D02*
D03*
X173740D02*
D03*
X166260Y331000D02*
D03*
X173740D02*
D03*
X166260Y289000D02*
D03*
X173740D02*
D03*
X166260Y324000D02*
D03*
X173740D02*
D03*
X166260Y317000D02*
D03*
X173740D02*
D03*
X166520Y282000D02*
D03*
X174000D02*
D03*
X169260Y435000D02*
D03*
X176740D02*
D03*
X169260Y393000D02*
D03*
X176740D02*
D03*
X169260Y400000D02*
D03*
X176740D02*
D03*
X169260Y407000D02*
D03*
X176740D02*
D03*
X169260Y414000D02*
D03*
X176740D02*
D03*
X169260Y428000D02*
D03*
X176740D02*
D03*
X169260Y421000D02*
D03*
X176740D02*
D03*
X169260Y442000D02*
D03*
X176740D02*
D03*
X400260Y430000D02*
D03*
X407740D02*
D03*
Y423000D02*
D03*
X400260D02*
D03*
X407740Y416000D02*
D03*
X400260D02*
D03*
X407740Y402000D02*
D03*
X400260D02*
D03*
X407740Y409000D02*
D03*
X400260D02*
D03*
X407740Y437000D02*
D03*
X400260D02*
D03*
X407740Y444000D02*
D03*
X400260D02*
D03*
X409248Y155328D02*
D03*
X401768D02*
D03*
X409248Y162328D02*
D03*
X401768D02*
D03*
X409248Y197328D02*
D03*
X401768D02*
D03*
X409248Y204328D02*
D03*
X401768D02*
D03*
X409248Y183328D02*
D03*
X401768D02*
D03*
X409248Y190328D02*
D03*
X401768D02*
D03*
X409248Y169328D02*
D03*
X401768D02*
D03*
X409248Y176328D02*
D03*
X401768D02*
D03*
X408740Y296000D02*
D03*
X401260D02*
D03*
X408740Y317000D02*
D03*
X401260D02*
D03*
X408740Y303000D02*
D03*
X401260D02*
D03*
X408740Y310000D02*
D03*
X401260D02*
D03*
X408740Y289000D02*
D03*
X401260D02*
D03*
X408740Y282000D02*
D03*
X401260D02*
D03*
X408740Y331000D02*
D03*
X401260D02*
D03*
X408740Y324000D02*
D03*
X401260D02*
D03*
X407740Y395000D02*
D03*
X400260D02*
D03*
X174740Y155000D02*
D03*
X167260D02*
D03*
X174740Y162000D02*
D03*
X167260D02*
D03*
X174740Y169000D02*
D03*
X167260D02*
D03*
X174740Y176000D02*
D03*
X167260D02*
D03*
X174740Y183000D02*
D03*
X167260D02*
D03*
X174740Y190000D02*
D03*
X167260D02*
D03*
X174740Y197000D02*
D03*
X167260D02*
D03*
X174740Y204000D02*
D03*
X167260D02*
D03*
D17*
X210256Y284000D02*
D03*
X204744D02*
D03*
X220244Y135000D02*
D03*
X225756D02*
D03*
X245244Y134500D02*
D03*
X250756D02*
D03*
X364244Y449000D02*
D03*
X369756D02*
D03*
X369244Y220500D02*
D03*
X374756D02*
D03*
X365744Y347000D02*
D03*
X371256D02*
D03*
X209744Y388000D02*
D03*
X215256D02*
D03*
X208256Y158000D02*
D03*
X202744D02*
D03*
D18*
X288138Y269500D02*
D03*
X302862D02*
D03*
X288138Y274500D02*
D03*
X302862D02*
D03*
X288138Y279500D02*
D03*
X302862D02*
D03*
X288138Y284500D02*
D03*
X302862D02*
D03*
X288638Y242500D02*
D03*
X303362D02*
D03*
X288638Y247500D02*
D03*
X303362D02*
D03*
X288638Y252500D02*
D03*
X303362D02*
D03*
X288638Y257500D02*
D03*
X303362D02*
D03*
D19*
X194653Y138000D02*
D03*
X206347D02*
D03*
D35*
X244500Y124899D02*
Y140500D01*
X241244Y143756D02*
X244500Y140500D01*
Y124899D02*
X246242Y123157D01*
X245244Y134500D02*
Y139485D01*
X246242Y117258D02*
Y123157D01*
X205913Y165756D02*
X225556D01*
X225800Y166000D01*
X205913Y165756D02*
X208256Y163413D01*
Y150500D02*
Y163413D01*
X189750Y165756D02*
X205913D01*
X246242Y117258D02*
X246500Y117000D01*
X194577Y123077D02*
Y137923D01*
X209842Y148500D02*
X236500D01*
X208291Y150051D02*
X209842Y148500D01*
X236500D02*
X241244Y143756D01*
D36*
X204709Y283965D02*
Y292500D01*
X208500Y395000D02*
X232680D01*
X204709Y292500D02*
X221185D01*
X190815D02*
X204709D01*
X221235Y292550D02*
X222750D01*
X190765D02*
X190815Y292500D01*
X189250Y292550D02*
X190765D01*
X221185Y292500D02*
X221235Y292550D01*
X204744Y284000D02*
X204780Y283965D01*
X205500Y278000D02*
Y278541D01*
X204780Y279262D02*
X205500Y278541D01*
X204780Y279262D02*
Y283965D01*
X193200Y395500D02*
X193650Y395050D01*
X196765D02*
X196815Y395000D01*
X193650Y395050D02*
X196765D01*
X196815Y395000D02*
X208500D01*
X209709Y388035D02*
Y393791D01*
X208500Y395000D02*
X209709Y393791D01*
Y388035D02*
X209744Y388000D01*
Y383256D02*
Y388000D01*
X386000Y440500D02*
X386300D01*
X362000D02*
X386000D01*
X366000Y338000D02*
X387000D01*
X349400D02*
X366000D01*
X367500Y211000D02*
X392800D01*
X355200D02*
X367500D01*
X209560Y383440D02*
X209744Y383256D01*
X209560Y381030D02*
Y383440D01*
X365779Y345602D02*
X366000Y345381D01*
Y338000D02*
Y345381D01*
X365744Y346587D02*
X365779Y346551D01*
Y345602D02*
Y346551D01*
X365744Y346587D02*
Y347000D01*
X194500Y123000D02*
X194577Y123077D01*
Y137923D02*
X194653Y138000D01*
X348700Y440500D02*
X362000D01*
X364244Y442744D01*
Y449000D01*
X364280Y449035D02*
Y454280D01*
X364244Y449000D02*
X364280Y449035D01*
Y454280D02*
X365000Y455000D01*
Y455459D02*
X368000Y458459D01*
X365000Y455000D02*
Y455459D01*
X368000Y458459D02*
Y459000D01*
X365779Y347035D02*
Y350738D01*
X369500Y354459D01*
X365744Y347000D02*
X365779Y347035D01*
X369500Y354459D02*
Y355000D01*
X368500Y212000D02*
Y219342D01*
X367500Y211000D02*
X368500Y212000D01*
X369209Y220465D02*
X369244Y220500D01*
X369209Y220051D02*
Y220465D01*
X368500Y219342D02*
X369209Y220051D01*
Y220535D02*
Y221291D01*
X369000Y221500D02*
X369209Y221291D01*
Y220535D02*
X369244Y220500D01*
X369000Y221500D02*
Y228500D01*
D37*
X220244Y127756D02*
X224336Y123664D01*
X220244Y127756D02*
Y135000D01*
X224336Y119086D02*
X226421Y117000D01*
X224336Y119086D02*
Y123664D01*
X207169Y135000D02*
X220244D01*
X206347Y135823D02*
X207169Y135000D01*
X206347Y135823D02*
Y138000D01*
D38*
X168941Y476000D02*
D03*
X376220Y477000D02*
D03*
X194500Y123000D02*
D03*
X377898Y122500D02*
D03*
D39*
X182720Y476000D02*
D03*
X196500D02*
D03*
X210279D02*
D03*
X390000Y477000D02*
D03*
X403780D02*
D03*
X417559D02*
D03*
X134000Y348457D02*
D03*
Y334677D02*
D03*
Y320898D02*
D03*
Y307118D02*
D03*
Y293339D02*
D03*
Y279559D02*
D03*
Y265779D02*
D03*
X180720Y123000D02*
D03*
X364118Y122500D02*
D03*
X350339D02*
D03*
X336559D02*
D03*
X322779D02*
D03*
X309000D02*
D03*
X295220D02*
D03*
X281441D02*
D03*
X440000Y455898D02*
D03*
Y442118D02*
D03*
Y428339D02*
D03*
Y414559D02*
D03*
Y400779D02*
D03*
Y387000D02*
D03*
Y373220D02*
D03*
X134000Y386779D02*
D03*
Y400559D02*
D03*
Y414339D02*
D03*
Y428118D02*
D03*
Y441898D02*
D03*
Y455677D02*
D03*
Y469457D02*
D03*
Y143323D02*
D03*
Y157102D02*
D03*
Y170882D02*
D03*
Y184661D02*
D03*
Y198441D02*
D03*
Y212221D02*
D03*
Y226000D02*
D03*
X440000Y334677D02*
D03*
Y320898D02*
D03*
Y307118D02*
D03*
Y293339D02*
D03*
Y279559D02*
D03*
Y265779D02*
D03*
Y252000D02*
D03*
Y213559D02*
D03*
Y199779D02*
D03*
Y186000D02*
D03*
Y172221D02*
D03*
Y158441D02*
D03*
Y144661D02*
D03*
Y130882D02*
D03*
D40*
X134000Y252000D02*
D03*
X440000Y469677D02*
D03*
X134000Y373000D02*
D03*
Y129543D02*
D03*
X440000Y348457D02*
D03*
Y227339D02*
D03*
D41*
X279500Y136000D02*
D03*
D42*
X289500D02*
D03*
X299500D02*
D03*
X309500D02*
D03*
X319500D02*
D03*
X329500D02*
D03*
X339500D02*
D03*
X349500D02*
D03*
D43*
X226421Y117000D02*
D03*
D44*
X236461D02*
D03*
X246500D02*
D03*
D45*
X267000Y454500D02*
D03*
Y444500D02*
D03*
Y434500D02*
D03*
Y424500D02*
D03*
Y414500D02*
D03*
Y404500D02*
D03*
Y394500D02*
D03*
Y384500D02*
D03*
Y374500D02*
D03*
Y364500D02*
D03*
Y354500D02*
D03*
Y344500D02*
D03*
X327000D02*
D03*
Y354500D02*
D03*
Y364500D02*
D03*
Y374500D02*
D03*
Y384500D02*
D03*
Y394500D02*
D03*
Y404500D02*
D03*
Y414500D02*
D03*
Y424500D02*
D03*
Y434500D02*
D03*
Y444500D02*
D03*
X267000Y324500D02*
D03*
Y314500D02*
D03*
Y304500D02*
D03*
Y294500D02*
D03*
Y284500D02*
D03*
Y274500D02*
D03*
Y264500D02*
D03*
Y254500D02*
D03*
Y244500D02*
D03*
X327000D02*
D03*
Y254500D02*
D03*
Y264500D02*
D03*
Y274500D02*
D03*
Y284500D02*
D03*
Y294500D02*
D03*
Y304500D02*
D03*
Y314500D02*
D03*
Y324500D02*
D03*
X267000Y334500D02*
D03*
X277000Y294500D02*
D03*
X287000D02*
D03*
X297000D02*
D03*
X307000D02*
D03*
X317000D02*
D03*
X279008Y409500D02*
D03*
Y419500D02*
D03*
Y429500D02*
D03*
Y439500D02*
D03*
Y449500D02*
D03*
X327000Y454500D02*
D03*
Y474500D02*
D03*
X267000Y464500D02*
D03*
X317000D02*
D03*
X327000Y334500D02*
D03*
Y464500D02*
D03*
X267000Y474500D02*
D03*
D46*
X293000Y269500D02*
D03*
X298000D02*
D03*
X293000Y274500D02*
D03*
X298000D02*
D03*
X293000Y279500D02*
D03*
X298000D02*
D03*
X293000Y284500D02*
D03*
X298000D02*
D03*
X295500Y272020D02*
D03*
Y281980D02*
D03*
X293500Y242500D02*
D03*
X298500D02*
D03*
X293500Y247500D02*
D03*
X298500D02*
D03*
X293500Y252500D02*
D03*
X298500D02*
D03*
X293500Y257500D02*
D03*
X298500D02*
D03*
X296000Y245020D02*
D03*
Y254980D02*
D03*
D47*
X235000Y492500D02*
D03*
X347000Y492000D02*
D03*
X406500Y117500D02*
D03*
X416000Y240500D02*
D03*
X412500Y360500D02*
D03*
X458500Y493000D02*
D03*
X458000Y108000D02*
D03*
X113500D02*
D03*
X161500Y239500D02*
D03*
X162225Y360452D02*
D03*
X113000Y492500D02*
D03*
D48*
X279250Y284750D02*
D03*
X197000Y171256D02*
D03*
X216500Y210500D02*
D03*
X216000Y338000D02*
D03*
X196500Y297500D02*
D03*
X205500Y278000D02*
D03*
X215851Y283916D02*
D03*
X202000Y402000D02*
D03*
X220500Y440000D02*
D03*
X231000Y128000D02*
D03*
X252500D02*
D03*
X194912Y158378D02*
D03*
X209560Y381030D02*
D03*
X377088Y448719D02*
D03*
X378000Y435500D02*
D03*
X357500Y395000D02*
D03*
X368000Y459000D02*
D03*
X359262Y292834D02*
D03*
X376500Y332500D02*
D03*
X378750Y347132D02*
D03*
X369500Y355000D02*
D03*
X383000Y206000D02*
D03*
X365500Y166000D02*
D03*
X281000Y257500D02*
D03*
X379338Y220885D02*
D03*
X222500Y388000D02*
D03*
X369000Y228500D02*
D03*
X241244Y143756D02*
D03*
M02*
