G04*
G04 #@! TF.GenerationSoftware,Altium Limited,Altium Designer,23.4.1 (23)*
G04*
G04 Layer_Physical_Order=2*
G04 Layer_Color=16711680*
%FSLAX25Y25*%
%MOIN*%
G70*
G04*
G04 #@! TF.SameCoordinates,D3063454-9748-4D5F-95FB-788F291D17A3*
G04*
G04*
G04 #@! TF.FilePolarity,Positive*
G04*
G01*
G75*
%ADD14C,0.01000*%
%ADD36C,0.03000*%
%ADD38R,0.07972X0.07972*%
%ADD39C,0.07972*%
%ADD40R,0.07972X0.07972*%
%ADD41R,0.05610X0.05610*%
%ADD42C,0.05610*%
%ADD43R,0.08386X0.08386*%
%ADD44C,0.08386*%
%ADD45C,0.06555*%
%ADD46C,0.01457*%
%ADD47C,0.23622*%
%ADD48C,0.05000*%
G36*
X472000Y95000D02*
X461011D01*
X460972Y95500D01*
X461000Y95504D01*
X462918Y96128D01*
X464714Y97043D01*
X466346Y98228D01*
X467772Y99654D01*
X468957Y101286D01*
X469872Y103082D01*
X470496Y105000D01*
X470811Y106992D01*
Y107500D01*
X445189D01*
Y106992D01*
X445504Y105000D01*
X446128Y103082D01*
X447043Y101286D01*
X448228Y99654D01*
X449654Y98228D01*
X451286Y97043D01*
X453082Y96128D01*
X455000Y95504D01*
X455028Y95500D01*
X454989Y95000D01*
X116511D01*
X116472Y95500D01*
X116500Y95504D01*
X118418Y96128D01*
X120214Y97043D01*
X121846Y98228D01*
X123272Y99654D01*
X124457Y101286D01*
X125372Y103082D01*
X125996Y105000D01*
X126311Y106992D01*
Y107500D01*
X100689D01*
Y106992D01*
X101004Y105000D01*
X101628Y103082D01*
X102543Y101286D01*
X103728Y99654D01*
X105154Y98228D01*
X106786Y97043D01*
X108582Y96128D01*
X110500Y95504D01*
X110528Y95500D01*
X110489Y95000D01*
X100000D01*
Y489489D01*
X100500Y489528D01*
X100504Y489500D01*
X101128Y487582D01*
X102043Y485786D01*
X103228Y484154D01*
X104654Y482728D01*
X106286Y481543D01*
X108082Y480628D01*
X110000Y480004D01*
X111992Y479689D01*
X112500D01*
Y492500D01*
Y505311D01*
X111992D01*
X110000Y504996D01*
X108082Y504372D01*
X106286Y503457D01*
X104654Y502272D01*
X103228Y500846D01*
X102043Y499214D01*
X101128Y497418D01*
X100504Y495500D01*
X100500Y495472D01*
X100000Y495511D01*
Y506000D01*
X455489D01*
X455528Y505500D01*
X455500Y505496D01*
X453582Y504872D01*
X451786Y503957D01*
X450154Y502772D01*
X448728Y501346D01*
X447543Y499714D01*
X446628Y497918D01*
X446004Y496000D01*
X445689Y494008D01*
Y493500D01*
X471311D01*
Y494008D01*
X470996Y496000D01*
X470372Y497918D01*
X469457Y499714D01*
X468272Y501346D01*
X466846Y502772D01*
X465214Y503957D01*
X463418Y504872D01*
X461500Y505496D01*
X461472Y505500D01*
X461511Y506000D01*
X472000D01*
Y95000D01*
D02*
G37*
%LPC*%
G36*
X236008Y505311D02*
X235500D01*
Y493000D01*
X247811D01*
Y493508D01*
X247496Y495500D01*
X246872Y497418D01*
X245957Y499214D01*
X244772Y500846D01*
X243346Y502272D01*
X241714Y503457D01*
X239918Y504372D01*
X238000Y504996D01*
X236008Y505311D01*
D02*
G37*
G36*
X234500D02*
X233992D01*
X232000Y504996D01*
X230082Y504372D01*
X228286Y503457D01*
X226654Y502272D01*
X225228Y500846D01*
X224043Y499214D01*
X223128Y497418D01*
X222504Y495500D01*
X222189Y493508D01*
Y493000D01*
X234500D01*
Y505311D01*
D02*
G37*
G36*
X114008D02*
X113500D01*
Y493000D01*
X125811D01*
Y493508D01*
X125496Y495500D01*
X124872Y497418D01*
X123957Y499214D01*
X122772Y500846D01*
X121346Y502272D01*
X119714Y503457D01*
X117918Y504372D01*
X116000Y504996D01*
X114008Y505311D01*
D02*
G37*
G36*
X348008Y504811D02*
X347500D01*
Y492500D01*
X359811D01*
Y493008D01*
X359496Y495000D01*
X358872Y496918D01*
X357957Y498714D01*
X356772Y500346D01*
X355346Y501772D01*
X353714Y502957D01*
X351918Y503872D01*
X350000Y504496D01*
X348008Y504811D01*
D02*
G37*
G36*
X346500D02*
X345992D01*
X344000Y504496D01*
X342082Y503872D01*
X340286Y502957D01*
X338654Y501772D01*
X337228Y500346D01*
X336043Y498714D01*
X335128Y496918D01*
X334504Y495000D01*
X334189Y493008D01*
Y492500D01*
X346500D01*
Y504811D01*
D02*
G37*
G36*
X471311Y492500D02*
X459000D01*
Y480189D01*
X459508D01*
X461500Y480504D01*
X463418Y481128D01*
X465214Y482043D01*
X466846Y483228D01*
X468272Y484654D01*
X469457Y486286D01*
X470372Y488082D01*
X470996Y490000D01*
X471311Y491992D01*
Y492500D01*
D02*
G37*
G36*
X458000D02*
X445689D01*
Y491992D01*
X446004Y490000D01*
X446628Y488082D01*
X447543Y486286D01*
X448728Y484654D01*
X450154Y483228D01*
X451786Y482043D01*
X453582Y481128D01*
X455500Y480504D01*
X457492Y480189D01*
X458000D01*
Y492500D01*
D02*
G37*
G36*
X247811Y492000D02*
X235500D01*
Y479689D01*
X236008D01*
X238000Y480004D01*
X239918Y480628D01*
X241714Y481543D01*
X243346Y482728D01*
X244772Y484154D01*
X245957Y485786D01*
X246872Y487582D01*
X247496Y489500D01*
X247811Y491492D01*
Y492000D01*
D02*
G37*
G36*
X234500D02*
X222189D01*
Y491492D01*
X222504Y489500D01*
X223128Y487582D01*
X224043Y485786D01*
X225228Y484154D01*
X226654Y482728D01*
X228286Y481543D01*
X230082Y480628D01*
X232000Y480004D01*
X233992Y479689D01*
X234500D01*
Y492000D01*
D02*
G37*
G36*
X125811D02*
X113500D01*
Y479689D01*
X114008D01*
X116000Y480004D01*
X117918Y480628D01*
X119714Y481543D01*
X121346Y482728D01*
X122772Y484154D01*
X123957Y485786D01*
X124872Y487582D01*
X125496Y489500D01*
X125811Y491492D01*
Y492000D01*
D02*
G37*
G36*
X359811Y491500D02*
X347500D01*
Y479189D01*
X348008D01*
X350000Y479504D01*
X351918Y480128D01*
X353714Y481043D01*
X355346Y482228D01*
X356772Y483654D01*
X357957Y485286D01*
X358872Y487082D01*
X359496Y489000D01*
X359811Y490992D01*
Y491500D01*
D02*
G37*
G36*
X346500D02*
X334189D01*
Y490992D01*
X334504Y489000D01*
X335128Y487082D01*
X336043Y485286D01*
X337228Y483654D01*
X338654Y482228D01*
X340286Y481043D01*
X342082Y480128D01*
X344000Y479504D01*
X345992Y479189D01*
X346500D01*
Y491500D01*
D02*
G37*
G36*
X418216Y481986D02*
X418059D01*
Y477500D01*
X422545D01*
Y477657D01*
X422205Y478925D01*
X421549Y480062D01*
X420621Y480990D01*
X419484Y481646D01*
X418216Y481986D01*
D02*
G37*
G36*
X417059D02*
X416903D01*
X415634Y481646D01*
X414497Y480990D01*
X413569Y480062D01*
X412913Y478925D01*
X412573Y477657D01*
Y477500D01*
X417059D01*
Y481986D01*
D02*
G37*
G36*
X404436D02*
X404280D01*
Y477500D01*
X408766D01*
Y477657D01*
X408426Y478925D01*
X407769Y480062D01*
X406841Y480990D01*
X405704Y481646D01*
X404436Y481986D01*
D02*
G37*
G36*
X403279D02*
X403123D01*
X401855Y481646D01*
X400718Y480990D01*
X399790Y480062D01*
X399133Y478925D01*
X398793Y477657D01*
Y477500D01*
X403279D01*
Y481986D01*
D02*
G37*
G36*
X390656D02*
X390500D01*
Y477500D01*
X394986D01*
Y477657D01*
X394646Y478925D01*
X393990Y480062D01*
X393062Y480990D01*
X391925Y481646D01*
X390656Y481986D01*
D02*
G37*
G36*
X389500D02*
X389344D01*
X388075Y481646D01*
X386938Y480990D01*
X386010Y480062D01*
X385354Y478925D01*
X385014Y477657D01*
Y477500D01*
X389500D01*
Y481986D01*
D02*
G37*
G36*
X381207D02*
X376720D01*
Y477500D01*
X381207D01*
Y481986D01*
D02*
G37*
G36*
X375721D02*
X371234D01*
Y477500D01*
X375721D01*
Y481986D01*
D02*
G37*
G36*
X210936Y480986D02*
X210780D01*
Y476500D01*
X215266D01*
Y476656D01*
X214926Y477925D01*
X214269Y479062D01*
X213341Y479990D01*
X212204Y480646D01*
X210936Y480986D01*
D02*
G37*
G36*
X209780D02*
X209623D01*
X208355Y480646D01*
X207218Y479990D01*
X206290Y479062D01*
X205633Y477925D01*
X205293Y476656D01*
Y476500D01*
X209780D01*
Y480986D01*
D02*
G37*
G36*
X197156D02*
X197000D01*
Y476500D01*
X201486D01*
Y476656D01*
X201146Y477925D01*
X200490Y479062D01*
X199562Y479990D01*
X198425Y480646D01*
X197156Y480986D01*
D02*
G37*
G36*
X196000D02*
X195844D01*
X194575Y480646D01*
X193438Y479990D01*
X192510Y479062D01*
X191854Y477925D01*
X191514Y476656D01*
Y476500D01*
X196000D01*
Y480986D01*
D02*
G37*
G36*
X183377D02*
X183221D01*
Y476500D01*
X187707D01*
Y476656D01*
X187367Y477925D01*
X186710Y479062D01*
X185782Y479990D01*
X184645Y480646D01*
X183377Y480986D01*
D02*
G37*
G36*
X182220D02*
X182064D01*
X180796Y480646D01*
X179659Y479990D01*
X178730Y479062D01*
X178074Y477925D01*
X177734Y476656D01*
Y476500D01*
X182220D01*
Y480986D01*
D02*
G37*
G36*
X173927D02*
X169441D01*
Y476500D01*
X173927D01*
Y480986D01*
D02*
G37*
G36*
X168441D02*
X163955D01*
Y476500D01*
X168441D01*
Y480986D01*
D02*
G37*
G36*
X267563Y478778D02*
X267500D01*
Y475000D01*
X271278D01*
Y475063D01*
X270986Y476151D01*
X270423Y477127D01*
X269626Y477923D01*
X268651Y478486D01*
X267563Y478778D01*
D02*
G37*
G36*
X266500D02*
X266437D01*
X265349Y478486D01*
X264373Y477923D01*
X263577Y477127D01*
X263014Y476151D01*
X262722Y475063D01*
Y475000D01*
X266500D01*
Y478778D01*
D02*
G37*
G36*
X422545Y476500D02*
X418059D01*
Y472014D01*
X418216D01*
X419484Y472354D01*
X420621Y473010D01*
X421549Y473938D01*
X422205Y475075D01*
X422545Y476343D01*
Y476500D01*
D02*
G37*
G36*
X417059D02*
X412573D01*
Y476343D01*
X412913Y475075D01*
X413569Y473938D01*
X414497Y473010D01*
X415634Y472354D01*
X416903Y472014D01*
X417059D01*
Y476500D01*
D02*
G37*
G36*
X408766D02*
X404280D01*
Y472014D01*
X404436D01*
X405704Y472354D01*
X406841Y473010D01*
X407769Y473938D01*
X408426Y475075D01*
X408766Y476343D01*
Y476500D01*
D02*
G37*
G36*
X403279D02*
X398793D01*
Y476343D01*
X399133Y475075D01*
X399790Y473938D01*
X400718Y473010D01*
X401855Y472354D01*
X403123Y472014D01*
X403279D01*
Y476500D01*
D02*
G37*
G36*
X394986D02*
X390500D01*
Y472014D01*
X390656D01*
X391925Y472354D01*
X393062Y473010D01*
X393990Y473938D01*
X394646Y475075D01*
X394986Y476343D01*
Y476500D01*
D02*
G37*
G36*
X389500D02*
X385014D01*
Y476343D01*
X385354Y475075D01*
X386010Y473938D01*
X386938Y473010D01*
X388075Y472354D01*
X389344Y472014D01*
X389500D01*
Y476500D01*
D02*
G37*
G36*
X381207D02*
X376720D01*
Y472014D01*
X381207D01*
Y476500D01*
D02*
G37*
G36*
X375721D02*
X371234D01*
Y472014D01*
X375721D01*
Y476500D01*
D02*
G37*
G36*
X215266Y475500D02*
X210780D01*
Y471014D01*
X210936D01*
X212204Y471354D01*
X213341Y472010D01*
X214269Y472938D01*
X214926Y474075D01*
X215266Y475344D01*
Y475500D01*
D02*
G37*
G36*
X209780D02*
X205293D01*
Y475344D01*
X205633Y474075D01*
X206290Y472938D01*
X207218Y472010D01*
X208355Y471354D01*
X209623Y471014D01*
X209780D01*
Y475500D01*
D02*
G37*
G36*
X201486D02*
X197000D01*
Y471014D01*
X197156D01*
X198425Y471354D01*
X199562Y472010D01*
X200490Y472938D01*
X201146Y474075D01*
X201486Y475344D01*
Y475500D01*
D02*
G37*
G36*
X196000D02*
X191514D01*
Y475344D01*
X191854Y474075D01*
X192510Y472938D01*
X193438Y472010D01*
X194575Y471354D01*
X195844Y471014D01*
X196000D01*
Y475500D01*
D02*
G37*
G36*
X187707D02*
X183221D01*
Y471014D01*
X183377D01*
X184645Y471354D01*
X185782Y472010D01*
X186710Y472938D01*
X187367Y474075D01*
X187707Y475344D01*
Y475500D01*
D02*
G37*
G36*
X182220D02*
X177734D01*
Y475344D01*
X178074Y474075D01*
X178730Y472938D01*
X179659Y472010D01*
X180796Y471354D01*
X182064Y471014D01*
X182220D01*
Y475500D01*
D02*
G37*
G36*
X173927D02*
X169441D01*
Y471014D01*
X173927D01*
Y475500D01*
D02*
G37*
G36*
X168441D02*
X163955D01*
Y471014D01*
X168441D01*
Y475500D01*
D02*
G37*
G36*
X271278Y474000D02*
X267500D01*
Y470222D01*
X267563D01*
X268651Y470514D01*
X269626Y471077D01*
X270423Y471874D01*
X270986Y472849D01*
X271278Y473937D01*
Y474000D01*
D02*
G37*
G36*
X266500D02*
X262722D01*
Y473937D01*
X263014Y472849D01*
X263577Y471874D01*
X264373Y471077D01*
X265349Y470514D01*
X266437Y470222D01*
X266500D01*
Y474000D01*
D02*
G37*
G36*
X327563Y468778D02*
X327500D01*
Y465000D01*
X331278D01*
Y465063D01*
X330986Y466151D01*
X330423Y467127D01*
X329626Y467923D01*
X328651Y468486D01*
X327563Y468778D01*
D02*
G37*
G36*
X326500D02*
X326437D01*
X325349Y468486D01*
X324374Y467923D01*
X323577Y467127D01*
X323014Y466151D01*
X322722Y465063D01*
Y465000D01*
X326500D01*
Y468778D01*
D02*
G37*
G36*
X444986Y474663D02*
X435014D01*
Y464691D01*
X444986D01*
Y474663D01*
D02*
G37*
G36*
X134656Y474443D02*
X133344D01*
X132075Y474103D01*
X130938Y473447D01*
X130010Y472518D01*
X129354Y471381D01*
X129014Y470113D01*
Y468800D01*
X129354Y467532D01*
X130010Y466395D01*
X130938Y465467D01*
X132075Y464810D01*
X133344Y464470D01*
X134656D01*
X135925Y464810D01*
X137062Y465467D01*
X137990Y466395D01*
X138646Y467532D01*
X138986Y468800D01*
Y470113D01*
X138646Y471381D01*
X137990Y472518D01*
X137062Y473447D01*
X135925Y474103D01*
X134656Y474443D01*
D02*
G37*
G36*
X331278Y464000D02*
X327500D01*
Y460222D01*
X327563D01*
X328651Y460514D01*
X329626Y461077D01*
X330423Y461873D01*
X330986Y462849D01*
X331278Y463937D01*
Y464000D01*
D02*
G37*
G36*
X326500D02*
X322722D01*
Y463937D01*
X323014Y462849D01*
X323577Y461873D01*
X324374Y461077D01*
X325349Y460514D01*
X326437Y460222D01*
X326500D01*
Y464000D01*
D02*
G37*
G36*
X317563Y468778D02*
X316437D01*
X315349Y468486D01*
X314373Y467923D01*
X313577Y467127D01*
X313014Y466151D01*
X312722Y465063D01*
Y463937D01*
X313014Y462849D01*
X313577Y461873D01*
X314373Y461077D01*
X315349Y460514D01*
X316437Y460222D01*
X317563D01*
X318651Y460514D01*
X319626Y461077D01*
X320423Y461873D01*
X320986Y462849D01*
X321278Y463937D01*
Y465063D01*
X320986Y466151D01*
X320423Y467127D01*
X319626Y467923D01*
X318651Y468486D01*
X317563Y468778D01*
D02*
G37*
G36*
X267563D02*
X266437D01*
X265349Y468486D01*
X264373Y467923D01*
X263577Y467127D01*
X263014Y466151D01*
X262722Y465063D01*
Y463937D01*
X263014Y462849D01*
X263577Y461873D01*
X264373Y461077D01*
X265349Y460514D01*
X266437Y460222D01*
X267563D01*
X268651Y460514D01*
X269626Y461077D01*
X270423Y461873D01*
X270986Y462849D01*
X271278Y463937D01*
Y465063D01*
X270986Y466151D01*
X270423Y467127D01*
X269626Y467923D01*
X268651Y468486D01*
X267563Y468778D01*
D02*
G37*
G36*
X440657Y460884D02*
X439344D01*
X438075Y460544D01*
X436938Y459888D01*
X436010Y458959D01*
X435354Y457822D01*
X435014Y456554D01*
Y455241D01*
X435354Y453973D01*
X436010Y452836D01*
X436938Y451908D01*
X438075Y451251D01*
X439344Y450911D01*
X440657D01*
X441925Y451251D01*
X443062Y451908D01*
X443990Y452836D01*
X444646Y453973D01*
X444986Y455241D01*
Y456554D01*
X444646Y457822D01*
X443990Y458959D01*
X443062Y459888D01*
X441925Y460544D01*
X440657Y460884D01*
D02*
G37*
G36*
X134656Y460663D02*
X133344D01*
X132075Y460324D01*
X130938Y459667D01*
X130010Y458739D01*
X129354Y457602D01*
X129014Y456334D01*
Y455021D01*
X129354Y453753D01*
X130010Y452616D01*
X130938Y451687D01*
X132075Y451031D01*
X133344Y450691D01*
X134656D01*
X135925Y451031D01*
X137062Y451687D01*
X137990Y452616D01*
X138646Y453753D01*
X138986Y455021D01*
Y456334D01*
X138646Y457602D01*
X137990Y458739D01*
X137062Y459667D01*
X135925Y460324D01*
X134656Y460663D01*
D02*
G37*
G36*
X327563Y458778D02*
X326437D01*
X325349Y458486D01*
X324374Y457923D01*
X323577Y457127D01*
X323014Y456151D01*
X322722Y455063D01*
Y455020D01*
X322579Y454992D01*
X322083Y454660D01*
X316504Y449082D01*
X316504Y449081D01*
X315919Y448496D01*
X315587Y447999D01*
X315471Y447414D01*
Y336029D01*
X271019D01*
X270986Y336151D01*
X270423Y337126D01*
X269626Y337923D01*
X268651Y338486D01*
X267563Y338778D01*
X266437D01*
X265349Y338486D01*
X264373Y337923D01*
X263577Y337126D01*
X263014Y336151D01*
X262722Y335063D01*
Y333937D01*
X263014Y332849D01*
X263577Y331873D01*
X264373Y331077D01*
X265349Y330514D01*
X266437Y330222D01*
X267563D01*
X268651Y330514D01*
X269626Y331077D01*
X270423Y331873D01*
X270986Y332849D01*
X271019Y332971D01*
X315471D01*
Y304000D01*
X315587Y303415D01*
X315919Y302919D01*
X320641Y298196D01*
X321137Y297865D01*
X321722Y297748D01*
X323546D01*
X323737Y297286D01*
X323577Y297127D01*
X323014Y296151D01*
X322722Y295063D01*
Y293937D01*
X323014Y292849D01*
X323577Y291874D01*
X324374Y291077D01*
X325349Y290514D01*
X326437Y290222D01*
X327563D01*
X328651Y290514D01*
X329626Y291077D01*
X330423Y291874D01*
X330986Y292849D01*
X331278Y293937D01*
Y295063D01*
X330986Y296151D01*
X330423Y297127D01*
X330263Y297286D01*
X330454Y297748D01*
X331089D01*
X336471Y292367D01*
Y177000D01*
X336587Y176415D01*
X336919Y175919D01*
X362368Y150469D01*
Y127193D01*
X362193Y127146D01*
X361056Y126490D01*
X360128Y125562D01*
X359472Y124425D01*
X359132Y123156D01*
Y121844D01*
X359472Y120575D01*
X360128Y119438D01*
X361056Y118510D01*
X362193Y117854D01*
X363462Y117514D01*
X364775D01*
X366043Y117854D01*
X367180Y118510D01*
X368108Y119438D01*
X368764Y120575D01*
X369104Y121844D01*
Y123156D01*
X368764Y124425D01*
X368108Y125562D01*
X367180Y126490D01*
X366043Y127146D01*
X365427Y127311D01*
Y151102D01*
X365311Y151688D01*
X364979Y152184D01*
X339529Y177634D01*
Y293000D01*
X339413Y293585D01*
X339081Y294081D01*
X332804Y300359D01*
X332308Y300691D01*
X331722Y300807D01*
X330063D01*
X329856Y301307D01*
X330423Y301873D01*
X330986Y302849D01*
X331278Y303937D01*
Y305063D01*
X330986Y306151D01*
X330423Y307126D01*
X329626Y307923D01*
X328651Y308486D01*
X327563Y308778D01*
X326437D01*
X325349Y308486D01*
X324374Y307923D01*
X323577Y307126D01*
X323014Y306151D01*
X322722Y305063D01*
Y303937D01*
X323014Y302849D01*
X323577Y301873D01*
X324144Y301307D01*
X323937Y300807D01*
X322356D01*
X318529Y304633D01*
Y334500D01*
Y446781D01*
X318667Y446918D01*
X318667Y446919D01*
X323600Y451851D01*
X324374Y451077D01*
X325349Y450514D01*
X326437Y450222D01*
X327563D01*
X328651Y450514D01*
X329626Y451077D01*
X330423Y451873D01*
X330986Y452849D01*
X331278Y453937D01*
Y455063D01*
X330986Y456151D01*
X330423Y457127D01*
X329626Y457923D01*
X328651Y458486D01*
X327563Y458778D01*
D02*
G37*
G36*
X267563D02*
X266437D01*
X265349Y458486D01*
X264373Y457923D01*
X263577Y457127D01*
X263014Y456151D01*
X262722Y455063D01*
Y453937D01*
X263014Y452849D01*
X263577Y451873D01*
X264373Y451077D01*
X265349Y450514D01*
X266437Y450222D01*
X267563D01*
X268651Y450514D01*
X269626Y451077D01*
X270423Y451873D01*
X270986Y452849D01*
X271278Y453937D01*
Y455063D01*
X270986Y456151D01*
X270423Y457127D01*
X269626Y457923D01*
X268651Y458486D01*
X267563Y458778D01*
D02*
G37*
G36*
X377588Y452209D02*
Y449219D01*
X380577D01*
X380349Y450070D01*
X379889Y450868D01*
X379237Y451520D01*
X378439Y451981D01*
X377588Y452209D01*
D02*
G37*
G36*
X376588D02*
X375737Y451981D01*
X374939Y451520D01*
X374287Y450868D01*
X373826Y450070D01*
X373598Y449219D01*
X376588D01*
Y452209D01*
D02*
G37*
G36*
X380577Y448219D02*
X377588D01*
Y445230D01*
X378439Y445458D01*
X379237Y445919D01*
X379889Y446570D01*
X380349Y447368D01*
X380577Y448219D01*
D02*
G37*
G36*
X376588D02*
X373598D01*
X373826Y447368D01*
X374287Y446570D01*
X374939Y445919D01*
X375737Y445458D01*
X376588Y445230D01*
Y448219D01*
D02*
G37*
G36*
X279571Y453778D02*
X278445D01*
X277357Y453486D01*
X276381Y452923D01*
X275585Y452127D01*
X275022Y451151D01*
X274730Y450063D01*
Y448937D01*
X275022Y447849D01*
X275585Y446874D01*
X276381Y446077D01*
X277357Y445514D01*
X278445Y445222D01*
X279571D01*
X280659Y445514D01*
X281634Y446077D01*
X282431Y446874D01*
X282994Y447849D01*
X283285Y448937D01*
Y450063D01*
X282994Y451151D01*
X282431Y452127D01*
X281634Y452923D01*
X280659Y453486D01*
X279571Y453778D01*
D02*
G37*
G36*
X221000Y443490D02*
Y440500D01*
X223990D01*
X223762Y441351D01*
X223301Y442149D01*
X222649Y442801D01*
X221851Y443261D01*
X221000Y443490D01*
D02*
G37*
G36*
X220000D02*
X219149Y443261D01*
X218351Y442801D01*
X217699Y442149D01*
X217238Y441351D01*
X217010Y440500D01*
X220000D01*
Y443490D01*
D02*
G37*
G36*
X327563Y448778D02*
X326437D01*
X325349Y448486D01*
X324374Y447923D01*
X323577Y447126D01*
X323014Y446151D01*
X322722Y445063D01*
Y443937D01*
X323014Y442849D01*
X323577Y441874D01*
X324374Y441077D01*
X325349Y440514D01*
X326437Y440222D01*
X327563D01*
X328651Y440514D01*
X329626Y441077D01*
X330423Y441874D01*
X330986Y442849D01*
X331278Y443937D01*
Y445063D01*
X330986Y446151D01*
X330423Y447126D01*
X329626Y447923D01*
X328651Y448486D01*
X327563Y448778D01*
D02*
G37*
G36*
X267563D02*
X266437D01*
X265349Y448486D01*
X264373Y447923D01*
X263577Y447126D01*
X263014Y446151D01*
X262722Y445063D01*
Y443937D01*
X263014Y442849D01*
X263577Y441874D01*
X264373Y441077D01*
X265349Y440514D01*
X266437Y440222D01*
X267563D01*
X268651Y440514D01*
X269626Y441077D01*
X270423Y441874D01*
X270986Y442849D01*
X271278Y443937D01*
Y445063D01*
X270986Y446151D01*
X270423Y447126D01*
X269626Y447923D01*
X268651Y448486D01*
X267563Y448778D01*
D02*
G37*
G36*
X440657Y447104D02*
X439344D01*
X438075Y446765D01*
X436938Y446108D01*
X436010Y445180D01*
X435354Y444043D01*
X435014Y442775D01*
Y441462D01*
X435354Y440194D01*
X436010Y439056D01*
X436938Y438128D01*
X438075Y437472D01*
X439344Y437132D01*
X440657D01*
X441925Y437472D01*
X443062Y438128D01*
X443990Y439056D01*
X444646Y440194D01*
X444986Y441462D01*
Y442775D01*
X444646Y444043D01*
X443990Y445180D01*
X443062Y446108D01*
X441925Y446765D01*
X440657Y447104D01*
D02*
G37*
G36*
X134656Y446884D02*
X133344D01*
X132075Y446544D01*
X130938Y445888D01*
X130010Y444959D01*
X129354Y443822D01*
X129014Y442554D01*
Y441241D01*
X129354Y439973D01*
X130010Y438836D01*
X130938Y437908D01*
X132075Y437251D01*
X133344Y436911D01*
X134656D01*
X135925Y437251D01*
X137062Y437908D01*
X137990Y438836D01*
X138646Y439973D01*
X138986Y441241D01*
Y442554D01*
X138646Y443822D01*
X137990Y444959D01*
X137062Y445888D01*
X135925Y446544D01*
X134656Y446884D01*
D02*
G37*
G36*
X223990Y439500D02*
X221000D01*
Y436511D01*
X221851Y436738D01*
X222649Y437199D01*
X223301Y437851D01*
X223762Y438649D01*
X223990Y439500D01*
D02*
G37*
G36*
X220000D02*
X217010D01*
X217238Y438649D01*
X217699Y437851D01*
X218351Y437199D01*
X219149Y436738D01*
X220000Y436511D01*
Y439500D01*
D02*
G37*
G36*
X378500Y438989D02*
Y436000D01*
X381489D01*
X381261Y436851D01*
X380801Y437649D01*
X380149Y438301D01*
X379351Y438762D01*
X378500Y438989D01*
D02*
G37*
G36*
X377500D02*
X376649Y438762D01*
X375851Y438301D01*
X375199Y437649D01*
X374739Y436851D01*
X374511Y436000D01*
X377500D01*
Y438989D01*
D02*
G37*
G36*
X279571Y443778D02*
X278445D01*
X277357Y443486D01*
X276381Y442923D01*
X275585Y442127D01*
X275022Y441151D01*
X274730Y440063D01*
Y438937D01*
X275022Y437849D01*
X275585Y436873D01*
X276381Y436077D01*
X277357Y435514D01*
X278445Y435222D01*
X279571D01*
X280659Y435514D01*
X281634Y436077D01*
X282431Y436873D01*
X282994Y437849D01*
X283285Y438937D01*
Y440063D01*
X282994Y441151D01*
X282431Y442127D01*
X281634Y442923D01*
X280659Y443486D01*
X279571Y443778D01*
D02*
G37*
G36*
X381489Y435000D02*
X378500D01*
Y432011D01*
X379351Y432238D01*
X380149Y432699D01*
X380801Y433351D01*
X381261Y434149D01*
X381489Y435000D01*
D02*
G37*
G36*
X377500D02*
X374511D01*
X374739Y434149D01*
X375199Y433351D01*
X375851Y432699D01*
X376649Y432238D01*
X377500Y432011D01*
Y435000D01*
D02*
G37*
G36*
X327563Y438778D02*
X326437D01*
X325349Y438486D01*
X324374Y437923D01*
X323577Y437126D01*
X323014Y436151D01*
X322722Y435063D01*
Y433937D01*
X323014Y432849D01*
X323577Y431874D01*
X324374Y431077D01*
X325349Y430514D01*
X326437Y430222D01*
X327563D01*
X328651Y430514D01*
X329626Y431077D01*
X330423Y431874D01*
X330986Y432849D01*
X331278Y433937D01*
Y435063D01*
X330986Y436151D01*
X330423Y437126D01*
X329626Y437923D01*
X328651Y438486D01*
X327563Y438778D01*
D02*
G37*
G36*
X267563D02*
X266437D01*
X265349Y438486D01*
X264373Y437923D01*
X263577Y437126D01*
X263014Y436151D01*
X262722Y435063D01*
Y433937D01*
X263014Y432849D01*
X263577Y431874D01*
X264373Y431077D01*
X265349Y430514D01*
X266437Y430222D01*
X267563D01*
X268651Y430514D01*
X269626Y431077D01*
X270423Y431874D01*
X270986Y432849D01*
X271278Y433937D01*
Y435063D01*
X270986Y436151D01*
X270423Y437126D01*
X269626Y437923D01*
X268651Y438486D01*
X267563Y438778D01*
D02*
G37*
G36*
X279571Y433778D02*
X278445D01*
X277357Y433486D01*
X276381Y432923D01*
X275585Y432127D01*
X275022Y431151D01*
X274730Y430063D01*
Y428937D01*
X275022Y427849D01*
X275585Y426873D01*
X276381Y426077D01*
X277357Y425514D01*
X278445Y425222D01*
X279571D01*
X280659Y425514D01*
X281634Y426077D01*
X282431Y426873D01*
X282994Y427849D01*
X283285Y428937D01*
Y430063D01*
X282994Y431151D01*
X282431Y432127D01*
X281634Y432923D01*
X280659Y433486D01*
X279571Y433778D01*
D02*
G37*
G36*
X440657Y433325D02*
X439344D01*
X438075Y432985D01*
X436938Y432329D01*
X436010Y431400D01*
X435354Y430263D01*
X435014Y428995D01*
Y427682D01*
X435354Y426414D01*
X436010Y425277D01*
X436938Y424349D01*
X438075Y423692D01*
X439344Y423352D01*
X440657D01*
X441925Y423692D01*
X443062Y424349D01*
X443990Y425277D01*
X444646Y426414D01*
X444986Y427682D01*
Y428995D01*
X444646Y430263D01*
X443990Y431400D01*
X443062Y432329D01*
X441925Y432985D01*
X440657Y433325D01*
D02*
G37*
G36*
X134656Y433104D02*
X133344D01*
X132075Y432764D01*
X130938Y432108D01*
X130010Y431180D01*
X129354Y430043D01*
X129014Y428775D01*
Y427462D01*
X129354Y426194D01*
X130010Y425057D01*
X130938Y424128D01*
X132075Y423472D01*
X133344Y423132D01*
X134656D01*
X135925Y423472D01*
X137062Y424128D01*
X137990Y425057D01*
X138646Y426194D01*
X138986Y427462D01*
Y428775D01*
X138646Y430043D01*
X137990Y431180D01*
X137062Y432108D01*
X135925Y432764D01*
X134656Y433104D01*
D02*
G37*
G36*
X327563Y428778D02*
X326437D01*
X325349Y428486D01*
X324374Y427923D01*
X323577Y427127D01*
X323014Y426151D01*
X322722Y425063D01*
Y423937D01*
X323014Y422849D01*
X323577Y421874D01*
X324374Y421077D01*
X325349Y420514D01*
X326437Y420222D01*
X327563D01*
X328651Y420514D01*
X329626Y421077D01*
X330423Y421874D01*
X330986Y422849D01*
X331278Y423937D01*
Y425063D01*
X330986Y426151D01*
X330423Y427127D01*
X329626Y427923D01*
X328651Y428486D01*
X327563Y428778D01*
D02*
G37*
G36*
X267563D02*
X266437D01*
X265349Y428486D01*
X264373Y427923D01*
X263577Y427127D01*
X263014Y426151D01*
X262722Y425063D01*
Y423937D01*
X263014Y422849D01*
X263577Y421874D01*
X264373Y421077D01*
X265349Y420514D01*
X266437Y420222D01*
X267563D01*
X268651Y420514D01*
X269626Y421077D01*
X270423Y421874D01*
X270986Y422849D01*
X271278Y423937D01*
Y425063D01*
X270986Y426151D01*
X270423Y427127D01*
X269626Y427923D01*
X268651Y428486D01*
X267563Y428778D01*
D02*
G37*
G36*
X279571Y423778D02*
X279508D01*
Y420000D01*
X283285D01*
Y420063D01*
X282994Y421151D01*
X282431Y422126D01*
X281634Y422923D01*
X280659Y423486D01*
X279571Y423778D01*
D02*
G37*
G36*
X278508D02*
X278445D01*
X277357Y423486D01*
X276381Y422923D01*
X275585Y422126D01*
X275022Y421151D01*
X274730Y420063D01*
Y420000D01*
X278508D01*
Y423778D01*
D02*
G37*
G36*
X283285Y419000D02*
X279508D01*
Y415222D01*
X279571D01*
X280659Y415514D01*
X281634Y416077D01*
X282431Y416874D01*
X282994Y417849D01*
X283285Y418937D01*
Y419000D01*
D02*
G37*
G36*
X278508D02*
X274730D01*
Y418937D01*
X275022Y417849D01*
X275585Y416874D01*
X276381Y416077D01*
X277357Y415514D01*
X278445Y415222D01*
X278508D01*
Y419000D01*
D02*
G37*
G36*
X327563Y418778D02*
X326437D01*
X325349Y418486D01*
X324374Y417923D01*
X323577Y417127D01*
X323014Y416151D01*
X322722Y415063D01*
Y413937D01*
X323014Y412849D01*
X323577Y411873D01*
X324374Y411077D01*
X325349Y410514D01*
X326437Y410222D01*
X327563D01*
X328651Y410514D01*
X329626Y411077D01*
X330423Y411873D01*
X330986Y412849D01*
X331278Y413937D01*
Y415063D01*
X330986Y416151D01*
X330423Y417127D01*
X329626Y417923D01*
X328651Y418486D01*
X327563Y418778D01*
D02*
G37*
G36*
X267563D02*
X266437D01*
X265349Y418486D01*
X264373Y417923D01*
X263577Y417127D01*
X263014Y416151D01*
X262722Y415063D01*
Y413937D01*
X263014Y412849D01*
X263577Y411873D01*
X264373Y411077D01*
X265349Y410514D01*
X266437Y410222D01*
X267563D01*
X268651Y410514D01*
X269626Y411077D01*
X270423Y411873D01*
X270986Y412849D01*
X271278Y413937D01*
Y415063D01*
X270986Y416151D01*
X270423Y417127D01*
X269626Y417923D01*
X268651Y418486D01*
X267563Y418778D01*
D02*
G37*
G36*
X279571Y413778D02*
X279508D01*
Y410000D01*
X283285D01*
Y410063D01*
X282994Y411151D01*
X282431Y412126D01*
X281634Y412923D01*
X280659Y413486D01*
X279571Y413778D01*
D02*
G37*
G36*
X278508D02*
X278445D01*
X277357Y413486D01*
X276381Y412923D01*
X275585Y412126D01*
X275022Y411151D01*
X274730Y410063D01*
Y410000D01*
X278508D01*
Y413778D01*
D02*
G37*
G36*
X440657Y419545D02*
X439344D01*
X438075Y419206D01*
X436938Y418549D01*
X436010Y417621D01*
X435354Y416484D01*
X435014Y415215D01*
Y413903D01*
X435354Y412635D01*
X436010Y411497D01*
X436938Y410569D01*
X438075Y409913D01*
X439344Y409573D01*
X440657D01*
X441925Y409913D01*
X443062Y410569D01*
X443990Y411497D01*
X444646Y412635D01*
X444986Y413903D01*
Y415215D01*
X444646Y416484D01*
X443990Y417621D01*
X443062Y418549D01*
X441925Y419206D01*
X440657Y419545D01*
D02*
G37*
G36*
X134656Y419325D02*
X133344D01*
X132075Y418985D01*
X130938Y418329D01*
X130010Y417400D01*
X129354Y416263D01*
X129014Y414995D01*
Y413682D01*
X129354Y412414D01*
X130010Y411277D01*
X130938Y410349D01*
X132075Y409692D01*
X133344Y409352D01*
X134656D01*
X135925Y409692D01*
X137062Y410349D01*
X137990Y411277D01*
X138646Y412414D01*
X138986Y413682D01*
Y414995D01*
X138646Y416263D01*
X137990Y417400D01*
X137062Y418329D01*
X135925Y418985D01*
X134656Y419325D01*
D02*
G37*
G36*
X283285Y409000D02*
X279508D01*
Y405222D01*
X279571D01*
X280659Y405514D01*
X281634Y406077D01*
X282431Y406874D01*
X282994Y407849D01*
X283285Y408937D01*
Y409000D01*
D02*
G37*
G36*
X278508D02*
X274730D01*
Y408937D01*
X275022Y407849D01*
X275585Y406874D01*
X276381Y406077D01*
X277357Y405514D01*
X278445Y405222D01*
X278508D01*
Y409000D01*
D02*
G37*
G36*
X202500Y405489D02*
Y402500D01*
X205489D01*
X205261Y403351D01*
X204801Y404149D01*
X204149Y404801D01*
X203351Y405262D01*
X202500Y405489D01*
D02*
G37*
G36*
X201500D02*
X200649Y405262D01*
X199851Y404801D01*
X199199Y404149D01*
X198739Y403351D01*
X198511Y402500D01*
X201500D01*
Y405489D01*
D02*
G37*
G36*
X327563Y408778D02*
X326437D01*
X325349Y408486D01*
X324374Y407923D01*
X323577Y407127D01*
X323014Y406151D01*
X322722Y405063D01*
Y403937D01*
X323014Y402849D01*
X323577Y401873D01*
X324374Y401077D01*
X325349Y400514D01*
X326437Y400222D01*
X327563D01*
X328651Y400514D01*
X329626Y401077D01*
X330423Y401873D01*
X330986Y402849D01*
X331278Y403937D01*
Y405063D01*
X330986Y406151D01*
X330423Y407127D01*
X329626Y407923D01*
X328651Y408486D01*
X327563Y408778D01*
D02*
G37*
G36*
X267563D02*
X266437D01*
X265349Y408486D01*
X264373Y407923D01*
X263577Y407127D01*
X263014Y406151D01*
X262722Y405063D01*
Y403937D01*
X263014Y402849D01*
X263577Y401873D01*
X264373Y401077D01*
X265349Y400514D01*
X266437Y400222D01*
X267563D01*
X268651Y400514D01*
X269626Y401077D01*
X270423Y401873D01*
X270986Y402849D01*
X271278Y403937D01*
Y405063D01*
X270986Y406151D01*
X270423Y407127D01*
X269626Y407923D01*
X268651Y408486D01*
X267563Y408778D01*
D02*
G37*
G36*
X205489Y401500D02*
X202500D01*
Y398511D01*
X203351Y398739D01*
X204149Y399199D01*
X204801Y399851D01*
X205261Y400649D01*
X205489Y401500D01*
D02*
G37*
G36*
X201500D02*
X198511D01*
X198739Y400649D01*
X199199Y399851D01*
X199851Y399199D01*
X200649Y398739D01*
X201500Y398511D01*
Y401500D01*
D02*
G37*
G36*
X440657Y405766D02*
X439344D01*
X438075Y405426D01*
X436938Y404770D01*
X436010Y403841D01*
X435354Y402704D01*
X435014Y401436D01*
Y400123D01*
X435354Y398855D01*
X436010Y397718D01*
X436938Y396790D01*
X438075Y396133D01*
X439344Y395793D01*
X440657D01*
X441925Y396133D01*
X443062Y396790D01*
X443990Y397718D01*
X444646Y398855D01*
X444986Y400123D01*
Y401436D01*
X444646Y402704D01*
X443990Y403841D01*
X443062Y404770D01*
X441925Y405426D01*
X440657Y405766D01*
D02*
G37*
G36*
X134656Y405545D02*
X133344D01*
X132075Y405205D01*
X130938Y404549D01*
X130010Y403621D01*
X129354Y402484D01*
X129014Y401216D01*
Y399903D01*
X129354Y398635D01*
X130010Y397497D01*
X130938Y396569D01*
X132075Y395913D01*
X133344Y395573D01*
X134656D01*
X135925Y395913D01*
X137062Y396569D01*
X137990Y397497D01*
X138646Y398635D01*
X138986Y399903D01*
Y401216D01*
X138646Y402484D01*
X137990Y403621D01*
X137062Y404549D01*
X135925Y405205D01*
X134656Y405545D01*
D02*
G37*
G36*
X358000Y398489D02*
Y395500D01*
X360989D01*
X360761Y396351D01*
X360301Y397149D01*
X359649Y397801D01*
X358851Y398261D01*
X358000Y398489D01*
D02*
G37*
G36*
X357000D02*
X356149Y398261D01*
X355351Y397801D01*
X354699Y397149D01*
X354239Y396351D01*
X354011Y395500D01*
X357000D01*
Y398489D01*
D02*
G37*
G36*
X360989Y394500D02*
X358000D01*
Y391511D01*
X358851Y391739D01*
X359649Y392199D01*
X360301Y392851D01*
X360761Y393649D01*
X360989Y394500D01*
D02*
G37*
G36*
X357000D02*
X354011D01*
X354239Y393649D01*
X354699Y392851D01*
X355351Y392199D01*
X356149Y391739D01*
X357000Y391511D01*
Y394500D01*
D02*
G37*
G36*
X327563Y398778D02*
X326437D01*
X325349Y398486D01*
X324374Y397923D01*
X323577Y397127D01*
X323014Y396151D01*
X322722Y395063D01*
Y393937D01*
X323014Y392849D01*
X323577Y391874D01*
X324374Y391077D01*
X325349Y390514D01*
X326437Y390222D01*
X327563D01*
X328651Y390514D01*
X329626Y391077D01*
X330423Y391874D01*
X330986Y392849D01*
X331278Y393937D01*
Y395063D01*
X330986Y396151D01*
X330423Y397127D01*
X329626Y397923D01*
X328651Y398486D01*
X327563Y398778D01*
D02*
G37*
G36*
X267563D02*
X266437D01*
X265349Y398486D01*
X264373Y397923D01*
X263577Y397127D01*
X263014Y396151D01*
X262722Y395063D01*
Y393937D01*
X263014Y392849D01*
X263577Y391874D01*
X264373Y391077D01*
X265349Y390514D01*
X266437Y390222D01*
X267563D01*
X268651Y390514D01*
X269626Y391077D01*
X270423Y391874D01*
X270986Y392849D01*
X271278Y393937D01*
Y395063D01*
X270986Y396151D01*
X270423Y397127D01*
X269626Y397923D01*
X268651Y398486D01*
X267563Y398778D01*
D02*
G37*
G36*
X223000Y391490D02*
Y388500D01*
X225990D01*
X225762Y389351D01*
X225301Y390149D01*
X224649Y390801D01*
X223851Y391262D01*
X223000Y391490D01*
D02*
G37*
G36*
X222000D02*
X221149Y391262D01*
X220351Y390801D01*
X219699Y390149D01*
X219238Y389351D01*
X219010Y388500D01*
X222000D01*
Y391490D01*
D02*
G37*
G36*
X225990Y387500D02*
X223000D01*
Y384510D01*
X223851Y384738D01*
X224649Y385199D01*
X225301Y385851D01*
X225762Y386649D01*
X225990Y387500D01*
D02*
G37*
G36*
X222000D02*
X219010D01*
X219238Y386649D01*
X219699Y385851D01*
X220351Y385199D01*
X221149Y384738D01*
X222000Y384510D01*
Y387500D01*
D02*
G37*
G36*
X440657Y391986D02*
X439344D01*
X438075Y391646D01*
X436938Y390990D01*
X436010Y390062D01*
X435354Y388925D01*
X435014Y387656D01*
Y386344D01*
X435354Y385075D01*
X436010Y383938D01*
X436938Y383010D01*
X438075Y382354D01*
X439344Y382014D01*
X440657D01*
X441925Y382354D01*
X443062Y383010D01*
X443990Y383938D01*
X444646Y385075D01*
X444986Y386344D01*
Y387656D01*
X444646Y388925D01*
X443990Y390062D01*
X443062Y390990D01*
X441925Y391646D01*
X440657Y391986D01*
D02*
G37*
G36*
X134656Y391766D02*
X133344D01*
X132075Y391426D01*
X130938Y390770D01*
X130010Y389841D01*
X129354Y388704D01*
X129014Y387436D01*
Y386123D01*
X129354Y384855D01*
X130010Y383718D01*
X130938Y382790D01*
X132075Y382133D01*
X133344Y381793D01*
X134656D01*
X135925Y382133D01*
X137062Y382790D01*
X137990Y383718D01*
X138646Y384855D01*
X138986Y386123D01*
Y387436D01*
X138646Y388704D01*
X137990Y389841D01*
X137062Y390770D01*
X135925Y391426D01*
X134656Y391766D01*
D02*
G37*
G36*
X327563Y388778D02*
X326437D01*
X325349Y388486D01*
X324374Y387923D01*
X323577Y387126D01*
X323014Y386151D01*
X322722Y385063D01*
Y383937D01*
X323014Y382849D01*
X323577Y381873D01*
X324374Y381077D01*
X325349Y380514D01*
X326437Y380222D01*
X327563D01*
X328651Y380514D01*
X329626Y381077D01*
X330423Y381873D01*
X330986Y382849D01*
X331278Y383937D01*
Y385063D01*
X330986Y386151D01*
X330423Y387126D01*
X329626Y387923D01*
X328651Y388486D01*
X327563Y388778D01*
D02*
G37*
G36*
X267563D02*
X266437D01*
X265349Y388486D01*
X264373Y387923D01*
X263577Y387126D01*
X263014Y386151D01*
X262722Y385063D01*
Y383937D01*
X263014Y382849D01*
X263577Y381873D01*
X264373Y381077D01*
X265349Y380514D01*
X266437Y380222D01*
X267563D01*
X268651Y380514D01*
X269626Y381077D01*
X270423Y381873D01*
X270986Y382849D01*
X271278Y383937D01*
Y385063D01*
X270986Y386151D01*
X270423Y387126D01*
X269626Y387923D01*
X268651Y388486D01*
X267563Y388778D01*
D02*
G37*
G36*
X327563Y378778D02*
X326437D01*
X325349Y378486D01*
X324374Y377923D01*
X323577Y377127D01*
X323014Y376151D01*
X322722Y375063D01*
Y373937D01*
X323014Y372849D01*
X323577Y371873D01*
X324374Y371077D01*
X325349Y370514D01*
X326437Y370222D01*
X327563D01*
X328651Y370514D01*
X329626Y371077D01*
X330423Y371873D01*
X330986Y372849D01*
X331278Y373937D01*
Y375063D01*
X330986Y376151D01*
X330423Y377127D01*
X329626Y377923D01*
X328651Y378486D01*
X327563Y378778D01*
D02*
G37*
G36*
X267563D02*
X266437D01*
X265349Y378486D01*
X264373Y377923D01*
X263577Y377127D01*
X263014Y376151D01*
X262722Y375063D01*
Y373937D01*
X263014Y372849D01*
X263577Y371873D01*
X264373Y371077D01*
X265349Y370514D01*
X266437Y370222D01*
X267563D01*
X268651Y370514D01*
X269626Y371077D01*
X270423Y371873D01*
X270986Y372849D01*
X271278Y373937D01*
Y375063D01*
X270986Y376151D01*
X270423Y377127D01*
X269626Y377923D01*
X268651Y378486D01*
X267563Y378778D01*
D02*
G37*
G36*
X440657Y378207D02*
X439344D01*
X438075Y377867D01*
X436938Y377210D01*
X436010Y376282D01*
X435354Y375145D01*
X435014Y373877D01*
Y372564D01*
X435354Y371296D01*
X436010Y370159D01*
X436938Y369231D01*
X438075Y368574D01*
X439344Y368234D01*
X440657D01*
X441925Y368574D01*
X443062Y369231D01*
X443990Y370159D01*
X444646Y371296D01*
X444986Y372564D01*
Y373877D01*
X444646Y375145D01*
X443990Y376282D01*
X443062Y377210D01*
X441925Y377867D01*
X440657Y378207D01*
D02*
G37*
G36*
X138986Y377986D02*
X129014D01*
Y368014D01*
X138986D01*
Y377986D01*
D02*
G37*
G36*
X413508Y373311D02*
X413000D01*
Y361000D01*
X425311D01*
Y361508D01*
X424996Y363500D01*
X424372Y365418D01*
X423457Y367214D01*
X422272Y368846D01*
X420846Y370272D01*
X419214Y371457D01*
X417418Y372372D01*
X415500Y372996D01*
X413508Y373311D01*
D02*
G37*
G36*
X412000D02*
X411492D01*
X409500Y372996D01*
X407582Y372372D01*
X405786Y371457D01*
X404154Y370272D01*
X402728Y368846D01*
X401543Y367214D01*
X400628Y365418D01*
X400004Y363500D01*
X399689Y361508D01*
Y361000D01*
X412000D01*
Y373311D01*
D02*
G37*
G36*
X163234Y373263D02*
X162725D01*
Y360952D01*
X175037D01*
Y361460D01*
X174721Y363452D01*
X174098Y365370D01*
X173182Y367167D01*
X171997Y368798D01*
X170571Y370224D01*
X168940Y371409D01*
X167143Y372325D01*
X165225Y372948D01*
X163234Y373263D01*
D02*
G37*
G36*
X161725D02*
X161217D01*
X159225Y372948D01*
X157308Y372325D01*
X155511Y371409D01*
X153880Y370224D01*
X152454Y368798D01*
X151268Y367167D01*
X150353Y365370D01*
X149730Y363452D01*
X149415Y361460D01*
Y360952D01*
X161725D01*
Y373263D01*
D02*
G37*
G36*
X327563Y368778D02*
X326437D01*
X325349Y368486D01*
X324374Y367923D01*
X323577Y367126D01*
X323014Y366151D01*
X322722Y365063D01*
Y363937D01*
X323014Y362849D01*
X323577Y361874D01*
X324374Y361077D01*
X325349Y360514D01*
X326437Y360222D01*
X327563D01*
X328651Y360514D01*
X329626Y361077D01*
X330423Y361874D01*
X330986Y362849D01*
X331278Y363937D01*
Y365063D01*
X330986Y366151D01*
X330423Y367126D01*
X329626Y367923D01*
X328651Y368486D01*
X327563Y368778D01*
D02*
G37*
G36*
X267563D02*
X266437D01*
X265349Y368486D01*
X264373Y367923D01*
X263577Y367126D01*
X263014Y366151D01*
X262722Y365063D01*
Y363937D01*
X263014Y362849D01*
X263577Y361874D01*
X264373Y361077D01*
X265349Y360514D01*
X266437Y360222D01*
X267563D01*
X268651Y360514D01*
X269626Y361077D01*
X270423Y361874D01*
X270986Y362849D01*
X271278Y363937D01*
Y365063D01*
X270986Y366151D01*
X270423Y367126D01*
X269626Y367923D01*
X268651Y368486D01*
X267563Y368778D01*
D02*
G37*
G36*
X327563Y358778D02*
X326437D01*
X325349Y358486D01*
X324374Y357923D01*
X323577Y357126D01*
X323014Y356151D01*
X322722Y355063D01*
Y353937D01*
X323014Y352849D01*
X323577Y351873D01*
X324374Y351077D01*
X325349Y350514D01*
X326437Y350222D01*
X327563D01*
X328651Y350514D01*
X329626Y351077D01*
X330423Y351873D01*
X330986Y352849D01*
X331278Y353937D01*
Y355063D01*
X330986Y356151D01*
X330423Y357126D01*
X329626Y357923D01*
X328651Y358486D01*
X327563Y358778D01*
D02*
G37*
G36*
X267563D02*
X266437D01*
X265349Y358486D01*
X264373Y357923D01*
X263577Y357126D01*
X263014Y356151D01*
X262722Y355063D01*
Y353937D01*
X263014Y352849D01*
X263577Y351873D01*
X264373Y351077D01*
X265349Y350514D01*
X266437Y350222D01*
X267563D01*
X268651Y350514D01*
X269626Y351077D01*
X270423Y351873D01*
X270986Y352849D01*
X271278Y353937D01*
Y355063D01*
X270986Y356151D01*
X270423Y357126D01*
X269626Y357923D01*
X268651Y358486D01*
X267563Y358778D01*
D02*
G37*
G36*
X425311Y360000D02*
X413000D01*
Y347689D01*
X413508D01*
X415500Y348004D01*
X417418Y348628D01*
X419214Y349543D01*
X420846Y350728D01*
X422272Y352154D01*
X423457Y353786D01*
X424372Y355582D01*
X424996Y357500D01*
X425311Y359492D01*
Y360000D01*
D02*
G37*
G36*
X412000D02*
X399689D01*
Y359492D01*
X400004Y357500D01*
X400628Y355582D01*
X401543Y353786D01*
X402728Y352154D01*
X404154Y350728D01*
X405786Y349543D01*
X407582Y348628D01*
X409500Y348004D01*
X411492Y347689D01*
X412000D01*
Y360000D01*
D02*
G37*
G36*
X175037Y359952D02*
X162725D01*
Y347641D01*
X163234D01*
X165225Y347957D01*
X167143Y348580D01*
X168940Y349495D01*
X170571Y350681D01*
X171997Y352106D01*
X173182Y353738D01*
X174098Y355535D01*
X174721Y357452D01*
X175037Y359444D01*
Y359952D01*
D02*
G37*
G36*
X161725D02*
X149415D01*
Y359444D01*
X149730Y357452D01*
X150353Y355535D01*
X151268Y353738D01*
X152454Y352106D01*
X153880Y350681D01*
X155511Y349495D01*
X157308Y348580D01*
X159225Y347957D01*
X161217Y347641D01*
X161725D01*
Y359952D01*
D02*
G37*
G36*
X379250Y350621D02*
Y347632D01*
X382240D01*
X382012Y348482D01*
X381551Y349281D01*
X380899Y349932D01*
X380101Y350393D01*
X379250Y350621D01*
D02*
G37*
G36*
X378250D02*
X377399Y350393D01*
X376601Y349932D01*
X375950Y349281D01*
X375489Y348482D01*
X375261Y347632D01*
X378250D01*
Y350621D01*
D02*
G37*
G36*
X382240Y346632D02*
X379250D01*
Y343642D01*
X380101Y343870D01*
X380899Y344331D01*
X381551Y344983D01*
X382012Y345781D01*
X382240Y346632D01*
D02*
G37*
G36*
X378250D02*
X375261D01*
X375489Y345781D01*
X375950Y344983D01*
X376601Y344331D01*
X377399Y343870D01*
X378250Y343642D01*
Y346632D01*
D02*
G37*
G36*
X444986Y353443D02*
X435014D01*
Y343471D01*
X444986D01*
Y353443D01*
D02*
G37*
G36*
X134656D02*
X133344D01*
X132075Y353103D01*
X130938Y352447D01*
X130010Y351518D01*
X129354Y350381D01*
X129014Y349113D01*
Y347800D01*
X129354Y346532D01*
X130010Y345395D01*
X130938Y344467D01*
X132075Y343810D01*
X133344Y343471D01*
X134656D01*
X135925Y343810D01*
X137062Y344467D01*
X137990Y345395D01*
X138646Y346532D01*
X138986Y347800D01*
Y349113D01*
X138646Y350381D01*
X137990Y351518D01*
X137062Y352447D01*
X135925Y353103D01*
X134656Y353443D01*
D02*
G37*
G36*
X327563Y348778D02*
X326437D01*
X325349Y348486D01*
X324374Y347923D01*
X323577Y347127D01*
X323014Y346151D01*
X322722Y345063D01*
Y343937D01*
X323014Y342849D01*
X323577Y341874D01*
X324374Y341077D01*
X325349Y340514D01*
X326437Y340222D01*
X327563D01*
X328651Y340514D01*
X329626Y341077D01*
X330423Y341874D01*
X330986Y342849D01*
X331278Y343937D01*
Y345063D01*
X330986Y346151D01*
X330423Y347127D01*
X329626Y347923D01*
X328651Y348486D01*
X327563Y348778D01*
D02*
G37*
G36*
X267563D02*
X266437D01*
X265349Y348486D01*
X264373Y347923D01*
X263577Y347127D01*
X263014Y346151D01*
X262722Y345063D01*
Y343937D01*
X263014Y342849D01*
X263577Y341874D01*
X264373Y341077D01*
X265349Y340514D01*
X266437Y340222D01*
X267563D01*
X268651Y340514D01*
X269626Y341077D01*
X270423Y341874D01*
X270986Y342849D01*
X271278Y343937D01*
Y345063D01*
X270986Y346151D01*
X270423Y347127D01*
X269626Y347923D01*
X268651Y348486D01*
X267563Y348778D01*
D02*
G37*
G36*
X216500Y341490D02*
Y338500D01*
X219490D01*
X219262Y339351D01*
X218801Y340149D01*
X218149Y340801D01*
X217351Y341262D01*
X216500Y341490D01*
D02*
G37*
G36*
X215500D02*
X214649Y341262D01*
X213851Y340801D01*
X213199Y340149D01*
X212738Y339351D01*
X212510Y338500D01*
X215500D01*
Y341490D01*
D02*
G37*
G36*
X327563Y338778D02*
X327500D01*
Y335000D01*
X331278D01*
Y335063D01*
X330986Y336151D01*
X330423Y337126D01*
X329626Y337923D01*
X328651Y338486D01*
X327563Y338778D01*
D02*
G37*
G36*
X326500D02*
X326437D01*
X325349Y338486D01*
X324374Y337923D01*
X323577Y337126D01*
X323014Y336151D01*
X322722Y335063D01*
Y335000D01*
X326500D01*
Y338778D01*
D02*
G37*
G36*
X219490Y337500D02*
X216500D01*
Y334510D01*
X217351Y334738D01*
X218149Y335199D01*
X218801Y335851D01*
X219262Y336649D01*
X219490Y337500D01*
D02*
G37*
G36*
X215500D02*
X212510D01*
X212738Y336649D01*
X213199Y335851D01*
X213851Y335199D01*
X214649Y334738D01*
X215500Y334510D01*
Y337500D01*
D02*
G37*
G36*
X377000Y335989D02*
Y333000D01*
X379990D01*
X379762Y333851D01*
X379301Y334649D01*
X378649Y335301D01*
X377851Y335761D01*
X377000Y335989D01*
D02*
G37*
G36*
X376000D02*
X375149Y335761D01*
X374351Y335301D01*
X373699Y334649D01*
X373238Y333851D01*
X373010Y333000D01*
X376000D01*
Y335989D01*
D02*
G37*
G36*
X331278Y334000D02*
X327500D01*
Y330222D01*
X327563D01*
X328651Y330514D01*
X329626Y331077D01*
X330423Y331873D01*
X330986Y332849D01*
X331278Y333937D01*
Y334000D01*
D02*
G37*
G36*
X326500D02*
X322722D01*
Y333937D01*
X323014Y332849D01*
X323577Y331873D01*
X324374Y331077D01*
X325349Y330514D01*
X326437Y330222D01*
X326500D01*
Y334000D01*
D02*
G37*
G36*
X134656Y339663D02*
X133344D01*
X132075Y339324D01*
X130938Y338667D01*
X130010Y337739D01*
X129354Y336602D01*
X129014Y335334D01*
Y334021D01*
X129354Y332753D01*
X130010Y331616D01*
X130938Y330687D01*
X132075Y330031D01*
X133344Y329691D01*
X134656D01*
X135925Y330031D01*
X137062Y330687D01*
X137990Y331616D01*
X138646Y332753D01*
X138986Y334021D01*
Y335334D01*
X138646Y336602D01*
X137990Y337739D01*
X137062Y338667D01*
X135925Y339324D01*
X134656Y339663D01*
D02*
G37*
G36*
X440657Y339663D02*
X439344D01*
X438075Y339324D01*
X436938Y338667D01*
X436010Y337739D01*
X435354Y336602D01*
X435014Y335334D01*
Y334021D01*
X435354Y332753D01*
X436010Y331615D01*
X436938Y330687D01*
X438075Y330031D01*
X439344Y329691D01*
X440657D01*
X441925Y330031D01*
X443062Y330687D01*
X443990Y331615D01*
X444646Y332753D01*
X444986Y334021D01*
Y335334D01*
X444646Y336602D01*
X443990Y337739D01*
X443062Y338667D01*
X441925Y339324D01*
X440657Y339663D01*
D02*
G37*
G36*
X379990Y332000D02*
X377000D01*
Y329011D01*
X377851Y329239D01*
X378649Y329699D01*
X379301Y330351D01*
X379762Y331149D01*
X379990Y332000D01*
D02*
G37*
G36*
X376000D02*
X373010D01*
X373238Y331149D01*
X373699Y330351D01*
X374351Y329699D01*
X375149Y329239D01*
X376000Y329011D01*
Y332000D01*
D02*
G37*
G36*
X327563Y328778D02*
X326437D01*
X325349Y328486D01*
X324374Y327923D01*
X323577Y327127D01*
X323014Y326151D01*
X322722Y325063D01*
Y323937D01*
X323014Y322849D01*
X323577Y321873D01*
X324374Y321077D01*
X325349Y320514D01*
X326437Y320222D01*
X327563D01*
X328651Y320514D01*
X329626Y321077D01*
X330423Y321873D01*
X330986Y322849D01*
X331278Y323937D01*
Y325063D01*
X330986Y326151D01*
X330423Y327127D01*
X329626Y327923D01*
X328651Y328486D01*
X327563Y328778D01*
D02*
G37*
G36*
X267563D02*
X266437D01*
X265349Y328486D01*
X264373Y327923D01*
X263577Y327127D01*
X263014Y326151D01*
X262722Y325063D01*
Y323937D01*
X263014Y322849D01*
X263577Y321873D01*
X264373Y321077D01*
X265349Y320514D01*
X266437Y320222D01*
X267563D01*
X268651Y320514D01*
X269626Y321077D01*
X270423Y321873D01*
X270986Y322849D01*
X271278Y323937D01*
Y325063D01*
X270986Y326151D01*
X270423Y327127D01*
X269626Y327923D01*
X268651Y328486D01*
X267563Y328778D01*
D02*
G37*
G36*
X134656Y325884D02*
X133344D01*
X132075Y325544D01*
X130938Y324888D01*
X130010Y323959D01*
X129354Y322822D01*
X129014Y321554D01*
Y320241D01*
X129354Y318973D01*
X130010Y317836D01*
X130938Y316908D01*
X132075Y316251D01*
X133344Y315911D01*
X134656D01*
X135925Y316251D01*
X137062Y316908D01*
X137990Y317836D01*
X138646Y318973D01*
X138986Y320241D01*
Y321554D01*
X138646Y322822D01*
X137990Y323959D01*
X137062Y324888D01*
X135925Y325544D01*
X134656Y325884D01*
D02*
G37*
G36*
X440657Y325884D02*
X439344D01*
X438075Y325544D01*
X436938Y324888D01*
X436010Y323959D01*
X435354Y322822D01*
X435014Y321554D01*
Y320241D01*
X435354Y318973D01*
X436010Y317836D01*
X436938Y316908D01*
X438075Y316251D01*
X439344Y315911D01*
X440657D01*
X441925Y316251D01*
X443062Y316908D01*
X443990Y317836D01*
X444646Y318973D01*
X444986Y320241D01*
Y321554D01*
X444646Y322822D01*
X443990Y323959D01*
X443062Y324888D01*
X441925Y325544D01*
X440657Y325884D01*
D02*
G37*
G36*
X327563Y318778D02*
X326437D01*
X325349Y318486D01*
X324374Y317923D01*
X323577Y317126D01*
X323014Y316151D01*
X322722Y315063D01*
Y313937D01*
X323014Y312849D01*
X323577Y311874D01*
X324374Y311077D01*
X325349Y310514D01*
X326437Y310222D01*
X327563D01*
X328651Y310514D01*
X329626Y311077D01*
X330423Y311874D01*
X330986Y312849D01*
X331278Y313937D01*
Y315063D01*
X330986Y316151D01*
X330423Y317126D01*
X329626Y317923D01*
X328651Y318486D01*
X327563Y318778D01*
D02*
G37*
G36*
X267563D02*
X266437D01*
X265349Y318486D01*
X264373Y317923D01*
X263577Y317126D01*
X263014Y316151D01*
X262722Y315063D01*
Y313937D01*
X263014Y312849D01*
X263577Y311874D01*
X264373Y311077D01*
X265349Y310514D01*
X266437Y310222D01*
X267563D01*
X268651Y310514D01*
X269626Y311077D01*
X270423Y311874D01*
X270986Y312849D01*
X271278Y313937D01*
Y315063D01*
X270986Y316151D01*
X270423Y317126D01*
X269626Y317923D01*
X268651Y318486D01*
X267563Y318778D01*
D02*
G37*
G36*
X440657Y312104D02*
X439344D01*
X438075Y311765D01*
X436938Y311108D01*
X436010Y310180D01*
X435354Y309043D01*
X435014Y307775D01*
Y306462D01*
X435354Y305193D01*
X436010Y304057D01*
X436938Y303128D01*
X438075Y302472D01*
X439344Y302132D01*
X440657D01*
X441925Y302472D01*
X443062Y303128D01*
X443990Y304057D01*
X444646Y305193D01*
X444986Y306462D01*
Y307775D01*
X444646Y309043D01*
X443990Y310180D01*
X443062Y311108D01*
X441925Y311765D01*
X440657Y312104D01*
D02*
G37*
G36*
X134656D02*
X133344D01*
X132075Y311765D01*
X130938Y311108D01*
X130010Y310180D01*
X129354Y309043D01*
X129014Y307775D01*
Y306462D01*
X129354Y305193D01*
X130010Y304057D01*
X130938Y303128D01*
X132075Y302472D01*
X133344Y302132D01*
X134656D01*
X135925Y302472D01*
X137062Y303128D01*
X137990Y304057D01*
X138646Y305193D01*
X138986Y306462D01*
Y307775D01*
X138646Y309043D01*
X137990Y310180D01*
X137062Y311108D01*
X135925Y311765D01*
X134656Y312104D01*
D02*
G37*
G36*
X267563Y308778D02*
X266437D01*
X265349Y308486D01*
X264373Y307923D01*
X263577Y307126D01*
X263014Y306151D01*
X262722Y305063D01*
Y303937D01*
X263014Y302849D01*
X263577Y301873D01*
X264373Y301077D01*
X265349Y300514D01*
X266437Y300222D01*
X267563D01*
X268651Y300514D01*
X269626Y301077D01*
X270423Y301873D01*
X270986Y302849D01*
X271278Y303937D01*
Y305063D01*
X270986Y306151D01*
X270423Y307126D01*
X269626Y307923D01*
X268651Y308486D01*
X267563Y308778D01*
D02*
G37*
G36*
X197000Y300990D02*
Y298000D01*
X199989D01*
X199761Y298851D01*
X199301Y299649D01*
X198649Y300301D01*
X197851Y300762D01*
X197000Y300990D01*
D02*
G37*
G36*
X196000D02*
X195149Y300762D01*
X194351Y300301D01*
X193699Y299649D01*
X193238Y298851D01*
X193010Y298000D01*
X196000D01*
Y300990D01*
D02*
G37*
G36*
X297563Y298778D02*
X297500D01*
Y295000D01*
X301278D01*
Y295063D01*
X300986Y296151D01*
X300423Y297127D01*
X299626Y297923D01*
X298651Y298486D01*
X297563Y298778D01*
D02*
G37*
G36*
X296500D02*
X296437D01*
X295349Y298486D01*
X294373Y297923D01*
X293577Y297127D01*
X293014Y296151D01*
X292722Y295063D01*
Y295000D01*
X296500D01*
Y298778D01*
D02*
G37*
G36*
X199989Y297000D02*
X197000D01*
Y294010D01*
X197851Y294238D01*
X198649Y294699D01*
X199301Y295351D01*
X199761Y296149D01*
X199989Y297000D01*
D02*
G37*
G36*
X196000D02*
X193010D01*
X193238Y296149D01*
X193699Y295351D01*
X194351Y294699D01*
X195149Y294238D01*
X196000Y294010D01*
Y297000D01*
D02*
G37*
G36*
X359762Y296324D02*
Y293334D01*
X362751D01*
X362523Y294185D01*
X362062Y294983D01*
X361411Y295635D01*
X360613Y296096D01*
X359762Y296324D01*
D02*
G37*
G36*
X358762D02*
X357911Y296096D01*
X357113Y295635D01*
X356461Y294983D01*
X356000Y294185D01*
X355772Y293334D01*
X358762D01*
Y296324D01*
D02*
G37*
G36*
X317563Y298778D02*
X316437D01*
X315349Y298486D01*
X314373Y297923D01*
X313577Y297127D01*
X313014Y296151D01*
X312722Y295063D01*
Y293937D01*
X313014Y292849D01*
X313577Y291874D01*
X314373Y291077D01*
X315349Y290514D01*
X316437Y290222D01*
X317563D01*
X318651Y290514D01*
X319626Y291077D01*
X320423Y291874D01*
X320986Y292849D01*
X321278Y293937D01*
Y295063D01*
X320986Y296151D01*
X320423Y297127D01*
X319626Y297923D01*
X318651Y298486D01*
X317563Y298778D01*
D02*
G37*
G36*
X307563D02*
X306437D01*
X305349Y298486D01*
X304374Y297923D01*
X303577Y297127D01*
X303014Y296151D01*
X302722Y295063D01*
Y293937D01*
X303014Y292849D01*
X303577Y291874D01*
X304374Y291077D01*
X305349Y290514D01*
X306437Y290222D01*
X307563D01*
X308651Y290514D01*
X309627Y291077D01*
X310423Y291874D01*
X310986Y292849D01*
X311278Y293937D01*
Y295063D01*
X310986Y296151D01*
X310423Y297127D01*
X309627Y297923D01*
X308651Y298486D01*
X307563Y298778D01*
D02*
G37*
G36*
X301278Y294000D02*
X297500D01*
Y290222D01*
X297563D01*
X298651Y290514D01*
X299626Y291077D01*
X300423Y291874D01*
X300986Y292849D01*
X301278Y293937D01*
Y294000D01*
D02*
G37*
G36*
X296500D02*
X292722D01*
Y293937D01*
X293014Y292849D01*
X293577Y291874D01*
X294373Y291077D01*
X295349Y290514D01*
X296437Y290222D01*
X296500D01*
Y294000D01*
D02*
G37*
G36*
X287563Y298778D02*
X286437D01*
X285349Y298486D01*
X284373Y297923D01*
X283577Y297127D01*
X283014Y296151D01*
X282722Y295063D01*
Y293937D01*
X283014Y292849D01*
X283577Y291874D01*
X284373Y291077D01*
X285349Y290514D01*
X286437Y290222D01*
X287563D01*
X288651Y290514D01*
X289627Y291077D01*
X290423Y291874D01*
X290986Y292849D01*
X291278Y293937D01*
Y295063D01*
X290986Y296151D01*
X290423Y297127D01*
X289627Y297923D01*
X288651Y298486D01*
X287563Y298778D01*
D02*
G37*
G36*
X277563D02*
X276437D01*
X275349Y298486D01*
X274374Y297923D01*
X273577Y297127D01*
X273014Y296151D01*
X272722Y295063D01*
Y293937D01*
X273014Y292849D01*
X273577Y291874D01*
X274374Y291077D01*
X275349Y290514D01*
X276437Y290222D01*
X277563D01*
X278651Y290514D01*
X279626Y291077D01*
X280423Y291874D01*
X280986Y292849D01*
X281278Y293937D01*
Y295063D01*
X280986Y296151D01*
X280423Y297127D01*
X279626Y297923D01*
X278651Y298486D01*
X277563Y298778D01*
D02*
G37*
G36*
X267563D02*
X266437D01*
X265349Y298486D01*
X264373Y297923D01*
X263577Y297127D01*
X263014Y296151D01*
X262722Y295063D01*
Y293937D01*
X263014Y292849D01*
X263577Y291874D01*
X264373Y291077D01*
X265349Y290514D01*
X266437Y290222D01*
X267563D01*
X268651Y290514D01*
X269626Y291077D01*
X270423Y291874D01*
X270986Y292849D01*
X271278Y293937D01*
Y295063D01*
X270986Y296151D01*
X270423Y297127D01*
X269626Y297923D01*
X268651Y298486D01*
X267563Y298778D01*
D02*
G37*
G36*
X362751Y292334D02*
X359762D01*
Y289345D01*
X360613Y289573D01*
X361411Y290034D01*
X362062Y290685D01*
X362523Y291483D01*
X362751Y292334D01*
D02*
G37*
G36*
X358762D02*
X355772D01*
X356000Y291483D01*
X356461Y290685D01*
X357113Y290034D01*
X357911Y289573D01*
X358762Y289345D01*
Y292334D01*
D02*
G37*
G36*
X440657Y298325D02*
X439344D01*
X438075Y297985D01*
X436938Y297328D01*
X436010Y296400D01*
X435354Y295263D01*
X435014Y293995D01*
Y292682D01*
X435354Y291414D01*
X436010Y290277D01*
X436938Y289349D01*
X438075Y288692D01*
X439344Y288352D01*
X440657D01*
X441925Y288692D01*
X443062Y289349D01*
X443990Y290277D01*
X444646Y291414D01*
X444986Y292682D01*
Y293995D01*
X444646Y295263D01*
X443990Y296400D01*
X443062Y297328D01*
X441925Y297985D01*
X440657Y298325D01*
D02*
G37*
G36*
X134656D02*
X133344D01*
X132075Y297985D01*
X130938Y297328D01*
X130010Y296400D01*
X129354Y295263D01*
X129014Y293995D01*
Y292682D01*
X129354Y291414D01*
X130010Y290277D01*
X130938Y289349D01*
X132075Y288692D01*
X133344Y288352D01*
X134656D01*
X135925Y288692D01*
X137062Y289349D01*
X137990Y290277D01*
X138646Y291414D01*
X138986Y292682D01*
Y293995D01*
X138646Y295263D01*
X137990Y296400D01*
X137062Y297328D01*
X135925Y297985D01*
X134656Y298325D01*
D02*
G37*
G36*
X298489Y286957D02*
X297511D01*
X296608Y286583D01*
X295917Y285892D01*
X295771Y285537D01*
X295229D01*
X295083Y285892D01*
X294392Y286583D01*
X293489Y286957D01*
X292511D01*
X291608Y286583D01*
X290917Y285892D01*
X290543Y284989D01*
Y284011D01*
X290917Y283108D01*
X291608Y282417D01*
X291963Y282271D01*
Y281729D01*
X291608Y281583D01*
X290917Y280892D01*
X290543Y279989D01*
Y279011D01*
X290917Y278108D01*
X291608Y277417D01*
X291963Y277271D01*
Y276729D01*
X291608Y276583D01*
X290917Y275892D01*
X290543Y274989D01*
Y274011D01*
X290917Y273108D01*
X291608Y272417D01*
X291963Y272271D01*
Y271729D01*
X291608Y271583D01*
X290917Y270892D01*
X290543Y269989D01*
Y269011D01*
X290917Y268108D01*
X291608Y267417D01*
X292511Y267043D01*
X293489D01*
X294392Y267417D01*
X295083Y268108D01*
X295229Y268463D01*
X295771D01*
X295917Y268108D01*
X296608Y267417D01*
X297511Y267043D01*
X298489D01*
X299392Y267417D01*
X300083Y268108D01*
X300457Y269011D01*
Y269989D01*
X300083Y270892D01*
X299392Y271583D01*
X299037Y271729D01*
Y272271D01*
X299392Y272417D01*
X300083Y273108D01*
X300457Y274011D01*
Y274989D01*
X300083Y275892D01*
X299392Y276583D01*
X299037Y276729D01*
Y277271D01*
X299392Y277417D01*
X300083Y278108D01*
X300457Y279011D01*
Y279989D01*
X300083Y280892D01*
X299392Y281583D01*
X299037Y281729D01*
Y282271D01*
X299392Y282417D01*
X300083Y283108D01*
X300457Y284011D01*
Y284989D01*
X300083Y285892D01*
X299392Y286583D01*
X298489Y286957D01*
D02*
G37*
G36*
X279750Y288240D02*
Y285250D01*
X282739D01*
X282511Y286101D01*
X282051Y286899D01*
X281399Y287551D01*
X280601Y288012D01*
X279750Y288240D01*
D02*
G37*
G36*
X278750D02*
X277899Y288012D01*
X277101Y287551D01*
X276449Y286899D01*
X275989Y286101D01*
X275761Y285250D01*
X278750D01*
Y288240D01*
D02*
G37*
G36*
X216351Y287406D02*
Y284417D01*
X219340D01*
X219112Y285267D01*
X218652Y286066D01*
X218000Y286717D01*
X217202Y287178D01*
X216351Y287406D01*
D02*
G37*
G36*
X215351D02*
X214500Y287178D01*
X213702Y286717D01*
X213050Y286066D01*
X212590Y285267D01*
X212362Y284417D01*
X215351D01*
Y287406D01*
D02*
G37*
G36*
X282739Y284250D02*
X279750D01*
Y281260D01*
X280601Y281488D01*
X281399Y281949D01*
X282051Y282601D01*
X282511Y283399D01*
X282739Y284250D01*
D02*
G37*
G36*
X278750D02*
X275761D01*
X275989Y283399D01*
X276449Y282601D01*
X277101Y281949D01*
X277899Y281488D01*
X278750Y281260D01*
Y284250D01*
D02*
G37*
G36*
X327563Y288778D02*
X326437D01*
X325349Y288486D01*
X324374Y287923D01*
X323577Y287126D01*
X323014Y286151D01*
X322722Y285063D01*
Y283937D01*
X323014Y282849D01*
X323577Y281873D01*
X324374Y281077D01*
X325349Y280514D01*
X326437Y280222D01*
X327563D01*
X328651Y280514D01*
X329626Y281077D01*
X330423Y281873D01*
X330986Y282849D01*
X331278Y283937D01*
Y285063D01*
X330986Y286151D01*
X330423Y287126D01*
X329626Y287923D01*
X328651Y288486D01*
X327563Y288778D01*
D02*
G37*
G36*
X267563D02*
X266437D01*
X265349Y288486D01*
X264373Y287923D01*
X263577Y287126D01*
X263014Y286151D01*
X262722Y285063D01*
Y283937D01*
X263014Y282849D01*
X263577Y281873D01*
X264373Y281077D01*
X265349Y280514D01*
X266437Y280222D01*
X267563D01*
X268651Y280514D01*
X269626Y281077D01*
X270423Y281873D01*
X270986Y282849D01*
X271278Y283937D01*
Y285063D01*
X270986Y286151D01*
X270423Y287126D01*
X269626Y287923D01*
X268651Y288486D01*
X267563Y288778D01*
D02*
G37*
G36*
X134656Y284545D02*
X133344D01*
X132075Y284206D01*
X130938Y283549D01*
X130010Y282621D01*
X129354Y281484D01*
X129014Y280216D01*
Y278903D01*
X129354Y277635D01*
X130010Y276497D01*
X130938Y275569D01*
X132075Y274913D01*
X133344Y274573D01*
X134656D01*
X135925Y274913D01*
X137062Y275569D01*
X137990Y276497D01*
X138646Y277635D01*
X138986Y278903D01*
Y280216D01*
X138646Y281484D01*
X137990Y282621D01*
X137062Y283549D01*
X135925Y284206D01*
X134656Y284545D01*
D02*
G37*
G36*
X440657Y284545D02*
X439344D01*
X438075Y284206D01*
X436938Y283549D01*
X436010Y282621D01*
X435354Y281484D01*
X435014Y280216D01*
Y278903D01*
X435354Y277634D01*
X436010Y276497D01*
X436938Y275569D01*
X438075Y274913D01*
X439344Y274573D01*
X440657D01*
X441925Y274913D01*
X443062Y275569D01*
X443990Y276497D01*
X444646Y277634D01*
X444986Y278903D01*
Y280216D01*
X444646Y281484D01*
X443990Y282621D01*
X443062Y283549D01*
X441925Y284206D01*
X440657Y284545D01*
D02*
G37*
G36*
X327563Y278778D02*
X326437D01*
X325349Y278486D01*
X324374Y277923D01*
X323577Y277127D01*
X323014Y276151D01*
X322722Y275063D01*
Y273937D01*
X323014Y272849D01*
X323577Y271873D01*
X324374Y271077D01*
X325349Y270514D01*
X326437Y270222D01*
X327563D01*
X328651Y270514D01*
X329626Y271077D01*
X330423Y271873D01*
X330986Y272849D01*
X331278Y273937D01*
Y275063D01*
X330986Y276151D01*
X330423Y277127D01*
X329626Y277923D01*
X328651Y278486D01*
X327563Y278778D01*
D02*
G37*
G36*
X267563D02*
X266437D01*
X265349Y278486D01*
X264373Y277923D01*
X263577Y277127D01*
X263014Y276151D01*
X262722Y275063D01*
Y273937D01*
X263014Y272849D01*
X263577Y271873D01*
X264373Y271077D01*
X265349Y270514D01*
X266437Y270222D01*
X267563D01*
X268651Y270514D01*
X269626Y271077D01*
X270423Y271873D01*
X270986Y272849D01*
X271278Y273937D01*
Y275063D01*
X270986Y276151D01*
X270423Y277127D01*
X269626Y277923D01*
X268651Y278486D01*
X267563Y278778D01*
D02*
G37*
G36*
X134656Y270766D02*
X133344D01*
X132075Y270426D01*
X130938Y269770D01*
X130010Y268841D01*
X129354Y267704D01*
X129014Y266436D01*
Y265123D01*
X129354Y263855D01*
X130010Y262718D01*
X130938Y261790D01*
X132075Y261133D01*
X133344Y260793D01*
X134656D01*
X135925Y261133D01*
X137062Y261790D01*
X137990Y262718D01*
X138646Y263855D01*
X138986Y265123D01*
Y266436D01*
X138646Y267704D01*
X137990Y268841D01*
X137062Y269770D01*
X135925Y270426D01*
X134656Y270766D01*
D02*
G37*
G36*
X440657Y270766D02*
X439344D01*
X438075Y270426D01*
X436938Y269770D01*
X436010Y268841D01*
X435354Y267704D01*
X435014Y266436D01*
Y265123D01*
X435354Y263855D01*
X436010Y262718D01*
X436938Y261790D01*
X438075Y261133D01*
X439344Y260793D01*
X440657D01*
X441925Y261133D01*
X443062Y261790D01*
X443990Y262718D01*
X444646Y263855D01*
X444986Y265123D01*
Y266436D01*
X444646Y267704D01*
X443990Y268841D01*
X443062Y269770D01*
X441925Y270426D01*
X440657Y270766D01*
D02*
G37*
G36*
X327563Y268778D02*
X326437D01*
X325349Y268486D01*
X324374Y267923D01*
X323577Y267126D01*
X323014Y266151D01*
X322722Y265063D01*
Y263937D01*
X323014Y262849D01*
X323577Y261874D01*
X324374Y261077D01*
X325349Y260514D01*
X326437Y260222D01*
X327563D01*
X328651Y260514D01*
X329626Y261077D01*
X330423Y261874D01*
X330986Y262849D01*
X331278Y263937D01*
Y265063D01*
X330986Y266151D01*
X330423Y267126D01*
X329626Y267923D01*
X328651Y268486D01*
X327563Y268778D01*
D02*
G37*
G36*
X267563D02*
X266437D01*
X265349Y268486D01*
X264373Y267923D01*
X263577Y267126D01*
X263014Y266151D01*
X262722Y265063D01*
Y263937D01*
X263014Y262849D01*
X263577Y261874D01*
X264373Y261077D01*
X265349Y260514D01*
X266437Y260222D01*
X267563D01*
X268651Y260514D01*
X269626Y261077D01*
X270423Y261874D01*
X270986Y262849D01*
X271278Y263937D01*
Y265063D01*
X270986Y266151D01*
X270423Y267126D01*
X269626Y267923D01*
X268651Y268486D01*
X267563Y268778D01*
D02*
G37*
G36*
X298989Y259957D02*
X298011D01*
X297108Y259583D01*
X296417Y258892D01*
X296271Y258537D01*
X295729D01*
X295583Y258892D01*
X294892Y259583D01*
X293989Y259957D01*
X293011D01*
X292108Y259583D01*
X291417Y258892D01*
X291043Y257989D01*
Y257011D01*
X291417Y256108D01*
X292108Y255417D01*
X292463Y255271D01*
Y254729D01*
X292108Y254583D01*
X291417Y253892D01*
X291043Y252989D01*
Y252011D01*
X291417Y251108D01*
X292108Y250417D01*
X292463Y250271D01*
Y249729D01*
X292108Y249583D01*
X291417Y248892D01*
X291043Y247989D01*
Y247011D01*
X291417Y246108D01*
X292108Y245417D01*
X292463Y245271D01*
Y244729D01*
X292108Y244583D01*
X291417Y243892D01*
X291043Y242989D01*
Y242011D01*
X291417Y241108D01*
X292108Y240417D01*
X293011Y240043D01*
X293989D01*
X294892Y240417D01*
X295583Y241108D01*
X295729Y241463D01*
X296271D01*
X296417Y241108D01*
X297108Y240417D01*
X298011Y240043D01*
X298989D01*
X299892Y240417D01*
X300583Y241108D01*
X300957Y242011D01*
Y242989D01*
X300583Y243892D01*
X299892Y244583D01*
X299537Y244729D01*
Y245271D01*
X299892Y245417D01*
X300583Y246108D01*
X300957Y247011D01*
Y247989D01*
X300583Y248892D01*
X299892Y249583D01*
X299537Y249729D01*
Y250271D01*
X299892Y250417D01*
X300583Y251108D01*
X300957Y252011D01*
Y252989D01*
X300583Y253892D01*
X299892Y254583D01*
X299537Y254729D01*
Y255271D01*
X299892Y255417D01*
X300583Y256108D01*
X300957Y257011D01*
Y257989D01*
X300583Y258892D01*
X299892Y259583D01*
X298989Y259957D01*
D02*
G37*
G36*
X281500Y260989D02*
Y258000D01*
X284489D01*
X284261Y258851D01*
X283801Y259649D01*
X283149Y260301D01*
X282351Y260761D01*
X281500Y260989D01*
D02*
G37*
G36*
X280500D02*
X279649Y260761D01*
X278851Y260301D01*
X278199Y259649D01*
X277738Y258851D01*
X277510Y258000D01*
X280500D01*
Y260989D01*
D02*
G37*
G36*
X284489Y257000D02*
X281500D01*
Y254011D01*
X282351Y254239D01*
X283149Y254699D01*
X283801Y255351D01*
X284261Y256149D01*
X284489Y257000D01*
D02*
G37*
G36*
X280500D02*
X277510D01*
X277738Y256149D01*
X278199Y255351D01*
X278851Y254699D01*
X279649Y254239D01*
X280500Y254011D01*
Y257000D01*
D02*
G37*
G36*
X327563Y258778D02*
X326437D01*
X325349Y258486D01*
X324374Y257923D01*
X323577Y257126D01*
X323014Y256151D01*
X322722Y255063D01*
Y253937D01*
X323014Y252849D01*
X323577Y251873D01*
X324374Y251077D01*
X325349Y250514D01*
X326437Y250222D01*
X327563D01*
X328651Y250514D01*
X329626Y251077D01*
X330423Y251873D01*
X330986Y252849D01*
X331278Y253937D01*
Y255063D01*
X330986Y256151D01*
X330423Y257126D01*
X329626Y257923D01*
X328651Y258486D01*
X327563Y258778D01*
D02*
G37*
G36*
X267563D02*
X266437D01*
X265349Y258486D01*
X264373Y257923D01*
X263577Y257126D01*
X263014Y256151D01*
X262722Y255063D01*
Y253937D01*
X263014Y252849D01*
X263577Y251873D01*
X264373Y251077D01*
X265349Y250514D01*
X266437Y250222D01*
X267563D01*
X268651Y250514D01*
X269626Y251077D01*
X270423Y251873D01*
X270986Y252849D01*
X271278Y253937D01*
Y255063D01*
X270986Y256151D01*
X270423Y257126D01*
X269626Y257923D01*
X268651Y258486D01*
X267563Y258778D01*
D02*
G37*
G36*
X440657Y256986D02*
X439344D01*
X438075Y256646D01*
X436938Y255990D01*
X436010Y255062D01*
X435354Y253925D01*
X435014Y252656D01*
Y251344D01*
X435354Y250075D01*
X436010Y248938D01*
X436938Y248010D01*
X438075Y247354D01*
X439344Y247014D01*
X440657D01*
X441925Y247354D01*
X443062Y248010D01*
X443990Y248938D01*
X444646Y250075D01*
X444986Y251344D01*
Y252656D01*
X444646Y253925D01*
X443990Y255062D01*
X443062Y255990D01*
X441925Y256646D01*
X440657Y256986D01*
D02*
G37*
G36*
X138986D02*
X129014D01*
Y247014D01*
X138986D01*
Y256986D01*
D02*
G37*
G36*
X417008Y253311D02*
X416500D01*
Y241000D01*
X428811D01*
Y241508D01*
X428496Y243500D01*
X427872Y245418D01*
X426957Y247214D01*
X425772Y248846D01*
X424346Y250272D01*
X422714Y251457D01*
X420918Y252372D01*
X419000Y252996D01*
X417008Y253311D01*
D02*
G37*
G36*
X415500D02*
X414992D01*
X413000Y252996D01*
X411082Y252372D01*
X409286Y251457D01*
X407654Y250272D01*
X406228Y248846D01*
X405043Y247214D01*
X404128Y245418D01*
X403504Y243500D01*
X403189Y241508D01*
Y241000D01*
X415500D01*
Y253311D01*
D02*
G37*
G36*
X327563Y248778D02*
X326437D01*
X325349Y248486D01*
X324374Y247923D01*
X323577Y247127D01*
X323014Y246151D01*
X322722Y245063D01*
Y243937D01*
X323014Y242849D01*
X323577Y241874D01*
X324374Y241077D01*
X325349Y240514D01*
X326437Y240222D01*
X327563D01*
X328651Y240514D01*
X329626Y241077D01*
X330423Y241874D01*
X330986Y242849D01*
X331278Y243937D01*
Y245063D01*
X330986Y246151D01*
X330423Y247127D01*
X329626Y247923D01*
X328651Y248486D01*
X327563Y248778D01*
D02*
G37*
G36*
X267563D02*
X266437D01*
X265349Y248486D01*
X264373Y247923D01*
X263577Y247127D01*
X263014Y246151D01*
X262722Y245063D01*
Y243937D01*
X263014Y242849D01*
X263577Y241874D01*
X264373Y241077D01*
X265349Y240514D01*
X266437Y240222D01*
X267563D01*
X268651Y240514D01*
X269626Y241077D01*
X270423Y241874D01*
X270986Y242849D01*
X271278Y243937D01*
Y245063D01*
X270986Y246151D01*
X270423Y247127D01*
X269626Y247923D01*
X268651Y248486D01*
X267563Y248778D01*
D02*
G37*
G36*
X162508Y252311D02*
X162000D01*
Y240000D01*
X174311D01*
Y240508D01*
X173996Y242500D01*
X173372Y244418D01*
X172457Y246214D01*
X171272Y247846D01*
X169846Y249272D01*
X168214Y250457D01*
X166418Y251372D01*
X164500Y251996D01*
X162508Y252311D01*
D02*
G37*
G36*
X161000D02*
X160492D01*
X158500Y251996D01*
X156582Y251372D01*
X154786Y250457D01*
X153154Y249272D01*
X151728Y247846D01*
X150543Y246214D01*
X149628Y244418D01*
X149004Y242500D01*
X148689Y240508D01*
Y240000D01*
X161000D01*
Y252311D01*
D02*
G37*
G36*
X428811Y240000D02*
X416500D01*
Y227689D01*
X417008D01*
X419000Y228004D01*
X420918Y228628D01*
X422714Y229543D01*
X424346Y230728D01*
X425772Y232154D01*
X426957Y233786D01*
X427872Y235582D01*
X428496Y237500D01*
X428811Y239492D01*
Y240000D01*
D02*
G37*
G36*
X415500D02*
X403189D01*
Y239492D01*
X403504Y237500D01*
X404128Y235582D01*
X405043Y233786D01*
X406228Y232154D01*
X407654Y230728D01*
X409286Y229543D01*
X411082Y228628D01*
X413000Y228004D01*
X414992Y227689D01*
X415500D01*
Y240000D01*
D02*
G37*
G36*
X174311Y239000D02*
X162000D01*
Y226689D01*
X162508D01*
X164500Y227004D01*
X166418Y227628D01*
X168214Y228543D01*
X169846Y229728D01*
X171272Y231154D01*
X172457Y232786D01*
X173372Y234582D01*
X173996Y236500D01*
X174311Y238492D01*
Y239000D01*
D02*
G37*
G36*
X161000D02*
X148689D01*
Y238492D01*
X149004Y236500D01*
X149628Y234582D01*
X150543Y232786D01*
X151728Y231154D01*
X153154Y229728D01*
X154786Y228543D01*
X156582Y227628D01*
X158500Y227004D01*
X160492Y226689D01*
X161000D01*
Y239000D01*
D02*
G37*
G36*
X276000Y485549D02*
X258500D01*
X257524Y485355D01*
X256698Y484802D01*
X243198Y471302D01*
X242645Y470475D01*
X242451Y469500D01*
Y383049D01*
X212436D01*
X212361Y383179D01*
X211709Y383831D01*
X210911Y384292D01*
X210021Y384530D01*
X209100D01*
X208209Y384292D01*
X207411Y383831D01*
X206760Y383179D01*
X206299Y382381D01*
X206060Y381491D01*
Y380569D01*
X206299Y379679D01*
X206760Y378881D01*
X207411Y378229D01*
X208209Y377769D01*
X209100Y377530D01*
X210021D01*
X210911Y377769D01*
X211298Y377992D01*
X211505Y377951D01*
X242451D01*
Y280549D01*
X218018D01*
X217884Y281049D01*
X218000Y281116D01*
X218652Y281767D01*
X219112Y282565D01*
X219340Y283417D01*
X212362D01*
X212590Y282565D01*
X213050Y281767D01*
X213702Y281116D01*
X213818Y281049D01*
X213684Y280549D01*
X207901D01*
X207649Y280801D01*
X206851Y281261D01*
X205961Y281500D01*
X205039D01*
X204149Y281261D01*
X203351Y280801D01*
X202942Y280392D01*
X202758Y280355D01*
X201931Y279802D01*
X201378Y278976D01*
X201184Y278000D01*
X201378Y277025D01*
X201931Y276198D01*
X202758Y275645D01*
X202942Y275608D01*
X203351Y275199D01*
X204149Y274739D01*
X205039Y274500D01*
X205961D01*
X206851Y274739D01*
X207649Y275199D01*
X207901Y275451D01*
X242451D01*
Y165056D01*
X239442Y162047D01*
X238889Y161220D01*
X238695Y160244D01*
Y146157D01*
X238443Y145905D01*
X237983Y145107D01*
X237744Y144217D01*
Y143295D01*
X237983Y142405D01*
X238443Y141607D01*
X239095Y140955D01*
X239893Y140494D01*
X240783Y140256D01*
X241705D01*
X242595Y140494D01*
X243393Y140955D01*
X244045Y141607D01*
X244506Y142405D01*
X244744Y143295D01*
Y144217D01*
X244506Y145107D01*
X244045Y145905D01*
X243793Y146157D01*
Y159188D01*
X246802Y162198D01*
X247355Y163024D01*
X247549Y164000D01*
Y380500D01*
Y468444D01*
X259556Y480451D01*
X274944D01*
X282698Y472698D01*
X283524Y472145D01*
X284500Y471951D01*
X323532D01*
X323577Y471874D01*
X324374Y471077D01*
X325349Y470514D01*
X326437Y470222D01*
X327563D01*
X328651Y470514D01*
X329431Y470964D01*
X343198Y457198D01*
X344024Y456645D01*
X345000Y456451D01*
X365451D01*
Y427000D01*
X365645Y426024D01*
X366198Y425198D01*
X366451Y424944D01*
Y373021D01*
X366645Y372045D01*
X366951Y371587D01*
Y357401D01*
X366699Y357149D01*
X366238Y356351D01*
X366000Y355461D01*
Y354539D01*
X366238Y353649D01*
X366699Y352851D01*
X366701Y352849D01*
Y231151D01*
X366199Y230649D01*
X365739Y229851D01*
X365500Y228961D01*
Y228039D01*
X365739Y227149D01*
X366199Y226351D01*
X366851Y225699D01*
X367649Y225238D01*
X368539Y225000D01*
X369461D01*
X370351Y225238D01*
X371149Y225699D01*
X371801Y226351D01*
X372262Y227149D01*
X372500Y228039D01*
Y228961D01*
X372262Y229851D01*
X371801Y230649D01*
X371799Y230651D01*
Y352349D01*
X372301Y352851D01*
X372762Y353649D01*
X373000Y354539D01*
Y355461D01*
X372762Y356351D01*
X372301Y357149D01*
X372049Y357401D01*
Y372521D01*
X371855Y373496D01*
X371549Y373954D01*
Y426000D01*
X371355Y426975D01*
X370802Y427802D01*
X370549Y428056D01*
Y456599D01*
X370801Y456851D01*
X371262Y457649D01*
X371500Y458539D01*
Y459461D01*
X371262Y460351D01*
X370801Y461149D01*
X370149Y461801D01*
X369351Y462261D01*
X368461Y462500D01*
X367539D01*
X366649Y462261D01*
X365851Y461801D01*
X365599Y461549D01*
X346056D01*
X331983Y475622D01*
X331156Y476175D01*
X330949Y476216D01*
X330423Y477127D01*
X329626Y477923D01*
X328651Y478486D01*
X327563Y478778D01*
X326437D01*
X325349Y478486D01*
X324374Y477923D01*
X323577Y477127D01*
X323532Y477049D01*
X285556D01*
X277802Y484802D01*
X276975Y485355D01*
X276000Y485549D01*
D02*
G37*
G36*
X444986Y232325D02*
X435014D01*
Y222352D01*
X444986D01*
Y232325D01*
D02*
G37*
G36*
X379838Y224375D02*
Y221385D01*
X382827D01*
X382599Y222236D01*
X382139Y223035D01*
X381487Y223686D01*
X380689Y224147D01*
X379838Y224375D01*
D02*
G37*
G36*
X378838D02*
X377987Y224147D01*
X377189Y223686D01*
X376537Y223035D01*
X376077Y222236D01*
X375849Y221385D01*
X378838D01*
Y224375D01*
D02*
G37*
G36*
X134656Y230986D02*
X133344D01*
X132075Y230646D01*
X130938Y229990D01*
X130010Y229062D01*
X129354Y227925D01*
X129014Y226656D01*
Y225344D01*
X129354Y224075D01*
X130010Y222938D01*
X130938Y222010D01*
X132075Y221354D01*
X133344Y221014D01*
X134656D01*
X135925Y221354D01*
X137062Y222010D01*
X137990Y222938D01*
X138646Y224075D01*
X138986Y225344D01*
Y226656D01*
X138646Y227925D01*
X137990Y229062D01*
X137062Y229990D01*
X135925Y230646D01*
X134656Y230986D01*
D02*
G37*
G36*
X382827Y220385D02*
X379838D01*
Y217396D01*
X380689Y217624D01*
X381487Y218085D01*
X382139Y218736D01*
X382599Y219534D01*
X382827Y220385D01*
D02*
G37*
G36*
X378838D02*
X375849D01*
X376077Y219534D01*
X376537Y218736D01*
X377189Y218085D01*
X377987Y217624D01*
X378838Y217396D01*
Y220385D01*
D02*
G37*
G36*
X217000Y213989D02*
Y211000D01*
X219989D01*
X219761Y211851D01*
X219301Y212649D01*
X218649Y213301D01*
X217851Y213761D01*
X217000Y213989D01*
D02*
G37*
G36*
X216000D02*
X215149Y213761D01*
X214351Y213301D01*
X213699Y212649D01*
X213239Y211851D01*
X213011Y211000D01*
X216000D01*
Y213989D01*
D02*
G37*
G36*
X440657Y218545D02*
X439344D01*
X438075Y218205D01*
X436938Y217549D01*
X436010Y216621D01*
X435354Y215484D01*
X435014Y214215D01*
Y212903D01*
X435354Y211634D01*
X436010Y210497D01*
X436938Y209569D01*
X438075Y208913D01*
X439344Y208573D01*
X440657D01*
X441925Y208913D01*
X443062Y209569D01*
X443990Y210497D01*
X444646Y211634D01*
X444986Y212903D01*
Y214215D01*
X444646Y215484D01*
X443990Y216621D01*
X443062Y217549D01*
X441925Y218205D01*
X440657Y218545D01*
D02*
G37*
G36*
X134656Y217207D02*
X133344D01*
X132075Y216867D01*
X130938Y216210D01*
X130010Y215282D01*
X129354Y214145D01*
X129014Y212877D01*
Y211564D01*
X129354Y210296D01*
X130010Y209159D01*
X130938Y208230D01*
X132075Y207574D01*
X133344Y207234D01*
X134656D01*
X135925Y207574D01*
X137062Y208230D01*
X137990Y209159D01*
X138646Y210296D01*
X138986Y211564D01*
Y212877D01*
X138646Y214145D01*
X137990Y215282D01*
X137062Y216210D01*
X135925Y216867D01*
X134656Y217207D01*
D02*
G37*
G36*
X219989Y210000D02*
X217000D01*
Y207011D01*
X217851Y207239D01*
X218649Y207699D01*
X219301Y208351D01*
X219761Y209149D01*
X219989Y210000D01*
D02*
G37*
G36*
X216000D02*
X213011D01*
X213239Y209149D01*
X213699Y208351D01*
X214351Y207699D01*
X215149Y207239D01*
X216000Y207011D01*
Y210000D01*
D02*
G37*
G36*
X383500Y209489D02*
Y206500D01*
X386490D01*
X386262Y207351D01*
X385801Y208149D01*
X385149Y208801D01*
X384351Y209261D01*
X383500Y209489D01*
D02*
G37*
G36*
X382500D02*
X381649Y209261D01*
X380851Y208801D01*
X380199Y208149D01*
X379738Y207351D01*
X379510Y206500D01*
X382500D01*
Y209489D01*
D02*
G37*
G36*
X386490Y205500D02*
X383500D01*
Y202510D01*
X384351Y202738D01*
X385149Y203199D01*
X385801Y203851D01*
X386262Y204649D01*
X386490Y205500D01*
D02*
G37*
G36*
X382500D02*
X379510D01*
X379738Y204649D01*
X380199Y203851D01*
X380851Y203199D01*
X381649Y202738D01*
X382500Y202510D01*
Y205500D01*
D02*
G37*
G36*
X440657Y204766D02*
X439344D01*
X438075Y204426D01*
X436938Y203769D01*
X436010Y202841D01*
X435354Y201704D01*
X435014Y200436D01*
Y199123D01*
X435354Y197855D01*
X436010Y196718D01*
X436938Y195790D01*
X438075Y195133D01*
X439344Y194793D01*
X440657D01*
X441925Y195133D01*
X443062Y195790D01*
X443990Y196718D01*
X444646Y197855D01*
X444986Y199123D01*
Y200436D01*
X444646Y201704D01*
X443990Y202841D01*
X443062Y203769D01*
X441925Y204426D01*
X440657Y204766D01*
D02*
G37*
G36*
X134656Y203427D02*
X133344D01*
X132075Y203087D01*
X130938Y202431D01*
X130010Y201503D01*
X129354Y200366D01*
X129014Y199097D01*
Y197784D01*
X129354Y196516D01*
X130010Y195379D01*
X130938Y194451D01*
X132075Y193795D01*
X133344Y193455D01*
X134656D01*
X135925Y193795D01*
X137062Y194451D01*
X137990Y195379D01*
X138646Y196516D01*
X138986Y197784D01*
Y199097D01*
X138646Y200366D01*
X137990Y201503D01*
X137062Y202431D01*
X135925Y203087D01*
X134656Y203427D01*
D02*
G37*
G36*
X440657Y190986D02*
X439344D01*
X438075Y190646D01*
X436938Y189990D01*
X436010Y189062D01*
X435354Y187925D01*
X435014Y186656D01*
Y185344D01*
X435354Y184075D01*
X436010Y182938D01*
X436938Y182010D01*
X438075Y181354D01*
X439344Y181014D01*
X440657D01*
X441925Y181354D01*
X443062Y182010D01*
X443990Y182938D01*
X444646Y184075D01*
X444986Y185344D01*
Y186656D01*
X444646Y187925D01*
X443990Y189062D01*
X443062Y189990D01*
X441925Y190646D01*
X440657Y190986D01*
D02*
G37*
G36*
X134656Y189648D02*
X133344D01*
X132075Y189308D01*
X130938Y188651D01*
X130010Y187723D01*
X129354Y186586D01*
X129014Y185318D01*
Y184005D01*
X129354Y182737D01*
X130010Y181600D01*
X130938Y180672D01*
X132075Y180015D01*
X133344Y179675D01*
X134656D01*
X135925Y180015D01*
X137062Y180672D01*
X137990Y181600D01*
X138646Y182737D01*
X138986Y184005D01*
Y185318D01*
X138646Y186586D01*
X137990Y187723D01*
X137062Y188651D01*
X135925Y189308D01*
X134656Y189648D01*
D02*
G37*
G36*
X197500Y174745D02*
Y171756D01*
X200489D01*
X200261Y172607D01*
X199801Y173405D01*
X199149Y174057D01*
X198351Y174517D01*
X197500Y174745D01*
D02*
G37*
G36*
X196500D02*
X195649Y174517D01*
X194851Y174057D01*
X194199Y173405D01*
X193738Y172607D01*
X193510Y171756D01*
X196500D01*
Y174745D01*
D02*
G37*
G36*
X200489Y170756D02*
X197500D01*
Y167766D01*
X198351Y167994D01*
X199149Y168455D01*
X199801Y169107D01*
X200261Y169905D01*
X200489Y170756D01*
D02*
G37*
G36*
X196500D02*
X193510D01*
X193738Y169905D01*
X194199Y169107D01*
X194851Y168455D01*
X195649Y167994D01*
X196500Y167766D01*
Y170756D01*
D02*
G37*
G36*
X440657Y177207D02*
X439344D01*
X438075Y176867D01*
X436938Y176210D01*
X436010Y175282D01*
X435354Y174145D01*
X435014Y172877D01*
Y171564D01*
X435354Y170296D01*
X436010Y169159D01*
X436938Y168230D01*
X438075Y167574D01*
X439344Y167234D01*
X440657D01*
X441925Y167574D01*
X443062Y168230D01*
X443990Y169159D01*
X444646Y170296D01*
X444986Y171564D01*
Y172877D01*
X444646Y174145D01*
X443990Y175282D01*
X443062Y176210D01*
X441925Y176867D01*
X440657Y177207D01*
D02*
G37*
G36*
X366000Y169490D02*
Y166500D01*
X368989D01*
X368761Y167351D01*
X368301Y168149D01*
X367649Y168801D01*
X366851Y169262D01*
X366000Y169490D01*
D02*
G37*
G36*
X365000D02*
X364149Y169262D01*
X363351Y168801D01*
X362699Y168149D01*
X362239Y167351D01*
X362011Y166500D01*
X365000D01*
Y169490D01*
D02*
G37*
G36*
X134656Y175868D02*
X133344D01*
X132075Y175528D01*
X130938Y174872D01*
X130010Y173943D01*
X129354Y172807D01*
X129014Y171538D01*
Y170225D01*
X129354Y168957D01*
X130010Y167820D01*
X130938Y166892D01*
X132075Y166235D01*
X133344Y165896D01*
X134656D01*
X135925Y166235D01*
X137062Y166892D01*
X137990Y167820D01*
X138646Y168957D01*
X138986Y170225D01*
Y171538D01*
X138646Y172807D01*
X137990Y173943D01*
X137062Y174872D01*
X135925Y175528D01*
X134656Y175868D01*
D02*
G37*
G36*
X368989Y165500D02*
X366000D01*
Y162511D01*
X366851Y162739D01*
X367649Y163199D01*
X368301Y163851D01*
X368761Y164649D01*
X368989Y165500D01*
D02*
G37*
G36*
X365000D02*
X362011D01*
X362239Y164649D01*
X362699Y163851D01*
X363351Y163199D01*
X364149Y162739D01*
X365000Y162511D01*
Y165500D01*
D02*
G37*
G36*
X195412Y161867D02*
Y158878D01*
X198402D01*
X198174Y159729D01*
X197713Y160527D01*
X197061Y161178D01*
X196263Y161639D01*
X195412Y161867D01*
D02*
G37*
G36*
X194412D02*
X193561Y161639D01*
X192763Y161178D01*
X192112Y160527D01*
X191651Y159729D01*
X191423Y158878D01*
X194412D01*
Y161867D01*
D02*
G37*
G36*
X198402Y157878D02*
X195412D01*
Y154888D01*
X196263Y155116D01*
X197061Y155577D01*
X197713Y156229D01*
X198174Y157027D01*
X198402Y157878D01*
D02*
G37*
G36*
X194412D02*
X191423D01*
X191651Y157027D01*
X192112Y156229D01*
X192763Y155577D01*
X193561Y155116D01*
X194412Y154888D01*
Y157878D01*
D02*
G37*
G36*
X440657Y163427D02*
X439344D01*
X438075Y163087D01*
X436938Y162431D01*
X436010Y161503D01*
X435354Y160366D01*
X435014Y159097D01*
Y157784D01*
X435354Y156516D01*
X436010Y155379D01*
X436938Y154451D01*
X438075Y153795D01*
X439344Y153455D01*
X440657D01*
X441925Y153795D01*
X443062Y154451D01*
X443990Y155379D01*
X444646Y156516D01*
X444986Y157784D01*
Y159097D01*
X444646Y160366D01*
X443990Y161503D01*
X443062Y162431D01*
X441925Y163087D01*
X440657Y163427D01*
D02*
G37*
G36*
X337221Y162267D02*
X258481D01*
X258090Y162190D01*
X257760Y161969D01*
X257539Y161638D01*
X257461Y161248D01*
Y153374D01*
X257539Y152983D01*
X257760Y152653D01*
X258090Y152432D01*
X258481Y152354D01*
X337221D01*
X337611Y152432D01*
X337942Y152653D01*
X338163Y152983D01*
X338240Y153374D01*
Y161248D01*
X338163Y161638D01*
X337942Y161969D01*
X337611Y162190D01*
X337221Y162267D01*
D02*
G37*
G36*
X134656Y162089D02*
X133344D01*
X132075Y161749D01*
X130938Y161092D01*
X130010Y160164D01*
X129354Y159027D01*
X129014Y157759D01*
Y156446D01*
X129354Y155178D01*
X130010Y154041D01*
X130938Y153112D01*
X132075Y152456D01*
X133344Y152116D01*
X134656D01*
X135925Y152456D01*
X137062Y153112D01*
X137990Y154041D01*
X138646Y155178D01*
X138986Y156446D01*
Y157759D01*
X138646Y159027D01*
X137990Y160164D01*
X137062Y161092D01*
X135925Y161749D01*
X134656Y162089D01*
D02*
G37*
G36*
X440657Y149648D02*
X439344D01*
X438075Y149308D01*
X436938Y148651D01*
X436010Y147723D01*
X435354Y146586D01*
X435014Y145318D01*
Y144005D01*
X435354Y142737D01*
X436010Y141600D01*
X436938Y140671D01*
X438075Y140015D01*
X439344Y139675D01*
X440657D01*
X441925Y140015D01*
X443062Y140671D01*
X443990Y141600D01*
X444646Y142737D01*
X444986Y144005D01*
Y145318D01*
X444646Y146586D01*
X443990Y147723D01*
X443062Y148651D01*
X441925Y149308D01*
X440657Y149648D01*
D02*
G37*
G36*
X134656Y148309D02*
X133344D01*
X132075Y147969D01*
X130938Y147313D01*
X130010Y146384D01*
X129354Y145247D01*
X129014Y143979D01*
Y142666D01*
X129354Y141398D01*
X130010Y140261D01*
X130938Y139333D01*
X132075Y138676D01*
X133344Y138337D01*
X134656D01*
X135925Y138676D01*
X137062Y139333D01*
X137990Y140261D01*
X138646Y141398D01*
X138986Y142666D01*
Y143979D01*
X138646Y145247D01*
X137990Y146384D01*
X137062Y147313D01*
X135925Y147969D01*
X134656Y148309D01*
D02*
G37*
G36*
X350001Y139805D02*
X348999D01*
X348031Y139546D01*
X347164Y139045D01*
X346455Y138336D01*
X345954Y137469D01*
X345695Y136501D01*
Y135499D01*
X345954Y134531D01*
X346455Y133664D01*
X347164Y132955D01*
X348031Y132454D01*
X348999Y132195D01*
X350001D01*
X350969Y132454D01*
X351836Y132955D01*
X352545Y133664D01*
X353046Y134531D01*
X353305Y135499D01*
Y136501D01*
X353046Y137469D01*
X352545Y138336D01*
X351836Y139045D01*
X350969Y139546D01*
X350001Y139805D01*
D02*
G37*
G36*
X340001D02*
X338999D01*
X338031Y139546D01*
X337164Y139045D01*
X336455Y138336D01*
X335954Y137469D01*
X335695Y136501D01*
Y135499D01*
X335954Y134531D01*
X336455Y133664D01*
X337164Y132955D01*
X338031Y132454D01*
X338999Y132195D01*
X340001D01*
X340969Y132454D01*
X341836Y132955D01*
X342545Y133664D01*
X343046Y134531D01*
X343305Y135499D01*
Y136501D01*
X343046Y137469D01*
X342545Y138336D01*
X341836Y139045D01*
X340969Y139546D01*
X340001Y139805D01*
D02*
G37*
G36*
X330001D02*
X328999D01*
X328031Y139546D01*
X327164Y139045D01*
X326455Y138336D01*
X325954Y137469D01*
X325695Y136501D01*
Y135499D01*
X325954Y134531D01*
X326455Y133664D01*
X327164Y132955D01*
X328031Y132454D01*
X328999Y132195D01*
X330001D01*
X330969Y132454D01*
X331836Y132955D01*
X332545Y133664D01*
X333046Y134531D01*
X333305Y135499D01*
Y136501D01*
X333046Y137469D01*
X332545Y138336D01*
X331836Y139045D01*
X330969Y139546D01*
X330001Y139805D01*
D02*
G37*
G36*
X320001D02*
X318999D01*
X318031Y139546D01*
X317164Y139045D01*
X316455Y138336D01*
X315954Y137469D01*
X315695Y136501D01*
Y135499D01*
X315954Y134531D01*
X316455Y133664D01*
X317164Y132955D01*
X318031Y132454D01*
X318999Y132195D01*
X320001D01*
X320969Y132454D01*
X321836Y132955D01*
X322545Y133664D01*
X323046Y134531D01*
X323305Y135499D01*
Y136501D01*
X323046Y137469D01*
X322545Y138336D01*
X321836Y139045D01*
X320969Y139546D01*
X320001Y139805D01*
D02*
G37*
G36*
X310001D02*
X308999D01*
X308031Y139546D01*
X307164Y139045D01*
X306455Y138336D01*
X305954Y137469D01*
X305695Y136501D01*
Y135499D01*
X305954Y134531D01*
X306455Y133664D01*
X307164Y132955D01*
X308031Y132454D01*
X308999Y132195D01*
X310001D01*
X310969Y132454D01*
X311836Y132955D01*
X312545Y133664D01*
X313046Y134531D01*
X313305Y135499D01*
Y136501D01*
X313046Y137469D01*
X312545Y138336D01*
X311836Y139045D01*
X310969Y139546D01*
X310001Y139805D01*
D02*
G37*
G36*
X300001D02*
X298999D01*
X298031Y139546D01*
X297164Y139045D01*
X296455Y138336D01*
X295954Y137469D01*
X295695Y136501D01*
Y135499D01*
X295954Y134531D01*
X296455Y133664D01*
X297164Y132955D01*
X298031Y132454D01*
X298999Y132195D01*
X300001D01*
X300969Y132454D01*
X301836Y132955D01*
X302545Y133664D01*
X303046Y134531D01*
X303305Y135499D01*
Y136501D01*
X303046Y137469D01*
X302545Y138336D01*
X301836Y139045D01*
X300969Y139546D01*
X300001Y139805D01*
D02*
G37*
G36*
X290001D02*
X288999D01*
X288031Y139546D01*
X287164Y139045D01*
X286455Y138336D01*
X285954Y137469D01*
X285695Y136501D01*
Y135499D01*
X285954Y134531D01*
X286455Y133664D01*
X287164Y132955D01*
X288031Y132454D01*
X288999Y132195D01*
X290001D01*
X290969Y132454D01*
X291836Y132955D01*
X292545Y133664D01*
X293046Y134531D01*
X293305Y135499D01*
Y136501D01*
X293046Y137469D01*
X292545Y138336D01*
X291836Y139045D01*
X290969Y139546D01*
X290001Y139805D01*
D02*
G37*
G36*
X283305D02*
X275695D01*
Y132195D01*
X283305D01*
Y139805D01*
D02*
G37*
G36*
X253000Y131490D02*
Y128500D01*
X255990D01*
X255762Y129351D01*
X255301Y130149D01*
X254649Y130801D01*
X253851Y131262D01*
X253000Y131490D01*
D02*
G37*
G36*
X252000D02*
X251149Y131262D01*
X250351Y130801D01*
X249699Y130149D01*
X249238Y129351D01*
X249010Y128500D01*
X252000D01*
Y131490D01*
D02*
G37*
G36*
X231500D02*
Y128500D01*
X234489D01*
X234261Y129351D01*
X233801Y130149D01*
X233149Y130801D01*
X232351Y131262D01*
X231500Y131490D01*
D02*
G37*
G36*
X230500D02*
X229649Y131262D01*
X228851Y130801D01*
X228199Y130149D01*
X227738Y129351D01*
X227510Y128500D01*
X230500D01*
Y131490D01*
D02*
G37*
G36*
X440657Y135868D02*
X439344D01*
X438075Y135528D01*
X436938Y134872D01*
X436010Y133943D01*
X435354Y132807D01*
X435014Y131538D01*
Y130225D01*
X435354Y128957D01*
X436010Y127820D01*
X436938Y126892D01*
X438075Y126235D01*
X439344Y125896D01*
X440657D01*
X441925Y126235D01*
X443062Y126892D01*
X443990Y127820D01*
X444646Y128957D01*
X444986Y130225D01*
Y131538D01*
X444646Y132807D01*
X443990Y133943D01*
X443062Y134872D01*
X441925Y135528D01*
X440657Y135868D01*
D02*
G37*
G36*
X138986Y134529D02*
X129014D01*
Y124557D01*
X138986D01*
Y134529D01*
D02*
G37*
G36*
X255990Y127500D02*
X253000D01*
Y124511D01*
X253851Y124739D01*
X254649Y125199D01*
X255301Y125851D01*
X255762Y126649D01*
X255990Y127500D01*
D02*
G37*
G36*
X252000D02*
X249010D01*
X249238Y126649D01*
X249699Y125851D01*
X250351Y125199D01*
X251149Y124739D01*
X252000Y124511D01*
Y127500D01*
D02*
G37*
G36*
X234489D02*
X231500D01*
Y124511D01*
X232351Y124739D01*
X233149Y125199D01*
X233801Y125851D01*
X234261Y126649D01*
X234489Y127500D01*
D02*
G37*
G36*
X230500D02*
X227510D01*
X227738Y126649D01*
X228199Y125851D01*
X228851Y125199D01*
X229649Y124739D01*
X230500Y124511D01*
Y127500D01*
D02*
G37*
G36*
X181377Y127986D02*
X181220D01*
Y123500D01*
X185707D01*
Y123656D01*
X185367Y124925D01*
X184710Y126062D01*
X183782Y126990D01*
X182645Y127646D01*
X181377Y127986D01*
D02*
G37*
G36*
X180220D02*
X180064D01*
X178796Y127646D01*
X177659Y126990D01*
X176731Y126062D01*
X176074Y124925D01*
X175734Y123656D01*
Y123500D01*
X180220D01*
Y127986D01*
D02*
G37*
G36*
X382884Y127486D02*
X378398D01*
Y123000D01*
X382884D01*
Y127486D01*
D02*
G37*
G36*
X377398D02*
X372911D01*
Y123000D01*
X377398D01*
Y127486D01*
D02*
G37*
G36*
X235961Y122193D02*
X235777D01*
X234456Y121839D01*
X233272Y121155D01*
X232305Y120188D01*
X232114Y119858D01*
X231614Y119992D01*
Y122193D01*
X221228D01*
Y111807D01*
X231614D01*
Y114008D01*
X232114Y114143D01*
X232305Y113812D01*
X233272Y112845D01*
X234456Y112161D01*
X235777Y111807D01*
X235961D01*
Y117000D01*
Y122193D01*
D02*
G37*
G36*
X247184D02*
X245816D01*
X244496Y121839D01*
X243312Y121155D01*
X242345Y120188D01*
X241756Y119169D01*
X241709Y119152D01*
X241251D01*
X241205Y119169D01*
X240616Y120188D01*
X239649Y121155D01*
X238465Y121839D01*
X237144Y122193D01*
X236961D01*
Y117000D01*
Y111807D01*
X237144D01*
X238465Y112161D01*
X239649Y112845D01*
X240616Y113812D01*
X241205Y114831D01*
X241251Y114848D01*
X241709D01*
X241756Y114831D01*
X242345Y113812D01*
X243312Y112845D01*
X244496Y112161D01*
X245816Y111807D01*
X247184D01*
X248504Y112161D01*
X249689Y112845D01*
X250655Y113812D01*
X251339Y114996D01*
X251693Y116316D01*
Y117684D01*
X251339Y119004D01*
X250655Y120188D01*
X249689Y121155D01*
X248504Y121839D01*
X247184Y122193D01*
D02*
G37*
G36*
X199486Y127986D02*
X189514D01*
Y118014D01*
X199486D01*
Y127986D01*
D02*
G37*
G36*
X185707Y122500D02*
X181220D01*
Y118014D01*
X181377D01*
X182645Y118354D01*
X183782Y119010D01*
X184710Y119938D01*
X185367Y121075D01*
X185707Y122344D01*
Y122500D01*
D02*
G37*
G36*
X180220D02*
X175734D01*
Y122344D01*
X176074Y121075D01*
X176731Y119938D01*
X177659Y119010D01*
X178796Y118354D01*
X180064Y118014D01*
X180220D01*
Y122500D01*
D02*
G37*
G36*
X407508Y130311D02*
X407000D01*
Y118000D01*
X419311D01*
Y118508D01*
X418996Y120500D01*
X418372Y122418D01*
X417457Y124214D01*
X416272Y125846D01*
X414846Y127272D01*
X413214Y128457D01*
X411418Y129372D01*
X409500Y129996D01*
X407508Y130311D01*
D02*
G37*
G36*
X406000D02*
X405492D01*
X403500Y129996D01*
X401582Y129372D01*
X399786Y128457D01*
X398154Y127272D01*
X396728Y125846D01*
X395543Y124214D01*
X394628Y122418D01*
X394004Y120500D01*
X393689Y118508D01*
Y118000D01*
X406000D01*
Y130311D01*
D02*
G37*
G36*
X382884Y122000D02*
X378398D01*
Y117514D01*
X382884D01*
Y122000D01*
D02*
G37*
G36*
X377398D02*
X372911D01*
Y117514D01*
X377398D01*
Y122000D01*
D02*
G37*
G36*
X350995Y127486D02*
X349682D01*
X348414Y127146D01*
X347277Y126490D01*
X346349Y125562D01*
X345692Y124425D01*
X345352Y123156D01*
Y121844D01*
X345692Y120575D01*
X346349Y119438D01*
X347277Y118510D01*
X348414Y117854D01*
X349682Y117514D01*
X350995D01*
X352263Y117854D01*
X353400Y118510D01*
X354328Y119438D01*
X354985Y120575D01*
X355325Y121844D01*
Y123156D01*
X354985Y124425D01*
X354328Y125562D01*
X353400Y126490D01*
X352263Y127146D01*
X350995Y127486D01*
D02*
G37*
G36*
X337215D02*
X335903D01*
X334634Y127146D01*
X333497Y126490D01*
X332569Y125562D01*
X331913Y124425D01*
X331573Y123156D01*
Y121844D01*
X331913Y120575D01*
X332569Y119438D01*
X333497Y118510D01*
X334634Y117854D01*
X335903Y117514D01*
X337215D01*
X338484Y117854D01*
X339621Y118510D01*
X340549Y119438D01*
X341206Y120575D01*
X341545Y121844D01*
Y123156D01*
X341206Y124425D01*
X340549Y125562D01*
X339621Y126490D01*
X338484Y127146D01*
X337215Y127486D01*
D02*
G37*
G36*
X323436D02*
X322123D01*
X320855Y127146D01*
X319718Y126490D01*
X318790Y125562D01*
X318133Y124425D01*
X317793Y123156D01*
Y121844D01*
X318133Y120575D01*
X318790Y119438D01*
X319718Y118510D01*
X320855Y117854D01*
X322123Y117514D01*
X323436D01*
X324704Y117854D01*
X325841Y118510D01*
X326769Y119438D01*
X327426Y120575D01*
X327766Y121844D01*
Y123156D01*
X327426Y124425D01*
X326769Y125562D01*
X325841Y126490D01*
X324704Y127146D01*
X323436Y127486D01*
D02*
G37*
G36*
X309656D02*
X308344D01*
X307075Y127146D01*
X305938Y126490D01*
X305010Y125562D01*
X304354Y124425D01*
X304014Y123156D01*
Y121844D01*
X304354Y120575D01*
X305010Y119438D01*
X305938Y118510D01*
X307075Y117854D01*
X308344Y117514D01*
X309656D01*
X310925Y117854D01*
X312062Y118510D01*
X312990Y119438D01*
X313646Y120575D01*
X313986Y121844D01*
Y123156D01*
X313646Y124425D01*
X312990Y125562D01*
X312062Y126490D01*
X310925Y127146D01*
X309656Y127486D01*
D02*
G37*
G36*
X295877D02*
X294564D01*
X293296Y127146D01*
X292159Y126490D01*
X291231Y125562D01*
X290574Y124425D01*
X290234Y123156D01*
Y121844D01*
X290574Y120575D01*
X291231Y119438D01*
X292159Y118510D01*
X293296Y117854D01*
X294564Y117514D01*
X295877D01*
X297145Y117854D01*
X298282Y118510D01*
X299210Y119438D01*
X299867Y120575D01*
X300207Y121844D01*
Y123156D01*
X299867Y124425D01*
X299210Y125562D01*
X298282Y126490D01*
X297145Y127146D01*
X295877Y127486D01*
D02*
G37*
G36*
X282097D02*
X280785D01*
X279516Y127146D01*
X278379Y126490D01*
X277451Y125562D01*
X276795Y124425D01*
X276455Y123156D01*
Y121844D01*
X276795Y120575D01*
X277451Y119438D01*
X278379Y118510D01*
X279516Y117854D01*
X280785Y117514D01*
X282097D01*
X283366Y117854D01*
X284503Y118510D01*
X285431Y119438D01*
X286087Y120575D01*
X286427Y121844D01*
Y123156D01*
X286087Y124425D01*
X285431Y125562D01*
X284503Y126490D01*
X283366Y127146D01*
X282097Y127486D01*
D02*
G37*
G36*
X459008Y120811D02*
X458500D01*
Y108500D01*
X470811D01*
Y109008D01*
X470496Y111000D01*
X469872Y112918D01*
X468957Y114714D01*
X467772Y116346D01*
X466346Y117772D01*
X464714Y118957D01*
X462918Y119872D01*
X461000Y120496D01*
X459008Y120811D01*
D02*
G37*
G36*
X457500D02*
X456992D01*
X455000Y120496D01*
X453082Y119872D01*
X451286Y118957D01*
X449654Y117772D01*
X448228Y116346D01*
X447043Y114714D01*
X446128Y112918D01*
X445504Y111000D01*
X445189Y109008D01*
Y108500D01*
X457500D01*
Y120811D01*
D02*
G37*
G36*
X114508D02*
X114000D01*
Y108500D01*
X126311D01*
Y109008D01*
X125996Y111000D01*
X125372Y112918D01*
X124457Y114714D01*
X123272Y116346D01*
X121846Y117772D01*
X120214Y118957D01*
X118418Y119872D01*
X116500Y120496D01*
X114508Y120811D01*
D02*
G37*
G36*
X113000D02*
X112492D01*
X110500Y120496D01*
X108582Y119872D01*
X106786Y118957D01*
X105154Y117772D01*
X103728Y116346D01*
X102543Y114714D01*
X101628Y112918D01*
X101004Y111000D01*
X100689Y109008D01*
Y108500D01*
X113000D01*
Y120811D01*
D02*
G37*
G36*
X419311Y117000D02*
X407000D01*
Y104689D01*
X407508D01*
X409500Y105004D01*
X411418Y105628D01*
X413214Y106543D01*
X414846Y107728D01*
X416272Y109154D01*
X417457Y110786D01*
X418372Y112582D01*
X418996Y114500D01*
X419311Y116492D01*
Y117000D01*
D02*
G37*
G36*
X406000D02*
X393689D01*
Y116492D01*
X394004Y114500D01*
X394628Y112582D01*
X395543Y110786D01*
X396728Y109154D01*
X398154Y107728D01*
X399786Y106543D01*
X401582Y105628D01*
X403500Y105004D01*
X405492Y104689D01*
X406000D01*
Y117000D01*
D02*
G37*
%LPD*%
D14*
X363898Y122721D02*
X364118Y122500D01*
X363898Y122721D02*
Y151102D01*
X317000Y304000D02*
X321722Y299278D01*
X331722D01*
X317000Y334500D02*
Y447414D01*
Y304000D02*
Y334500D01*
X267000D02*
X317000D01*
X326079Y453579D02*
X327000Y454500D01*
X317586Y448000D02*
X323165Y453579D01*
X317586Y448000D02*
X317586D01*
X323165Y453579D02*
X326079D01*
X317000Y447414D02*
X317586Y448000D01*
X338000Y177000D02*
Y293000D01*
X331722Y299278D02*
X338000Y293000D01*
Y177000D02*
X363898Y151102D01*
D36*
X345000Y459000D02*
X368000D01*
X327000Y474500D02*
X327680Y473820D01*
X330180D01*
X345000Y459000D01*
X284500Y474500D02*
X327000D01*
X205500Y278000D02*
X244015D01*
X203733D02*
X205500D01*
X245000Y164000D02*
Y380500D01*
X209650Y380647D02*
X211357D01*
X211505Y380500D01*
X245000D02*
Y469500D01*
X211505Y380500D02*
X245000D01*
X258500Y483000D02*
X276000D01*
X245000Y469500D02*
X258500Y483000D01*
X368000Y427000D02*
X369000Y426000D01*
Y373021D02*
Y426000D01*
X368000Y427000D02*
Y459000D01*
X369000Y373021D02*
X369500Y372521D01*
X369000Y228500D02*
X369250Y228750D01*
Y354750D01*
X369500Y355000D01*
Y372521D01*
X241244Y143756D02*
Y160244D01*
X245000Y164000D01*
X276000Y483000D02*
X284500Y474500D01*
D38*
X168941Y476000D02*
D03*
X376220Y477000D02*
D03*
X194500Y123000D02*
D03*
X377898Y122500D02*
D03*
D39*
X182720Y476000D02*
D03*
X196500D02*
D03*
X210279D02*
D03*
X390000Y477000D02*
D03*
X403780D02*
D03*
X417559D02*
D03*
X134000Y348457D02*
D03*
Y334677D02*
D03*
Y320898D02*
D03*
Y307118D02*
D03*
Y293339D02*
D03*
Y279559D02*
D03*
Y265779D02*
D03*
X180720Y123000D02*
D03*
X364118Y122500D02*
D03*
X350339D02*
D03*
X336559D02*
D03*
X322779D02*
D03*
X309000D02*
D03*
X295220D02*
D03*
X281441D02*
D03*
X440000Y455898D02*
D03*
Y442118D02*
D03*
Y428339D02*
D03*
Y414559D02*
D03*
Y400779D02*
D03*
Y387000D02*
D03*
Y373220D02*
D03*
X134000Y386779D02*
D03*
Y400559D02*
D03*
Y414339D02*
D03*
Y428118D02*
D03*
Y441898D02*
D03*
Y455677D02*
D03*
Y469457D02*
D03*
Y143323D02*
D03*
Y157102D02*
D03*
Y170882D02*
D03*
Y184661D02*
D03*
Y198441D02*
D03*
Y212221D02*
D03*
Y226000D02*
D03*
X440000Y334677D02*
D03*
Y320898D02*
D03*
Y307118D02*
D03*
Y293339D02*
D03*
Y279559D02*
D03*
Y265779D02*
D03*
Y252000D02*
D03*
Y213559D02*
D03*
Y199779D02*
D03*
Y186000D02*
D03*
Y172221D02*
D03*
Y158441D02*
D03*
Y144661D02*
D03*
Y130882D02*
D03*
D40*
X134000Y252000D02*
D03*
X440000Y469677D02*
D03*
X134000Y373000D02*
D03*
Y129543D02*
D03*
X440000Y348457D02*
D03*
Y227339D02*
D03*
D41*
X279500Y136000D02*
D03*
D42*
X289500D02*
D03*
X299500D02*
D03*
X309500D02*
D03*
X319500D02*
D03*
X329500D02*
D03*
X339500D02*
D03*
X349500D02*
D03*
D43*
X226421Y117000D02*
D03*
D44*
X236461D02*
D03*
X246500D02*
D03*
D45*
X267000Y454500D02*
D03*
Y444500D02*
D03*
Y434500D02*
D03*
Y424500D02*
D03*
Y414500D02*
D03*
Y404500D02*
D03*
Y394500D02*
D03*
Y384500D02*
D03*
Y374500D02*
D03*
Y364500D02*
D03*
Y354500D02*
D03*
Y344500D02*
D03*
X327000D02*
D03*
Y354500D02*
D03*
Y364500D02*
D03*
Y374500D02*
D03*
Y384500D02*
D03*
Y394500D02*
D03*
Y404500D02*
D03*
Y414500D02*
D03*
Y424500D02*
D03*
Y434500D02*
D03*
Y444500D02*
D03*
X267000Y324500D02*
D03*
Y314500D02*
D03*
Y304500D02*
D03*
Y294500D02*
D03*
Y284500D02*
D03*
Y274500D02*
D03*
Y264500D02*
D03*
Y254500D02*
D03*
Y244500D02*
D03*
X327000D02*
D03*
Y254500D02*
D03*
Y264500D02*
D03*
Y274500D02*
D03*
Y284500D02*
D03*
Y294500D02*
D03*
Y304500D02*
D03*
Y314500D02*
D03*
Y324500D02*
D03*
X267000Y334500D02*
D03*
X277000Y294500D02*
D03*
X287000D02*
D03*
X297000D02*
D03*
X307000D02*
D03*
X317000D02*
D03*
X279008Y409500D02*
D03*
Y419500D02*
D03*
Y429500D02*
D03*
Y439500D02*
D03*
Y449500D02*
D03*
X327000Y454500D02*
D03*
Y474500D02*
D03*
X267000Y464500D02*
D03*
X317000D02*
D03*
X327000Y334500D02*
D03*
Y464500D02*
D03*
X267000Y474500D02*
D03*
D46*
X293000Y269500D02*
D03*
X298000D02*
D03*
X293000Y274500D02*
D03*
X298000D02*
D03*
X293000Y279500D02*
D03*
X298000D02*
D03*
X293000Y284500D02*
D03*
X298000D02*
D03*
X295500Y272020D02*
D03*
Y281980D02*
D03*
X293500Y242500D02*
D03*
X298500D02*
D03*
X293500Y247500D02*
D03*
X298500D02*
D03*
X293500Y252500D02*
D03*
X298500D02*
D03*
X293500Y257500D02*
D03*
X298500D02*
D03*
X296000Y245020D02*
D03*
Y254980D02*
D03*
D47*
X235000Y492500D02*
D03*
X347000Y492000D02*
D03*
X406500Y117500D02*
D03*
X416000Y240500D02*
D03*
X412500Y360500D02*
D03*
X458500Y493000D02*
D03*
X458000Y108000D02*
D03*
X113500D02*
D03*
X161500Y239500D02*
D03*
X162225Y360452D02*
D03*
X113000Y492500D02*
D03*
D48*
X279250Y284750D02*
D03*
X197000Y171256D02*
D03*
X216500Y210500D02*
D03*
X216000Y338000D02*
D03*
X196500Y297500D02*
D03*
X205500Y278000D02*
D03*
X215851Y283916D02*
D03*
X202000Y402000D02*
D03*
X220500Y440000D02*
D03*
X231000Y128000D02*
D03*
X252500D02*
D03*
X194912Y158378D02*
D03*
X209560Y381030D02*
D03*
X377088Y448719D02*
D03*
X378000Y435500D02*
D03*
X357500Y395000D02*
D03*
X368000Y459000D02*
D03*
X359262Y292834D02*
D03*
X376500Y332500D02*
D03*
X378750Y347132D02*
D03*
X369500Y355000D02*
D03*
X383000Y206000D02*
D03*
X365500Y166000D02*
D03*
X281000Y257500D02*
D03*
X379338Y220885D02*
D03*
X222500Y388000D02*
D03*
X369000Y228500D02*
D03*
X241244Y143756D02*
D03*
M02*
