G04*
G04 #@! TF.GenerationSoftware,Altium Limited,Altium Designer,23.4.1 (23)*
G04*
G04 Layer_Color=8388736*
%FSLAX25Y25*%
%MOIN*%
G70*
G04*
G04 #@! TF.SameCoordinates,D3063454-9748-4D5F-95FB-788F291D17A3*
G04*
G04*
G04 #@! TF.FilePolarity,Negative*
G04*
G01*
G75*
%ADD20R,0.07900X0.02900*%
%ADD21R,0.04737X0.06509*%
%ADD22R,0.03871X0.04698*%
%ADD23R,0.06587X0.03713*%
%ADD24R,0.05446X0.11863*%
%ADD25R,0.08772X0.08772*%
%ADD26C,0.08772*%
%ADD27R,0.08772X0.08772*%
%ADD28R,0.06410X0.06410*%
%ADD29C,0.06410*%
%ADD30R,0.09186X0.09186*%
%ADD31C,0.09186*%
%ADD32C,0.07355*%
%ADD33C,0.02257*%
%ADD34C,0.24422*%
D20*
X188200Y166000D02*
D03*
Y171000D02*
D03*
Y176000D02*
D03*
Y181000D02*
D03*
Y186000D02*
D03*
Y191000D02*
D03*
Y196000D02*
D03*
Y201000D02*
D03*
Y206000D02*
D03*
Y211000D02*
D03*
X225800D02*
D03*
Y206000D02*
D03*
Y201000D02*
D03*
Y196000D02*
D03*
Y191000D02*
D03*
Y186000D02*
D03*
Y181000D02*
D03*
Y176000D02*
D03*
Y171000D02*
D03*
Y166000D02*
D03*
X187200Y293000D02*
D03*
Y298000D02*
D03*
Y303000D02*
D03*
Y308000D02*
D03*
Y313000D02*
D03*
Y318000D02*
D03*
Y323000D02*
D03*
Y328000D02*
D03*
Y333000D02*
D03*
Y338000D02*
D03*
X224800D02*
D03*
Y333000D02*
D03*
Y328000D02*
D03*
Y323000D02*
D03*
Y318000D02*
D03*
Y313000D02*
D03*
Y308000D02*
D03*
Y303000D02*
D03*
Y298000D02*
D03*
Y293000D02*
D03*
X193200Y395500D02*
D03*
Y400500D02*
D03*
Y405500D02*
D03*
Y410500D02*
D03*
Y415500D02*
D03*
Y420500D02*
D03*
Y425500D02*
D03*
Y430500D02*
D03*
Y435500D02*
D03*
Y440500D02*
D03*
X230800D02*
D03*
Y435500D02*
D03*
Y430500D02*
D03*
Y425500D02*
D03*
Y420500D02*
D03*
Y415500D02*
D03*
Y410500D02*
D03*
Y405500D02*
D03*
Y400500D02*
D03*
Y395500D02*
D03*
X355200Y211000D02*
D03*
Y206000D02*
D03*
Y201000D02*
D03*
Y196000D02*
D03*
Y191000D02*
D03*
Y186000D02*
D03*
Y181000D02*
D03*
Y176000D02*
D03*
Y171000D02*
D03*
Y166000D02*
D03*
X392800D02*
D03*
Y171000D02*
D03*
Y176000D02*
D03*
Y181000D02*
D03*
Y186000D02*
D03*
Y191000D02*
D03*
Y196000D02*
D03*
Y201000D02*
D03*
Y206000D02*
D03*
Y211000D02*
D03*
X348400Y440500D02*
D03*
Y435500D02*
D03*
Y430500D02*
D03*
Y425500D02*
D03*
Y420500D02*
D03*
Y415500D02*
D03*
Y410500D02*
D03*
Y405500D02*
D03*
Y400500D02*
D03*
Y395500D02*
D03*
X386000D02*
D03*
Y400500D02*
D03*
Y405500D02*
D03*
Y410500D02*
D03*
Y415500D02*
D03*
Y420500D02*
D03*
Y425500D02*
D03*
Y430500D02*
D03*
Y435500D02*
D03*
Y440500D02*
D03*
X349400Y338000D02*
D03*
Y333000D02*
D03*
Y328000D02*
D03*
Y323000D02*
D03*
Y318000D02*
D03*
Y313000D02*
D03*
Y308000D02*
D03*
Y303000D02*
D03*
Y298000D02*
D03*
Y293000D02*
D03*
X387000D02*
D03*
Y298000D02*
D03*
Y303000D02*
D03*
Y308000D02*
D03*
Y313000D02*
D03*
Y318000D02*
D03*
Y323000D02*
D03*
Y328000D02*
D03*
Y333000D02*
D03*
Y338000D02*
D03*
D21*
X166520Y296000D02*
D03*
X174000D02*
D03*
X166260Y303000D02*
D03*
X173740D02*
D03*
X166260Y310000D02*
D03*
X173740D02*
D03*
X166260Y331000D02*
D03*
X173740D02*
D03*
X166260Y289000D02*
D03*
X173740D02*
D03*
X166260Y324000D02*
D03*
X173740D02*
D03*
X166260Y317000D02*
D03*
X173740D02*
D03*
X166520Y282000D02*
D03*
X174000D02*
D03*
X169260Y435000D02*
D03*
X176740D02*
D03*
X169260Y393000D02*
D03*
X176740D02*
D03*
X169260Y400000D02*
D03*
X176740D02*
D03*
X169260Y407000D02*
D03*
X176740D02*
D03*
X169260Y414000D02*
D03*
X176740D02*
D03*
X169260Y428000D02*
D03*
X176740D02*
D03*
X169260Y421000D02*
D03*
X176740D02*
D03*
X169260Y442000D02*
D03*
X176740D02*
D03*
X400260Y430000D02*
D03*
X407740D02*
D03*
Y423000D02*
D03*
X400260D02*
D03*
X407740Y416000D02*
D03*
X400260D02*
D03*
X407740Y402000D02*
D03*
X400260D02*
D03*
X407740Y409000D02*
D03*
X400260D02*
D03*
X407740Y437000D02*
D03*
X400260D02*
D03*
X407740Y444000D02*
D03*
X400260D02*
D03*
X409248Y155328D02*
D03*
X401768D02*
D03*
X409248Y162328D02*
D03*
X401768D02*
D03*
X409248Y197328D02*
D03*
X401768D02*
D03*
X409248Y204328D02*
D03*
X401768D02*
D03*
X409248Y183328D02*
D03*
X401768D02*
D03*
X409248Y190328D02*
D03*
X401768D02*
D03*
X409248Y169328D02*
D03*
X401768D02*
D03*
X409248Y176328D02*
D03*
X401768D02*
D03*
X408740Y296000D02*
D03*
X401260D02*
D03*
X408740Y317000D02*
D03*
X401260D02*
D03*
X408740Y303000D02*
D03*
X401260D02*
D03*
X408740Y310000D02*
D03*
X401260D02*
D03*
X408740Y289000D02*
D03*
X401260D02*
D03*
X408740Y282000D02*
D03*
X401260D02*
D03*
X408740Y331000D02*
D03*
X401260D02*
D03*
X408740Y324000D02*
D03*
X401260D02*
D03*
X407740Y395000D02*
D03*
X400260D02*
D03*
X174740Y155000D02*
D03*
X167260D02*
D03*
X174740Y162000D02*
D03*
X167260D02*
D03*
X174740Y169000D02*
D03*
X167260D02*
D03*
X174740Y176000D02*
D03*
X167260D02*
D03*
X174740Y183000D02*
D03*
X167260D02*
D03*
X174740Y190000D02*
D03*
X167260D02*
D03*
X174740Y197000D02*
D03*
X167260D02*
D03*
X174740Y204000D02*
D03*
X167260D02*
D03*
D22*
X210256Y284000D02*
D03*
X204744D02*
D03*
X220244Y135000D02*
D03*
X225756D02*
D03*
X245244Y134500D02*
D03*
X250756D02*
D03*
X364244Y449000D02*
D03*
X369756D02*
D03*
X369244Y220500D02*
D03*
X374756D02*
D03*
X365744Y347000D02*
D03*
X371256D02*
D03*
X209744Y388000D02*
D03*
X215256D02*
D03*
X208256Y158000D02*
D03*
X202744D02*
D03*
D23*
X288138Y269500D02*
D03*
X302862D02*
D03*
X288138Y274500D02*
D03*
X302862D02*
D03*
X288138Y279500D02*
D03*
X302862D02*
D03*
X288138Y284500D02*
D03*
X302862D02*
D03*
X288638Y242500D02*
D03*
X303362D02*
D03*
X288638Y247500D02*
D03*
X303362D02*
D03*
X288638Y252500D02*
D03*
X303362D02*
D03*
X288638Y257500D02*
D03*
X303362D02*
D03*
D24*
X194653Y138000D02*
D03*
X206347D02*
D03*
D25*
X168941Y476000D02*
D03*
X376220Y477000D02*
D03*
X194500Y123000D02*
D03*
X377898Y122500D02*
D03*
D26*
X182720Y476000D02*
D03*
X196500D02*
D03*
X210279D02*
D03*
X390000Y477000D02*
D03*
X403780D02*
D03*
X417559D02*
D03*
X134000Y348457D02*
D03*
Y334677D02*
D03*
Y320898D02*
D03*
Y307118D02*
D03*
Y293339D02*
D03*
Y279559D02*
D03*
Y265779D02*
D03*
X180720Y123000D02*
D03*
X364118Y122500D02*
D03*
X350339D02*
D03*
X336559D02*
D03*
X322779D02*
D03*
X309000D02*
D03*
X295220D02*
D03*
X281441D02*
D03*
X440000Y455898D02*
D03*
Y442118D02*
D03*
Y428339D02*
D03*
Y414559D02*
D03*
Y400779D02*
D03*
Y387000D02*
D03*
Y373220D02*
D03*
X134000Y386779D02*
D03*
Y400559D02*
D03*
Y414339D02*
D03*
Y428118D02*
D03*
Y441898D02*
D03*
Y455677D02*
D03*
Y469457D02*
D03*
Y143323D02*
D03*
Y157102D02*
D03*
Y170882D02*
D03*
Y184661D02*
D03*
Y198441D02*
D03*
Y212221D02*
D03*
Y226000D02*
D03*
X440000Y334677D02*
D03*
Y320898D02*
D03*
Y307118D02*
D03*
Y293339D02*
D03*
Y279559D02*
D03*
Y265779D02*
D03*
Y252000D02*
D03*
Y213559D02*
D03*
Y199779D02*
D03*
Y186000D02*
D03*
Y172221D02*
D03*
Y158441D02*
D03*
Y144661D02*
D03*
Y130882D02*
D03*
D27*
X134000Y252000D02*
D03*
X440000Y469677D02*
D03*
X134000Y373000D02*
D03*
Y129543D02*
D03*
X440000Y348457D02*
D03*
Y227339D02*
D03*
D28*
X279500Y136000D02*
D03*
D29*
X289500D02*
D03*
X299500D02*
D03*
X309500D02*
D03*
X319500D02*
D03*
X329500D02*
D03*
X339500D02*
D03*
X349500D02*
D03*
D30*
X226421Y117000D02*
D03*
D31*
X236461D02*
D03*
X246500D02*
D03*
D32*
X267000Y454500D02*
D03*
Y444500D02*
D03*
Y434500D02*
D03*
Y424500D02*
D03*
Y414500D02*
D03*
Y404500D02*
D03*
Y394500D02*
D03*
Y384500D02*
D03*
Y374500D02*
D03*
Y364500D02*
D03*
Y354500D02*
D03*
Y344500D02*
D03*
X327000D02*
D03*
Y354500D02*
D03*
Y364500D02*
D03*
Y374500D02*
D03*
Y384500D02*
D03*
Y394500D02*
D03*
Y404500D02*
D03*
Y414500D02*
D03*
Y424500D02*
D03*
Y434500D02*
D03*
Y444500D02*
D03*
X267000Y324500D02*
D03*
Y314500D02*
D03*
Y304500D02*
D03*
Y294500D02*
D03*
Y284500D02*
D03*
Y274500D02*
D03*
Y264500D02*
D03*
Y254500D02*
D03*
Y244500D02*
D03*
X327000D02*
D03*
Y254500D02*
D03*
Y264500D02*
D03*
Y274500D02*
D03*
Y284500D02*
D03*
Y294500D02*
D03*
Y304500D02*
D03*
Y314500D02*
D03*
Y324500D02*
D03*
X267000Y334500D02*
D03*
X277000Y294500D02*
D03*
X287000D02*
D03*
X297000D02*
D03*
X307000D02*
D03*
X317000D02*
D03*
X279008Y409500D02*
D03*
Y419500D02*
D03*
Y429500D02*
D03*
Y439500D02*
D03*
Y449500D02*
D03*
X327000Y454500D02*
D03*
Y474500D02*
D03*
X267000Y464500D02*
D03*
X317000D02*
D03*
X327000Y334500D02*
D03*
Y464500D02*
D03*
X267000Y474500D02*
D03*
D33*
X293000Y269500D02*
D03*
X298000D02*
D03*
X293000Y274500D02*
D03*
X298000D02*
D03*
X293000Y279500D02*
D03*
X298000D02*
D03*
X293000Y284500D02*
D03*
X298000D02*
D03*
X295500Y272020D02*
D03*
Y281980D02*
D03*
X293500Y242500D02*
D03*
X298500D02*
D03*
X293500Y247500D02*
D03*
X298500D02*
D03*
X293500Y252500D02*
D03*
X298500D02*
D03*
X293500Y257500D02*
D03*
X298500D02*
D03*
X296000Y245020D02*
D03*
Y254980D02*
D03*
D34*
X235000Y492500D02*
D03*
X347000Y492000D02*
D03*
X406500Y117500D02*
D03*
X416000Y240500D02*
D03*
X412500Y360500D02*
D03*
X458500Y493000D02*
D03*
X458000Y108000D02*
D03*
X113500D02*
D03*
X161500Y239500D02*
D03*
X162225Y360452D02*
D03*
X113000Y492500D02*
D03*
M02*
