G04*
G04 #@! TF.GenerationSoftware,Altium Limited,Altium Designer,23.4.1 (23)*
G04*
G04 Layer_Color=16711935*
%FSLAX25Y25*%
%MOIN*%
G70*
G04*
G04 #@! TF.SameCoordinates,D3063454-9748-4D5F-95FB-788F291D17A3*
G04*
G04*
G04 #@! TF.FilePolarity,Negative*
G04*
G01*
G75*
%ADD25R,0.08772X0.08772*%
%ADD26C,0.08772*%
%ADD27R,0.08772X0.08772*%
%ADD28R,0.06410X0.06410*%
%ADD29C,0.06410*%
%ADD30R,0.09186X0.09186*%
%ADD31C,0.09186*%
%ADD32C,0.07355*%
%ADD33C,0.02257*%
%ADD34C,0.24422*%
D25*
X168941Y476000D02*
D03*
X376220Y477000D02*
D03*
X194500Y123000D02*
D03*
X377898Y122500D02*
D03*
D26*
X182720Y476000D02*
D03*
X196500D02*
D03*
X210279D02*
D03*
X390000Y477000D02*
D03*
X403780D02*
D03*
X417559D02*
D03*
X134000Y348457D02*
D03*
Y334677D02*
D03*
Y320898D02*
D03*
Y307118D02*
D03*
Y293339D02*
D03*
Y279559D02*
D03*
Y265779D02*
D03*
X180720Y123000D02*
D03*
X364118Y122500D02*
D03*
X350339D02*
D03*
X336559D02*
D03*
X322779D02*
D03*
X309000D02*
D03*
X295220D02*
D03*
X281441D02*
D03*
X440000Y455898D02*
D03*
Y442118D02*
D03*
Y428339D02*
D03*
Y414559D02*
D03*
Y400779D02*
D03*
Y387000D02*
D03*
Y373220D02*
D03*
X134000Y386779D02*
D03*
Y400559D02*
D03*
Y414339D02*
D03*
Y428118D02*
D03*
Y441898D02*
D03*
Y455677D02*
D03*
Y469457D02*
D03*
Y143323D02*
D03*
Y157102D02*
D03*
Y170882D02*
D03*
Y184661D02*
D03*
Y198441D02*
D03*
Y212221D02*
D03*
Y226000D02*
D03*
X440000Y334677D02*
D03*
Y320898D02*
D03*
Y307118D02*
D03*
Y293339D02*
D03*
Y279559D02*
D03*
Y265779D02*
D03*
Y252000D02*
D03*
Y213559D02*
D03*
Y199779D02*
D03*
Y186000D02*
D03*
Y172221D02*
D03*
Y158441D02*
D03*
Y144661D02*
D03*
Y130882D02*
D03*
D27*
X134000Y252000D02*
D03*
X440000Y469677D02*
D03*
X134000Y373000D02*
D03*
Y129543D02*
D03*
X440000Y348457D02*
D03*
Y227339D02*
D03*
D28*
X279500Y136000D02*
D03*
D29*
X289500D02*
D03*
X299500D02*
D03*
X309500D02*
D03*
X319500D02*
D03*
X329500D02*
D03*
X339500D02*
D03*
X349500D02*
D03*
D30*
X226421Y117000D02*
D03*
D31*
X236461D02*
D03*
X246500D02*
D03*
D32*
X267000Y454500D02*
D03*
Y444500D02*
D03*
Y434500D02*
D03*
Y424500D02*
D03*
Y414500D02*
D03*
Y404500D02*
D03*
Y394500D02*
D03*
Y384500D02*
D03*
Y374500D02*
D03*
Y364500D02*
D03*
Y354500D02*
D03*
Y344500D02*
D03*
X327000D02*
D03*
Y354500D02*
D03*
Y364500D02*
D03*
Y374500D02*
D03*
Y384500D02*
D03*
Y394500D02*
D03*
Y404500D02*
D03*
Y414500D02*
D03*
Y424500D02*
D03*
Y434500D02*
D03*
Y444500D02*
D03*
X267000Y324500D02*
D03*
Y314500D02*
D03*
Y304500D02*
D03*
Y294500D02*
D03*
Y284500D02*
D03*
Y274500D02*
D03*
Y264500D02*
D03*
Y254500D02*
D03*
Y244500D02*
D03*
X327000D02*
D03*
Y254500D02*
D03*
Y264500D02*
D03*
Y274500D02*
D03*
Y284500D02*
D03*
Y294500D02*
D03*
Y304500D02*
D03*
Y314500D02*
D03*
Y324500D02*
D03*
X267000Y334500D02*
D03*
X277000Y294500D02*
D03*
X287000D02*
D03*
X297000D02*
D03*
X307000D02*
D03*
X317000D02*
D03*
X279008Y409500D02*
D03*
Y419500D02*
D03*
Y429500D02*
D03*
Y439500D02*
D03*
Y449500D02*
D03*
X327000Y454500D02*
D03*
Y474500D02*
D03*
X267000Y464500D02*
D03*
X317000D02*
D03*
X327000Y334500D02*
D03*
Y464500D02*
D03*
X267000Y474500D02*
D03*
D33*
X293000Y269500D02*
D03*
X298000D02*
D03*
X293000Y274500D02*
D03*
X298000D02*
D03*
X293000Y279500D02*
D03*
X298000D02*
D03*
X293000Y284500D02*
D03*
X298000D02*
D03*
X295500Y272020D02*
D03*
Y281980D02*
D03*
X293500Y242500D02*
D03*
X298500D02*
D03*
X293500Y247500D02*
D03*
X298500D02*
D03*
X293500Y252500D02*
D03*
X298500D02*
D03*
X293500Y257500D02*
D03*
X298500D02*
D03*
X296000Y245020D02*
D03*
Y254980D02*
D03*
D34*
X235000Y492500D02*
D03*
X347000Y492000D02*
D03*
X406500Y117500D02*
D03*
X416000Y240500D02*
D03*
X412500Y360500D02*
D03*
X458500Y493000D02*
D03*
X458000Y108000D02*
D03*
X113500D02*
D03*
X161500Y239500D02*
D03*
X162225Y360452D02*
D03*
X113000Y492500D02*
D03*
M02*
